<?xml version="1.0" encoding="UTF-8" standalone="no"?>
<!-- Generator: Adobe Illustrator 13.0.0, SVG Export Plug-In . SVG Version: 6.00 Build 14948)  -->

<svg
   version="1.1"
   id="Layer_1"
   x="0px"
   y="0px"
   width="128"
   height="128"
   viewBox="0 0 128 128"
   enable-background="new 0 0 123.024 69.885"
   xml:space="preserve"
   sodipodi:docname="CACI_International_logo.svg"
   inkscape:version="1.4.2 (f4327f4, 2025-05-13)"
   xmlns:inkscape="http://www.inkscape.org/namespaces/inkscape"
   xmlns:sodipodi="http://sodipodi.sourceforge.net/DTD/sodipodi-0.dtd"
   xmlns="http://www.w3.org/2000/svg"
   xmlns:svg="http://www.w3.org/2000/svg"><defs
   id="defs16" /><sodipodi:namedview
   id="namedview16"
   pagecolor="#ffffff"
   bordercolor="#000000"
   borderopacity="0.25"
   inkscape:showpageshadow="2"
   inkscape:pageopacity="0.0"
   inkscape:pagecheckerboard="0"
   inkscape:deskcolor="#d1d1d1"
   inkscape:zoom="6.1171923"
   inkscape:cx="69.721528"
   inkscape:cy="56.807107"
   inkscape:window-width="1920"
   inkscape:window-height="1057"
   inkscape:window-x="1912"
   inkscape:window-y="-8"
   inkscape:window-maximized="1"
   inkscape:current-layer="Layer_1" />
<g
   id="g16"
   transform="matrix(0.91579354,0,0,0.91579354,9.4996994,31.999768)">
	<path
   d="M 36.802,0.672 36.784,14.581 C 36.73,15.12 36.311,15.183 36.241,14.613 35.708,6.883 26.633,-0.309 18.121,2.775 7.966,6.456 6.57,17.646 7.672,26.281 c 0.437,3.422 1.373,6.537 3.738,9.458 2.377,2.939 5.637,4.901 9.593,5.244 6.431,0.554 12.169,-2.406 15.732,-7.401 0.093,-0.135 0.393,0.07 0.351,0.155 C 33.118,42.675 20.506,46.61 11.154,41.196 -1.078,34.113 -3.101,19.423 4.357,8.713 10.492,-0.102 23.124,-2.486 32.97,2.746 34.456,3.535 35.537,1.877 36.279,0.669 Z"
   id="path1" />
	<path
   d="m 117.723,39.472 c 0,2.063 3.7,2.456 4.929,2.433 v 0.929 h -16.923 v -0.929 c 1.01,0.023 5.156,-0.37 5.156,-2.433 V 3.753 c 0,-2.792 -4.594,-2.455 -5.156,-2.556 V 0.265 h 16.923 v 0.933 c -0.56,0.101 -4.929,-0.289 -4.929,2.556 z"
   id="path2" />
	<path
   d="m 104.723,0.672 -0.019,13.909 c -0.057,0.539 -0.476,0.602 -0.546,0.032 -0.529,-7.73 -9.605,-14.922 -18.117,-11.838 -10.154,3.681 -11.552,14.87 -10.45,23.506 0.438,3.422 1.375,6.537 3.738,9.458 2.379,2.939 5.639,4.901 9.592,5.244 6.432,0.554 12.17,-2.406 15.732,-7.401 0.093,-0.135 0.396,0.07 0.354,0.155 C 101.035,42.675 88.424,46.61 79.073,41.196 66.84,34.113 64.819,19.423 72.279,8.713 c 6.134,-8.814 18.768,-11.199 28.613,-5.967 1.484,0.789 2.563,-0.869 3.308,-2.077 z"
   id="path3" />
	<path
   d="m 46.141,26.446 6.043,-14.5 6.427,14.5 z M 71.435,40.246 53.948,0.493 36.462,40.191 c -0.61,1.129 -1.388,1.565 -2.744,2.016 v 0.644 l 11.264,0.006 V 42.208 C 42.594,41.843 39.733,41.5 40.612,38.959 l 4.378,-9.744 0.012,-0.036 h 14.819 l 0.013,0.028 4.483,10.312 c 0.952,2.353 -2.826,2.692 -4.541,2.689 V 42.86 L 75.3,42.851 v -0.672 c -0.952,0 -2.968,-0.029 -3.865,-1.933"
   id="path4" />
	<rect
   x="2.461"
   y="49.487"
   fill="#ed1c2e"
   width="120.563"
   height="4.0799999"
   id="rect4" />
	<path
   d="m 5.819,64.51 h 2.122 c 1.259,0 1.754,-0.114 1.85,-1.376 h 0.287 v 3.275 H 9.791 C 9.663,65.161 9.232,65.02 7.941,65.02 H 5.819 v 3.431 c 0,0.581 0.192,0.708 0.861,0.708 h 2.17 c 1.404,0 1.915,-0.581 2.743,-1.842 h 0.304 l -0.893,2.354 H 2.82 v -0.255 c 1.5,0 1.5,-0.354 1.5,-1.545 v -5.786 c 0,-1.19 0,-1.545 -1.5,-1.545 v -0.256 h 8.103 l 0.144,2.056 H 10.748 C 10.446,60.907 10.014,60.794 8.515,60.794 H 5.819 Z"
   id="path5" />
	<path
   d="m 20.227,62.467 c 0.128,-0.269 0.431,-0.949 0.431,-1.219 0,-0.511 -0.654,-0.666 -1.117,-0.708 v -0.256 h 3.255 v 0.256 c -0.973,0.085 -1.324,0.793 -1.659,1.518 l -3.606,7.827 H 17.244 L 13.368,61.956 C 12.954,61.091 12.794,60.609 11.613,60.54 v -0.256 h 4.323 v 0.256 c -0.494,0.057 -1.181,0.069 -1.181,0.665 0,0.37 0.287,0.879 0.447,1.206 l 2.601,5.345 z"
   id="path6" />
	<path
   d="m 26.289,64.51 h 2.122 c 1.261,0 1.755,-0.114 1.851,-1.376 h 0.287 v 3.275 H 30.262 C 30.134,65.161 29.703,65.02 28.411,65.02 h -2.122 v 3.431 c 0,0.581 0.191,0.708 0.862,0.708 h 2.169 c 1.404,0 1.915,-0.581 2.745,-1.842 h 0.302 l -0.893,2.354 H 23.29 v -0.255 c 1.5,0 1.5,-0.354 1.5,-1.545 v -5.786 c 0,-1.19 0,-1.545 -1.5,-1.545 v -0.256 h 8.104 l 0.143,2.056 h -0.318 c -0.304,-1.433 -0.734,-1.546 -2.234,-1.546 h -2.696 z"
   id="path7" />
	<path
   d="m 36.176,64.836 h 0.35 c 1.516,0 3.112,-0.483 3.112,-2.058 0,-1.134 -0.862,-1.984 -2.154,-1.984 -0.447,0 -0.877,0.07 -1.308,0.127 z m 4.674,4.835 -3.589,-4.381 h -1.085 v 2.581 c 0,1.19 0,1.545 1.5,1.545 v 0.255 h -4.499 v -0.255 c 1.499,0 1.499,-0.354 1.499,-1.545 v -5.787 c 0,-1.19 0,-1.544 -1.499,-1.544 v -0.257 h 4.578 c 3.111,0 3.669,1.616 3.669,2.439 0,1.361 -1.228,2.127 -2.616,2.383 l 2.058,2.553 c 0.782,0.964 1.355,1.658 2.807,1.758 v 0.255 z"
   id="path8" />
	<path
   d="m 56.017,62.467 c 0.128,-0.269 0.432,-0.949 0.432,-1.219 0,-0.511 -0.654,-0.666 -1.118,-0.708 v -0.256 h 3.255 v 0.256 c -0.973,0.085 -1.324,0.793 -1.658,1.518 l -3.607,7.827 H 53.035 L 49.158,61.956 C 48.743,61.091 48.584,60.609 47.404,60.54 v -0.256 h 4.322 v 0.256 c -0.494,0.057 -1.179,0.069 -1.179,0.665 0,0.37 0.286,0.879 0.445,1.206 l 2.601,5.345 z"
   id="path9" />
	<path
   d="m 62.244,67.871 c 0,1.19 0,1.545 1.5,1.545 v 0.255 h -4.499 v -0.255 c 1.499,0 1.499,-0.354 1.499,-1.545 v -5.787 c 0,-1.19 0,-1.544 -1.499,-1.544 v -0.256 h 4.499 v 0.256 c -1.5,0 -1.5,0.354 -1.5,1.544 z"
   id="path10" />
	<path
   d="m 73.951,69.062 c -1.101,0.538 -2.36,0.822 -3.639,0.822 -4.673,0 -5.885,-3.077 -5.885,-4.749 0,-2.187 1.802,-5.064 5.583,-5.064 0.78,0 1.372,0.129 1.963,0.313 0.238,0.071 0.781,0.285 0.988,0.285 0.351,0 0.383,-0.356 0.398,-0.598 h 0.287 l 0.272,2.964 H 73.63 c -0.526,-1.56 -1.644,-2.48 -3.525,-2.48 -2.681,0 -3.892,2.141 -3.892,4.268 0,2.709 1.689,4.58 4.098,4.58 0.671,0 1.516,-0.157 2.14,-0.511 v -2.537 c 0,-1.192 0,-1.546 -1.501,-1.546 v -0.255 h 4.196 v 0.255 c -1.022,0 -1.196,0.327 -1.196,1.317 v 2.936 z"
   id="path11" />
	<path
   d="m 79.097,67.915 c 0,1.191 0,1.546 1.501,1.546 v 0.255 h -4.499 v -0.255 c 1.499,0 1.499,-0.354 1.499,-1.546 V 62.13 c 0,-1.192 0,-1.546 -1.499,-1.546 v -0.256 h 4.499 v 0.256 c -1.501,0 -1.501,0.354 -1.501,1.546 z"
   id="path12" />
	<path
   d="m 84.978,67.872 c 0,0.708 0,1.235 0.718,1.235 h 2.361 c 1.276,0 2.073,-0.468 2.743,-1.986 l 0.256,0.043 -0.909,2.552 H 81.98 v -0.255 c 1.499,0 1.499,-0.354 1.499,-1.546 v -5.786 c 0,-1.19 0,-1.545 -1.499,-1.545 v -0.256 h 4.77 v 0.256 c -1.771,0 -1.771,0.411 -1.771,1.688 v 5.6 z"
   id="path13" />
	<path
   d="M 95.833,62.271 94,66.057 h 3.637 z m -2.074,4.296 -0.637,1.318 c -0.129,0.243 -0.351,0.682 -0.351,0.951 0,0.523 0.637,0.582 1.228,0.625 v 0.255 H 90.68 v -0.255 c 0.83,-0.072 1.165,-0.439 1.645,-1.434 l 3.796,-7.913 h 0.287 l 3.59,7.658 c 0.399,0.85 0.702,1.646 1.882,1.688 v 0.255 H 97.716 V 69.46 c 0.688,-0.029 1.086,-0.144 1.086,-0.64 0,-0.312 -0.256,-0.794 -0.383,-1.078 l -0.575,-1.177 h -4.085 z"
   id="path14" />
	<path
   d="m 104.65,67.915 c 0,1.191 0,1.546 1.499,1.546 v 0.255 h -3.684 v -0.255 c 1.499,0 1.499,-0.354 1.499,-1.546 v -6.353 c -0.574,-0.639 -1.022,-0.979 -2.091,-0.979 v -0.256 h 2.871 l 6.43,7.02 h 0.03 V 62.13 c 0,-1.192 0,-1.546 -1.498,-1.546 v -0.256 h 3.686 v 0.256 c -1.499,0 -1.499,0.354 -1.499,1.546 v 7.741 h -0.287 l -6.924,-7.544 h -0.032 z"
   id="path15" />
	<path
   d="m 119.27,67.915 c 0,1.191 0,1.546 1.499,1.546 v 0.255 h -4.499 v -0.255 c 1.501,0 1.501,-0.354 1.501,-1.546 v -6.978 h -1.58 c -1.324,0 -1.724,0.71 -1.803,1.589 h -0.287 l 0.111,-2.198 h 8.614 l 0.111,2.198 h -0.287 c -0.079,-0.879 -0.479,-1.589 -1.802,-1.589 h -1.579 v 6.978 z"
   id="path16" />
</g>
</svg>
