<?xml version="1.0" encoding="UTF-8" standalone="no"?>
<svg
   width="256"
   height="128"
   viewBox="0 0 230.70889 258.13439"
   id="svg2"
   sodipodi:version="0.32"
   inkscape:version="1.4.2 (f4327f4, 2025-05-13)"
   sodipodi:docname="Cargill_logo.svg"
   inkscape:output_extension="org.inkscape.output.svg.inkscape"
   version="1.0"
   xmlns:inkscape="http://www.inkscape.org/namespaces/inkscape"
   xmlns:sodipodi="http://sodipodi.sourceforge.net/DTD/sodipodi-0.dtd"
   xmlns="http://www.w3.org/2000/svg"
   xmlns:svg="http://www.w3.org/2000/svg"
   xmlns:rdf="http://www.w3.org/1999/02/22-rdf-syntax-ns#"
   xmlns:cc="http://creativecommons.org/ns#"
   xmlns:dc="http://purl.org/dc/elements/1.1/">
  <metadata
     id="metadata47">
    <rdf:RDF>
      <cc:Work
         rdf:about="">
        <dc:format>image/svg+xml</dc:format>
        <dc:type
           rdf:resource="http://purl.org/dc/dcmitype/StillImage" />
      </cc:Work>
    </rdf:RDF>
  </metadata>
  <defs
     id="defs45">
    <inkscape:perspective
       sodipodi:type="inkscape:persp3d"
       inkscape:vp_x="0 : 185.38439 : 1"
       inkscape:vp_y="0 : 999.99999 : 0"
       inkscape:vp_z="242.5 : 185.38439 : 1"
       inkscape:persp3d-origin="121.25 : 144.96772 : 1"
       id="perspective49" />
  </defs>
  <sodipodi:namedview
     inkscape:window-height="1057"
     inkscape:window-width="1920"
     inkscape:pageshadow="2"
     inkscape:pageopacity="0.0"
     guidetolerance="10.0"
     gridtolerance="10.0"
     objecttolerance="10.0"
     borderopacity="1.0"
     bordercolor="#666666"
     pagecolor="#ffffff"
     id="base"
     showgrid="false"
     inkscape:zoom="1.9051546"
     inkscape:cx="120.98756"
     inkscape:cy="115.21375"
     inkscape:window-x="1912"
     inkscape:window-y="-8"
     inkscape:current-layer="svg2"
     inkscape:showpageshadow="2"
     inkscape:pagecheckerboard="0"
     inkscape:deskcolor="#d1d1d1"
     inkscape:window-maximized="1" />
  <g
     id="g2422"
     transform="matrix(1.6771043,0,0,1.6771043,-48.455247,-32.380622)">
    <g
       id="g4"
       style="fill:#161413;fill-rule:evenodd;stroke:none;stroke-width:1;stroke-linecap:butt;stroke-linejoin:miter;stroke-dasharray:none"
       transform="translate(41.7666,89.0635)">
      <path
         id="path6"
         d="m 19.8682,0 c 5.0703,0 8.1543,0.8916 9.706,2.7959 0.8457,1.0361 1.2725,2.414 1.2822,4.1592 0.0049,0.9697 -0.1181,2.0517 -0.3662,3.2558 0,0 -3.4755,16.7876 -3.4755,16.7876 -0.4815,2.321 -0.7715,4.098 -0.7637,5.571 0.0029,0.467 0.0459,0.899 0.1133,1.308 -1.3946,0 -8.4229,0 -9.5088,0 -0.003,-0.103 -0.0176,-0.203 -0.0176,-0.309 -0.0039,-0.696 0.0498,-1.431 0.1103,-2.192 0,0 0.0997,-1.377 0.0997,-1.377 0,0 -0.5264,0 -0.5264,0 0,0 -0.208,0.328 -0.208,0.328 -1.7061,2.743 -5.5811,4.44 -8.9014,4.44 -2.7519,0 -4.7236,-0.704 -5.8594,-2.1 C 0.2988,31.1305 0,28.7225 0.6621,25.5145 c 1.2969,-6.267 4.1465,-8.919 11.293,-10.523 0.0039,0 4.7451,-1.081 4.7451,-1.081 2.8154,-0.622 4.1719,-1.863 4.6748,-4.2904 C 21.6494,8.2881 21.501,7.2588 20.9316,6.5566 20.4033,5.9111 19.5557,5.584 18.4141,5.584 c -2.5411,0 -3.8936,1.3125 -4.7305,4.5791 -0.8789,0 -7.0947,0 -8.4854,0 C 7.4795,1.3506 15.3125,0 19.8682,0 Z m -0.1055,17.2825 c 0,0 -0.1914,0.175 -0.5596,0.32 -0.6006,0.231 -1.9336,0.449 -2.7578,0.656 -0.6387,0.159 -1.3594,0.343 -2.1377,0.67 -2.0722,0.878 -3.1406,2.315 -3.6904,4.957 -0.3203,1.546 -0.1328,2.81 0.5488,3.647 0.5088,0.627 1.2617,0.956 2.1699,0.956 3.7061,0 4.8682,-3.545 5.42,-6.216 0,0 1.0332,-4.99 1.0332,-4.99 0,0 -0.0264,0 -0.0264,0 0,0 -1.0068,4.99 -1.0068,4.99 z" />
    </g>
    <g
       id="g8"
       style="fill:#161413;fill-rule:evenodd;stroke:none;stroke-width:1;stroke-linecap:butt;stroke-linejoin:miter;stroke-dasharray:none"
       transform="translate(92.6445,89.0635)">
      <path
         id="path10"
         d="M 2.9688,30.9145 C 0.9619,28.4515 0.5684,24.5775 1.9532,17.6765 4.9746,2.6523 10.6855,0 15.6545,0 c 2.362,0 5.92,0.875 6.338,5.0205 0,0 0.066,0.6445 0.066,0.6445 0,0 0.69,0 0.69,0 0,0 0.807,-3.8994 0.984,-4.7695 0.936,0 7.854,0 9.237,0 -0.336,1.6181 -6.86,32.982 -6.86,32.982 -1.629,7.879 -6.688,11.804 -15.969,11.804 -8.5985,0 -9.8739,-5.07 -10.0672,-6.64 -0.0733,-0.596 0.1269,-2.355 0.1269,-2.355 0.9893,0 7.7313,0 8.9883,0 0,0.007 0,0.007 0,0.007 0.005,0.801 0.065,1.983 0.336,2.315 0.372,0.459 0.681,0.998 2.107,0.998 1.893,0 3.705,-0.546 4.589,-4.819 0,0 1.53,-7.401 1.53,-7.401 0,0 -0.738,0 -0.738,0 0,0 -0.204,0.348 -0.204,0.348 -1.841,3.187 -5.269,4.798 -8.884,4.798 -2.2262,0 -3.8493,-0.656 -4.9557,-2.018 z m 9.1717,-13.968 c -1.011,4.89 -0.967,6.77 0.022,7.984 0.491,0.606 1.226,0.896 2.241,0.896 2.808,0 4.18,-1.705 5.606,-8.587 1.019,-4.929 1.125,-8.0598 0.15,-9.261 -0.479,-0.583 -1.18,-0.8731 -2.147,-0.8731 -2.901,0 -4.45,2.959 -5.872,9.8411 z" />
    </g>
    <g
       id="g12"
       style="fill:#161413;fill-rule:evenodd;stroke:none;stroke-width:1;stroke-linecap:butt;stroke-linejoin:miter;stroke-dasharray:none"
       transform="translate(123.604,89.959)">
      <path
         id="path14"
         d="M 16.823,0 C 16.494,1.5918 10.221,31.928 10,32.982 c -0.946,0 -8.59,0 -10,0 C 0.331,31.389 6.611,1.0537 6.83,0 c 0.945,0 8.59,0 9.993,0 z" />
    </g>
    <g
       id="g16"
       style="fill:#161413;fill-rule:evenodd;stroke:none;stroke-width:1;stroke-linecap:butt;stroke-linejoin:miter;stroke-dasharray:none"
       transform="translate(139.69,78.9561)">
      <path
         id="path18"
         d="m 19.102,0 c -0.334,1.6181 -8.877,42.9129 -9.101,43.9849 -0.95,0 -8.589,0 -10.001,0 C 0.334,42.3619 8.88,1.0673 9.104,0 c 0.95,0 8.59,0 9.998,0 z" />
    </g>
    <g
       id="g20"
       style="fill:#161413;fill-rule:evenodd;stroke:none;stroke-width:1;stroke-linecap:butt;stroke-linejoin:miter;stroke-dasharray:none"
       transform="translate(155.721,78.9561)">
      <path
         id="path22"
         d="m 19.105,0 c -0.339,1.6181 -8.883,42.9129 -9.109,43.9849 -0.944,0 -8.593,0 -9.996,0 C 0.338,42.3619 8.883,1.0673 9.104,0 10.054,0 17.7,0 19.105,0 Z" />
    </g>
    <g
       id="g24"
       style="fill:#161413;fill-rule:evenodd;stroke:none;stroke-width:1;stroke-linecap:butt;stroke-linejoin:miter;stroke-dasharray:none"
       transform="translate(71.7109,89.0635)">
      <path
         id="path26"
         d="m 25.3262,0 c -3.2773,0 -7.1767,2.2929 -9.081,5.9795 0,0 -0.1973,0.3808 -0.1973,0.3808 0,0 -0.7324,0 -0.7324,0 0,0 0.8808,-4.2519 1.1289,-5.4648 -0.1865,0 -0.4854,0 -0.8565,0 0,0 0,-0.0039 0,-0.0039 -1.0859,0 -8.1152,0 -9.5117,0 C 6.1436,1.3037 6.1866,1.7344 6.1895,2.2051 6.1954,3.2627 6.044,4.4853 5.7803,5.9531 3.9268,14.9095 0.2481,32.6675 0,33.8775 c 1.4073,0 9.0518,0 10.0049,0 0.6387,-3.098 3.7598,-18.2 3.7598,-18.2 0.9414,-4.543 3.6055,-6.658 8.376,-6.658 0.8232,0 1.5468,0.0459 2.2578,0.1504 C 24.6211,8.0986 26.0186,1.3506 26.2959,0 25.8116,0 25.3262,0 25.3262,0 Z" />
    </g>
    <g
       id="g28"
       style="fill:#161413;fill-rule:evenodd;stroke:none;stroke-width:1;stroke-linecap:butt;stroke-linejoin:miter;stroke-dasharray:none"
       transform="translate(11.6572,78.7568)">
      <path
         id="path30"
         d="M 2.6084,42.4672 C 0.1104,39.4012 0,33.7642 2.2285,23.0052 5.7862,5.8047 10.9317,0 22.6153,0 c 4.6679,0 7.9453,1.1133 9.7353,3.3096 1.1582,1.419 1.7442,3.3565 1.7578,5.7861 0.0078,1.3233 -0.1543,2.7959 -0.4873,4.4053 0,0 -0.3047,1.4688 -0.4775,2.2998 -0.9483,0 -9.8457,0 -9.8457,0 0,0 0.7295,-4.6943 0.7236,-5.7295 C 24.0147,8.9063 23.9698,8.2754 23.5244,7.6875 23.0625,7.0791 22.376,6.5918 21.2998,6.5918 c -4.3515,0 -5.7812,4.1446 -8.2597,16.1214 -1.9239,9.297 -2.6123,13.564 -1.126,15.387 0.5635,0.688 1.4121,1.023 2.6025,1.023 3.4268,0 4.7774,-2.938 6.4991,-11.111 0.9443,0 8.5126,0 9.9179,0 -0.1953,0.946 -0.5205,2.51 -0.5205,2.51 -2.0849,10.079 -7.9932,15.194 -17.5615,15.194 -5.1817,0 -8.4365,-1.036 -10.2432,-3.249 z" />
    </g>
    <g
       id="g32"
       style="fill:#161413;fill-rule:evenodd;stroke:none;stroke-width:1;stroke-linecap:butt;stroke-linejoin:miter;stroke-dasharray:none"
       transform="translate(176.852,78.9326)">
      <path
         id="path34"
         d="m 0.097,0 c 0,0 3.001,0 3.001,0 0,0 -0.1,0.4776 -0.1,0.4776 0,0 -1.236,0 -1.236,0 0,0 -0.888,4.2998 -0.888,4.2998 0,0 -0.53,0 -0.53,0 0,0 0.889,-4.2998 0.889,-4.2998 0,0 -1.233,0 -1.233,0 z" />
    </g>
    <g
       id="g36"
       style="fill:#161413;fill-rule:evenodd;stroke:none;stroke-width:1;stroke-linecap:butt;stroke-linejoin:miter;stroke-dasharray:none"
       transform="translate(179.535,78.9326)">
      <path
         id="path38"
         d="m 4.046,0 c 0,0 0.931,0 0.931,0 0,0 -0.99,4.7774 -0.99,4.7774 0,0 -0.528,0 -0.528,0 0,0 0.815,-3.9366 0.815,-3.9366 0.041,-0.2041 0.094,-0.4013 0.124,-0.6045 0,0 -0.012,0 -0.012,0 -0.115,0.2803 -0.196,0.4581 -0.28,0.6426 0,0 -1.807,3.8985 -1.807,3.8985 0,0 -0.63,0 -0.63,0 0,0 -0.183,-3.9561 -0.183,-3.9561 -0.01,-0.166 -0.014,-0.3252 -0.017,-0.585 0,0 -0.013,0 -0.013,0 -0.042,0.2032 -0.073,0.4131 -0.116,0.6182 0,0 -0.812,3.9229 -0.812,3.9229 0,0 -0.528,0 -0.528,0 C 0,4.7774 0.988,0 0.988,0 c 0,0 0.937,0 0.937,0 0,0 0.164,3.7276 0.164,3.7276 0.01,0.2031 -0.005,0.4003 -0.045,0.707 0,0 0.014,0 0.014,0 C 2.141,4.1924 2.221,3.9561 2.326,3.7207 Z" />
    </g>
    <g
       id="g40"
       style="fill:#00812e;fill-rule:evenodd;stroke:none;stroke-width:1;stroke-linecap:butt;stroke-linejoin:miter;stroke-dasharray:none"
       transform="translate(66.9893,54.3311)">
      <path
         id="path42"
         d="M 74.2937,31.7363 C 75.0797,13.6093 53.2217,0 32.8212,4.2324 12.4316,8.4619 2.5761,26.2148 0,31.6992 c 0,0 3.3349,0 3.3349,0 4.4639,-7.5078 8.9834,-13.336 16.6865,-15.5069 4.8936,-1.3798 8.7383,-1.0634 18.2023,4.2168 4.359,2.4327 14.224,9.7461 24.822,11.2071 4.604,0.6357 11.248,0.1201 11.248,0.1201 z" />
    </g>
  </g>
</svg>
