<?xml version="1.0" encoding="UTF-8" standalone="no"?>
<svg
   version="1.1"
   id="Layer_1"
   x="0"
   y="0"
   viewBox="0 0 511.99999 128"
   xml:space="preserve"
   sodipodi:docname="cognizant.svg"
   width="512"
   height="128"
   inkscape:version="1.4.2 (f4327f4, 2025-05-13)"
   xmlns:inkscape="http://www.inkscape.org/namespaces/inkscape"
   xmlns:sodipodi="http://sodipodi.sourceforge.net/DTD/sodipodi-0.dtd"
   xmlns:xlink="http://www.w3.org/1999/xlink"
   xmlns="http://www.w3.org/2000/svg"
   xmlns:svg="http://www.w3.org/2000/svg"><sodipodi:namedview
     id="namedview12"
     pagecolor="#ffffff"
     bordercolor="#000000"
     borderopacity="0.25"
     inkscape:showpageshadow="2"
     inkscape:pageopacity="0.0"
     inkscape:pagecheckerboard="0"
     inkscape:deskcolor="#d1d1d1"
     inkscape:zoom="1.8063466"
     inkscape:cx="197.35969"
     inkscape:cy="124.28401"
     inkscape:window-width="1920"
     inkscape:window-height="1057"
     inkscape:window-x="1912"
     inkscape:window-y="-8"
     inkscape:window-maximized="1"
     inkscape:current-layer="Layer_1" /><style
     id="style1">.st2{fill:#000048}</style><defs
     id="defs1"><path
       id="SVGID_1_"
       d="M 59.2,2.7 H 245.9 V 43.5 H 59.2 Z" /></defs><clipPath
     id="SVGID_00000127012036145008233160000001695259364950843821_"><use
       xlink:href="#SVGID_1_"
       overflow="visible"
       id="use1" /></clipPath><g
     clip-path="url(#SVGID_00000127012036145008233160000001695259364950843821_)"
     id="g3"
     transform="matrix(1.4545443,0,0,1.4545455,78.25,32)"><defs
       id="defs2"><path
         id="SVGID_00000170270455349886588150000003192033147480456075_"
         d="M 59.2,2.7 H 245.9 V 43.5 H 59.2 Z" /></defs><clipPath
       id="SVGID_00000034067840273054451910000013916040066528049284_"><use
         xlink:href="#SVGID_00000170270455349886588150000003192033147480456075_"
         overflow="visible"
         id="use2" /></clipPath><g
       clip-path="url(#SVGID_00000034067840273054451910000013916040066528049284_)"
       id="g2"><path
         class="st2"
         d="m 158.7,10.7 h 3.7 v 22.1 h -3.7 z m -13.5,-0.5 c -2.4,0 -4.6,0.8 -6.4,2.3 v -1.8 h -3.7 v 22.1 h 3.7 V 20.3 c 0,-3.6 2.9,-6.4 6.4,-6.4 3.5,0 6.4,2.9 6.4,6.4 v 12.5 h 3.7 V 20.3 c 0,-5.6 -4.5,-10.1 -10.1,-10.1 m -17.5,0.4 h 3.7 v 21.3 c -0.1,6.3 -5.2,11.4 -11.5,11.5 -5,0.1 -9.6,-3.2 -11,-8 h 4 c 1.3,2.7 4,4.4 7,4.3 4.3,-0.1 7.7,-3.6 7.9,-7.9 V 30 c -4.7,4.3 -12,4.1 -16.3,-0.6 -4.3,-4.7 -4.1,-12 0.6,-16.3 4.4,-4.1 11.3,-4.1 15.7,0 z m 0,11.1 c 0,-4.3 -3.5,-7.9 -7.8,-7.9 -4.3,0 -7.9,3.5 -7.9,7.8 0,4.3 3.5,7.9 7.9,7.9 4.3,0 7.8,-3.5 7.8,-7.8 m -57,-7.9 c 3,0 5.8,1.8 7.1,4.5 h 3.9 c -1.8,-6.1 -8.3,-9.6 -14.4,-7.7 -6.1,1.8 -9.6,8.3 -7.7,14.4 1.9,6.1 8.3,9.6 14.4,7.7 3.7,-1.1 6.6,-4 7.7,-7.7 H 77.8 C 76,28.9 71.3,30.6 67.4,28.8 63.5,27 61.8,22.3 63.6,18.4 c 1.3,-2.8 4,-4.6 7.1,-4.6 m 35.9,7.9 c 0,6.4 -5.2,11.5 -11.5,11.5 -6.4,0 -11.5,-5.2 -11.5,-11.5 0,-6.3 5,-11.5 11.4,-11.5 6.4,0 11.6,5.1 11.6,11.5 m -3.7,0 c 0,-4.3 -3.5,-7.9 -7.8,-7.9 -4.3,0 -7.9,3.5 -7.9,7.8 0,4.3 3.5,7.9 7.8,7.9 4.4,0 7.9,-3.5 7.9,-7.8 M 223.4,10.2 c -2.4,0 -4.6,0.8 -6.4,2.3 v -1.8 h -3.7 V 32.8 H 217 V 20.3 c 0,-3.6 2.9,-6.5 6.4,-6.5 3.6,0 6.5,2.9 6.5,6.4 v 12.5 h 3.7 V 20.3 C 233.5,14.7 229,10.2 223.4,10.2 m -17.5,0.5 h 3.7 v 22.1 h -3.7 v -2.6 c -4.7,4.3 -12,4.1 -16.3,-0.6 -4.3,-4.7 -4.1,-12 0.6,-16.3 2.1,-2 4.9,-3.1 7.8,-3.1 2.9,0 5.7,1.1 7.9,3.1 z m 0,11 c 0,-4.3 -3.5,-7.8 -7.9,-7.8 -4.3,0 -7.8,3.5 -7.8,7.9 0,4.3 3.5,7.8 7.8,7.8 4.4,-0.1 7.9,-3.6 7.9,-7.9 m 39.9,-7.4 v -3.7 h -5.5 v -6 h -3.7 v 20.8 c 0,4.1 3.3,7.4 7.4,7.4 h 1.8 V 29.1 H 244 c -2,0 -3.7,-1.7 -3.7,-3.7 V 14.3 Z M 160.5,2.7 c -1.4,0 -2.4,1.1 -2.4,2.4 0,1.4 1.1,2.4 2.4,2.4 1.4,0 2.4,-1.1 2.4,-2.4 0.1,-1.3 -1,-2.4 -2.4,-2.4 0.1,0 0.1,0 0,0 m 24,8 h -18.4 v 3.7 h 13.6 l -13.6,14.7 v 3.7 h 18.4 v -3.7 h -13.7 l 13.6,-14.7 z"
         id="path2" /></g></g><defs
     id="defs3"><path
       id="SVGID_00000085213138245146219190000008599264730915323836_"
       d="M 0,0 H 52.1 V 44 H 0 Z" /></defs><clipPath
     id="SVGID_00000023275576737302775000000017739223560985338244_"><use
       xlink:href="#SVGID_00000085213138245146219190000008599264730915323836_"
       overflow="visible"
       id="use3" /></clipPath><g
     clip-path="url(#SVGID_00000023275576737302775000000017739223560985338244_)"
     id="g12"
     transform="matrix(1.4545443,0,0,1.4545455,78.25,32)"><defs
       id="defs4"><path
         id="SVGID_00000050660665550895142240000014880732468509939883_"
         d="M 0,22 15.3,44 31.1,34.5 22.2,22 Z" /></defs><clipPath
       id="SVGID_00000135667248469030152890000000337272502332585655_"><use
         xlink:href="#SVGID_00000050660665550895142240000014880732468509939883_"
         overflow="visible"
         id="use4" /></clipPath><g
       clip-path="url(#SVGID_00000135667248469030152890000000337272502332585655_)"
       id="g5"><linearGradient
         id="SVGID_00000182500455220199611780000011285939690309641648_"
         gradientUnits="userSpaceOnUse"
         x1="-391.039"
         y1="277.815"
         x2="-390.039"
         y2="277.815"
         gradientTransform="matrix(31.1065,0,0,-21.9795,12163.862,6139.21)"><stop
           offset="0"
           stop-color="#3d54ce"
           id="stop4" /><stop
           offset="1"
           stop-color="#35cacf"
           id="stop5" /></linearGradient><path
         fill="url(#SVGID_00000182500455220199611780000011285939690309641648_)"
         d="M 0,22 H 31.1 V 44 H 0 Z"
         id="path5"
         style="fill:url(#SVGID_00000182500455220199611780000011285939690309641648_)" /></g><defs
       id="defs5"><path
         id="SVGID_00000114070949333990582630000017270483092055787688_"
         d="m 15.3,44 h 21.8 l 15,-22 z" /></defs><clipPath
       id="SVGID_00000092426726985261628360000008018755475207643524_"><use
         xlink:href="#SVGID_00000114070949333990582630000017270483092055787688_"
         overflow="visible"
         id="use5" /></clipPath><g
       clip-path="url(#SVGID_00000092426726985261628360000008018755475207643524_)"
       id="g7"><linearGradient
         id="SVGID_00000029744234580894563620000004719264263002787256_"
         gradientUnits="userSpaceOnUse"
         x1="-393.06201"
         y1="277.815"
         x2="-392.06201"
         y2="277.815"
         gradientTransform="matrix(36.8476,0,0,-21.9795,14498.684,6139.21)"><stop
           offset="0"
           stop-color="#13457d"
           id="stop6" /><stop
           offset="1"
           stop-color="#279698"
           id="stop7" /></linearGradient><path
         fill="url(#SVGID_00000029744234580894563620000004719264263002787256_)"
         d="M 15.3,22 H 52.1 V 44 H 15.3 Z"
         id="path7"
         style="fill:url(#SVGID_00000029744234580894563620000004719264263002787256_)" /></g><defs
       id="defs7"><path
         id="SVGID_00000124156495544010432790000012960116144518489730_"
         d="M 15.3,0 0,22 H 22.2 L 31.1,9.5 Z" /></defs><clipPath
       id="SVGID_00000029046943914045948290000010502153975593422010_"><use
         xlink:href="#SVGID_00000124156495544010432790000012960116144518489730_"
         overflow="visible"
         id="use7" /></clipPath><g
       clip-path="url(#SVGID_00000029046943914045948290000010502153975593422010_)"
       id="g9"><linearGradient
         id="SVGID_00000031913817338843176650000007177461719868006072_"
         gradientUnits="userSpaceOnUse"
         x1="-391.04901"
         y1="277.815"
         x2="-390.04901"
         y2="277.815"
         gradientTransform="matrix(31.1316,0,0,-21.9796,12173.976,6117.246)"><stop
           offset="0"
           stop-color="#090086"
           id="stop8" /><stop
           offset="1"
           stop-color="#2f96a9"
           id="stop9" /></linearGradient><path
         fill="url(#SVGID_00000031913817338843176650000007177461719868006072_)"
         d="M 0,0 H 31.1 V 22 H 0 Z"
         id="path9"
         style="fill:url(#SVGID_00000031913817338843176650000007177461719868006072_)" /></g><defs
       id="defs9"><path
         id="SVGID_00000147909067435365521700000017294411540867699616_"
         d="M 15.3,0 52.1,22 37.1,0 Z" /></defs><clipPath
       id="SVGID_00000078011445600416747300000013195656224370321068_"><use
         xlink:href="#SVGID_00000147909067435365521700000017294411540867699616_"
         overflow="visible"
         id="use9" /></clipPath><g
       clip-path="url(#SVGID_00000078011445600416747300000013195656224370321068_)"
       id="g11"><linearGradient
         id="SVGID_00000128475501832932076910000005979470219009375159_"
         gradientUnits="userSpaceOnUse"
         x1="-393.06201"
         y1="277.815"
         x2="-392.06201"
         y2="277.815"
         gradientTransform="matrix(36.8476,0,0,-21.9796,14498.684,6117.246)"><stop
           offset="0"
           stop-color="#3b62ca"
           id="stop10" /><stop
           offset="1"
           stop-color="#93dfe3"
           id="stop11" /></linearGradient><path
         fill="url(#SVGID_00000128475501832932076910000005979470219009375159_)"
         d="M 15.3,0 H 52.1 V 22 H 15.3 Z"
         id="path11"
         style="fill:url(#SVGID_00000128475501832932076910000005979470219009375159_)" /></g></g></svg>
