<?xml version="1.0" encoding="UTF-8" standalone="no"?>
<svg
   version="1.1"
   id="Layer_1"
   x="0px"
   y="0px"
   width="512"
   height="128"
   viewBox="0 0 511.99998 128"
   enable-background="new 0 0 187.475 36.993"
   xml:space="preserve"
   sodipodi:docname="Equifax_Logo.svg"
   inkscape:version="1.4.2 (f4327f4, 2025-05-13)"
   xmlns:inkscape="http://www.inkscape.org/namespaces/inkscape"
   xmlns:sodipodi="http://sodipodi.sourceforge.net/DTD/sodipodi-0.dtd"
   xmlns="http://www.w3.org/2000/svg"
   xmlns:svg="http://www.w3.org/2000/svg"><defs
   id="defs4" /><sodipodi:namedview
   id="namedview4"
   pagecolor="#ffffff"
   bordercolor="#000000"
   borderopacity="0.25"
   inkscape:showpageshadow="2"
   inkscape:pageopacity="0.0"
   inkscape:pagecheckerboard="0"
   inkscape:deskcolor="#d1d1d1"
   inkscape:zoom="1.1841579"
   inkscape:cx="-39.268413"
   inkscape:cy="62.069428"
   inkscape:window-width="1920"
   inkscape:window-height="1057"
   inkscape:window-x="1912"
   inkscape:window-y="-8"
   inkscape:window-maximized="1"
   inkscape:current-layer="Layer_1" />
<polygon
   fill-rule="evenodd"
   clip-rule="evenodd"
   fill="#b32541"
   stroke="#b32541"
   stroke-width="0.6211"
   stroke-miterlimit="2.6131"
   points="0.388,27.948 25.676,27.948 26.96,22.083 12.934,22.083 14.218,16.117 26.071,16.117 27.355,10.55 15.501,10.55 16.489,5.877 29.825,5.877 31.01,0.311 6.414,0.311 3.154,15.62 "
   id="polygon1"
   transform="matrix(1.7247197,0,0,1.7247183,94.49991,31.999224)" />
<path
   fill-rule="evenodd"
   clip-rule="evenodd"
   fill="#b32541"
   d="m 181.54478,59.796508 h 14.82224 c 0.52431,-3.099319 1.49877,-7.723289 1.70402,-11.488348 0.23629,-4.406655 -1.49188,-7.650851 -5.28108,-9.773979 -5.42942,-3.028605 -13.42867,-2.866481 -19.42207,-3.085521 -8.21657,-0.300101 -17.994,0.765775 -23.16989,8.057884 -2.66986,3.761611 -4.17209,9.589433 -4.76195,14.146139 -0.72955,5.560492 -3.51842,14.891217 1.52466,19.45827 3.74954,3.40287 12.13857,4.534284 17.01608,4.467021 4.96719,-0.07071 9.78951,-0.396686 14.67219,-1.378049 L 191.4257,95.8 h 19.93259 z m -2.21454,0.343219 c -1.62986,7.392141 -3.84957,13.611475 -12.43695,13.544212 -8.62187,-0.06381 -5.76056,-9.33935 -4.9396,-14.742891 1.16074,-7.678446 4.11001,-15.731155 12.94747,-15.089561 8.94612,0.651944 5.78816,10.141343 4.42908,16.28824 z"
   id="path1"
   style="stroke-width:1.72472" />
<polygon
   fill-rule="evenodd"
   clip-rule="evenodd"
   fill="#b32541"
   points="91.265,27.948 101.34,27.948 106.773,3.392 96.599,3.392 93.932,15.62 "
   id="polygon2"
   transform="matrix(1.7247197,0,0,1.7247183,94.49991,31.999224)" />
<polygon
   fill-rule="evenodd"
   clip-rule="evenodd"
   fill="#b32541"
   points="127.714,17.409 128.109,15.62 128.702,12.836 118.824,12.836 119.812,8.263 131.468,8.263 132.653,3.392 110.625,3.392 105.291,27.948 115.466,27.948 117.737,17.409 "
   id="polygon3"
   transform="matrix(1.7247197,0,0,1.7247183,94.49991,31.999224)" />
<path
   fill-rule="evenodd"
   clip-rule="evenodd"
   fill="#b32541"
   d="m 205.22519,37.849468 h 17.71804 l -6.64362,30.006647 c -0.81235,3.668476 2.6095,5.581188 5.54324,5.834723 3.77369,0.329421 7.15932,-2.042066 8.0855,-6.005469 l 6.9851,-29.834176 h 17.54731 l -6.98511,31.721016 c -2.99068,8.270025 -9.91888,11.51767 -17.56801,12.328287 -4.74297,0.505342 -9.76362,0.07761 -14.29102,-0.670915 L 199.9441,62.368062 Z"
   id="path3"
   style="stroke-width:1.72472" />
<path
   fill-rule="evenodd"
   clip-rule="evenodd"
   fill="#b32541"
   d="m 360.59827,37.849468 h 22.31788 l 6.81437,10.974381 11.0727,-10.974381 H 417.84 l -22.31615,19.716978 14.65148,22.635203 h -21.80734 l -7.15586,-12.861225 -12.26449,12.861225 h -26.06568 l -1.02276,-9.260013 h -18.05954 l -6.30214,9.260013 h -12.26619 l 29.64275,-42.352181 h 21.29511 l 4.08931,34.290847 14.13925,-13.030245 z m -31.00527,24.004629 9.53941,-14.403123 1.70402,14.403123 z"
   id="path4"
   style="stroke-width:1.72472" />
</svg>
