<svg width="380" height="340" viewBox="0 0 380 340" fill="none" xmlns="http://www.w3.org/2000/svg">
<path d="M79 79.25H78.25V80V261V261.75H79H301H301.75V261V80V79.25H301H79Z" stroke="#E0E0EB" stroke-width="1.5"/>
<path d="M0.75 0.75H378.918V339.25H0.75V0.75Z" stroke="#E0E0EB" stroke-width="1.5"/>
<g clip-path="url(#clip0_540_4935)">
<path d="M218.572 158.599V186.522C218.572 187.999 217.373 189.2 215.9 189.2H142.692C141.218 189.2 140.02 187.999 140.02 186.522V113.139C140.02 111.662 141.218 110.461 142.692 110.461H170.538V155.929C170.538 157.406 171.737 158.607 173.21 158.607H218.58L218.572 158.599Z" fill="#4C00FF"/>
<path d="M249.108 119.232C249.108 142.733 235.447 158.559 218.573 158.61V129.026C218.573 128.175 218.232 127.358 217.632 126.757L202.323 111.415C201.724 110.814 200.908 110.472 200.059 110.472H170.539V82.5569C170.539 81.0803 171.738 79.8789 173.211 79.8789H214.519C234.082 79.8789 249.108 95.6884 249.108 119.232Z" fill="#FF5252"/>
<path d="M217.637 126.754C218.236 127.355 218.577 128.173 218.577 129.024V158.607H173.207C171.734 158.607 170.535 157.406 170.535 155.929V110.461H200.055C200.904 110.461 201.72 110.803 202.319 111.404L217.637 126.754Z" fill="black"/>
</g>
<path d="M301.098 230.148V248.999H294.198V231.402C294.198 227.11 292.354 224.721 288.778 224.721C285.203 224.721 282.825 227.227 282.168 231.458C281.988 232.471 281.931 234.018 281.931 237.304V248.996H275.031V219.052H281.147C281.161 219.321 281.309 221.998 281.32 222.157C281.331 222.373 281.582 222.483 281.751 222.348C284.295 220.33 287.086 218.457 290.979 218.457C297.342 218.457 301.098 222.812 301.098 230.148Z" fill="black"/>
<path d="M263.869 219.063L263.643 222.48C263.629 222.7 263.368 222.809 263.205 222.664C262.375 221.864 259.276 218.465 254.044 218.465C246.543 218.465 241.011 224.962 241.007 233.782H241C241 242.726 246.476 249.23 254.04 249.23C259.082 249.23 262.177 245.955 262.742 245.222C262.905 245.024 263.219 245.14 263.212 245.395C263.149 246.309 263.011 248.593 262.258 250.533C261.308 252.987 259.153 255.26 254.814 255.26C251.246 255.26 248.094 253.889 245.112 250.968L241.544 255.922C244.816 259.625 249.992 261.714 255.591 261.714C264.636 261.714 270.056 255.508 270.056 245.367V219.063H263.869ZM255.538 242.977C251.076 242.977 247.918 239.104 247.918 233.793C247.918 228.481 251.076 224.721 255.538 224.721C260.001 224.721 263.156 228.478 263.156 233.793C263.156 239.107 259.997 242.977 255.538 242.977Z" fill="black"/>
<path d="M226.597 240.116C226.597 245.788 221.831 249.605 214.867 249.605C209.391 249.605 204.522 247.463 201.593 244.425L201.6 244.418H201.59L203.862 238.997C206.056 240.984 209.599 243.827 214.637 243.827C218.153 243.827 220.174 242.276 220.174 240.304C220.174 238.034 217.372 237.436 214.04 236.777C209.278 235.768 202.971 234.154 202.971 227.649C202.971 222.218 207.377 218.465 213.864 218.465C218.859 218.465 223.152 220.373 226.12 222.88L222.721 227.653C219.863 225.387 216.831 224.25 213.85 224.25C210.868 224.25 209.391 225.507 209.391 227.295C209.391 229.802 212.609 230.461 214.991 230.935C220.944 232.125 226.597 233.92 226.597 240.116Z" fill="black"/>
<path d="M125.574 218.457C117.126 218.457 111.057 225.025 111.057 234.029C111.057 243.033 117.123 249.601 125.574 249.601C134.025 249.601 140.098 243.044 140.098 234.029C140.098 225.014 134.021 218.457 125.574 218.457ZM125.574 243.337C121.115 243.337 117.957 239.521 117.957 234.029C117.957 228.537 121.052 224.721 125.574 224.721C130.096 224.721 133.191 228.541 133.191 234.029C133.191 239.517 130.036 243.337 125.574 243.337Z" fill="black"/>
<path d="M142.529 234.029C142.529 225.138 148.599 218.457 156.7 218.457C163.13 218.457 167.833 221.683 170.031 227.766L163.901 230.092C162.237 226.335 160.032 224.724 156.697 224.724C152.531 224.724 149.436 228.661 149.436 234.033C149.436 239.404 152.528 243.341 156.697 243.341C160.032 243.341 162.23 241.726 163.901 237.973L170.031 240.3C167.833 246.382 163.13 249.608 156.7 249.608C148.61 249.608 142.529 242.927 142.529 234.036V234.018V234.025V234.029Z" fill="black"/>
<path d="M105.607 205.152C105.479 205.152 105.352 205.184 105.236 205.244L100.724 207.627C100.636 207.673 100.583 207.765 100.583 207.865V222.13C100.583 222.367 100.307 222.477 100.13 222.318C99.4697 221.733 97.9116 220.278 95.7459 219.28C94.6259 218.763 92.9654 218.458 91.4744 218.458C83.9173 218.458 78.4375 225.026 78.4375 234.03C78.4375 243.034 83.9137 249.592 91.4744 249.592C95.4527 249.592 98.4239 247.506 100.24 245.647C100.364 245.52 100.431 245.449 100.54 245.329C100.699 245.159 100.985 245.258 101 245.491L101.236 248.993H107.486V205.333C107.486 205.234 107.405 205.152 107.306 205.152H105.607ZM92.9654 243.335C88.4431 243.335 85.3481 239.518 85.3481 234.027C85.3481 228.535 88.5067 224.718 92.9654 224.718C97.4241 224.718 100.583 228.539 100.583 234.027C100.583 239.515 97.4912 243.335 92.9654 243.335Z" fill="black"/>
<path d="M234.73 219.151L230.391 221.445C230.303 221.491 230.25 221.583 230.25 221.682V248.995H237.154V219.239C237.154 219.14 237.072 219.059 236.973 219.059H235.101C234.97 219.059 234.846 219.09 234.73 219.151Z" fill="black"/>
<path d="M233.703 214.201C236.003 214.201 237.865 212.335 237.865 210.03C237.865 207.725 236.003 205.859 233.703 205.859C231.403 205.859 229.541 207.725 229.541 210.03C229.541 212.335 231.403 214.201 233.703 214.201Z" fill="black"/>
<path d="M199.091 219.051V235.317C199.091 247.645 192.198 249.6 186.05 249.6C179.903 249.6 173.01 247.645 173.01 235.317V219.051H179.903V237.047C179.903 238.807 180.344 243.34 186.05 243.34C191.756 243.34 192.198 238.807 192.198 237.047V219.051H199.091Z" fill="black"/>
<path d="M301.75 261.75H378.85V339.25H301.75V261.75Z" stroke="#E0E0EB" stroke-width="1.5"/>
<path d="M0.75 261.75H78.25V339.25H0.75V261.75Z" stroke="#E0E0EB" stroke-width="1.5"/>
<rect x="150.75" y="0.75" width="77.5" height="78.5" stroke="#E0E0EB" stroke-width="1.5"/>
<path d="M190.618 40.5334L195.15 46.6328H193.019L189.516 41.6847L185.989 46.6328H183.858L188.389 40.5334L183.98 34.63H186.111L189.516 39.3576L192.896 34.63H195.027L190.618 40.5334Z" fill="#AEABBB"/>
<path d="M340.079 300.901L344.611 307H342.48L338.977 302.052L335.45 307H333.318L337.85 300.901L333.441 294.997H335.572L338.977 299.725L342.357 294.997H344.488L340.079 300.901Z" fill="#AEABBB"/>
<path d="M39.0792 301.901L43.6109 308H41.4798L37.9769 303.052L34.4496 308H32.3184L36.8501 301.901L32.4409 295.997H34.572L37.9769 300.725L41.3573 295.997H43.4884L39.0792 301.901Z" fill="#AEABBB"/>
<defs>
<clipPath id="clip0_540_4935">
<rect width="109.401" height="136.74" fill="white" transform="translate(139.734 79.7344)"/>
</clipPath>
</defs>
</svg>
