<?xml version="1.0" encoding="UTF-8" standalone="no"?>
<svg
   xml:space="preserve"
   height="128"
   viewBox="0 0 127.99818 128.00082"
   width="128"
   version="1.1"
   id="svg3"
   sodipodi:docname="Centers_for_Medicare_and_Medicaid_Services_logo2.svg"
   inkscape:version="1.4.2 (f4327f4, 2025-05-13)"
   xmlns:inkscape="http://www.inkscape.org/namespaces/inkscape"
   xmlns:sodipodi="http://sodipodi.sourceforge.net/DTD/sodipodi-0.dtd"
   xmlns="http://www.w3.org/2000/svg"
   xmlns:svg="http://www.w3.org/2000/svg"><defs
     id="defs3" /><sodipodi:namedview
     id="namedview3"
     pagecolor="#ffffff"
     bordercolor="#000000"
     borderopacity="0.25"
     inkscape:showpageshadow="2"
     inkscape:pageopacity="0.0"
     inkscape:pagecheckerboard="0"
     inkscape:deskcolor="#d1d1d1"
     inkscape:zoom="5.0350125"
     inkscape:cx="96.226176"
     inkscape:cy="61.668169"
     inkscape:window-width="1920"
     inkscape:window-height="1057"
     inkscape:window-x="1912"
     inkscape:window-y="-8"
     inkscape:window-maximized="1"
     inkscape:current-layer="svg3"
     showguides="true" /><g
     transform="matrix(0.22940576,0,0,-0.22940577,7.1169892,220.26264)"
     id="g3"><g
       transform="translate(1.656,0.99359)"
       id="g2"><path
         d="m 135.72,644.7 c -3.986,4.043 -5.897,8.438 -5.688,13.106 1.114,24.583 59.621,49.778 130.42,56.161 10.835,0.978 21.588,1.473 31.96,1.473 19.352,0 37.486,-1.749 52.447,-5.056 l 0.245,1.02 c -15.879,4.139 -35.752,6.327 -57.462,6.327 -10.283,0 -20.943,-0.491 -31.685,-1.46 -70.44,-6.35 -128.66,-31.681 -129.78,-56.467 -0.304,-6.795 3.561,-12.942 11.483,-18.27 l -1.941,3.166 z"
         fill="#edcb04"
         id="path1" /><path
         d="M 222.29,2.1055 C 208.03,2.0483 193.02,2.6848 177.52,4.082 82.178,12.682 3.19,46.877 1.68,80.199 0.93773,96.562 19.008,109.75 48.875,117.92 l -5.5527,-5.8633 c -16.656,-7.84 -26.066,-18.056 -25.531,-29.951 1.508,-33.325 80.5,-67.525 175.85,-76.119 28.7,-2.5873 55.68,-2.5664 79.36,-0.3689 -15.3,-2.2219 -32.39,-3.4421 -50.71,-3.5156 z m -107.38,43.916 c -25.029,0 -45.139,11.47 -45.139,28.932 0,17.375 20.11,29.016 45.139,29.016 11.915,0 22.845,-3.0372 30.824,-7.9297 l -9.9473,-7.084 c -4.3712,2.7 -11.038,5.5664 -19.127,5.5664 -11.585,0 -19.018,-5.9046 -19.018,-19.568 0,-13.834 7.4326,-19.736 19.018,-19.736 8.0888,0 14.756,3.0356 19.127,5.7344 l 9.9473,-7.0859 c -7.9788,-4.8075 -18.909,-7.8438 -30.824,-7.8438 z m 184.96,0.08398 c -19.455,0 -34.867,6.3272 -34.867,19.148 0,10.374 11.259,14.423 26.34,17.713 10.168,2.1938 20.111,3.3709 20.111,8.1797 0,2.6162 -4.1521,4.1348 -12.568,4.1348 -9.5088,0 -20.221,-4.6385 -25.248,-8.6035 l -10.166,6.5781 c 4.5912,4.3012 16.505,10.713 35.414,10.713 22.732,0 36.617,-7.3386 36.617,-18.809 0,-10.544 -11.696,-15.435 -27.326,-18.895 -12.571,-2.7838 -20.441,-3.2062 -20.441,-7.1699 0,-2.53 3.4984,-4.4707 12.461,-4.4707 5.575,0 15.741,2.1934 21.533,6.2422 l 9.83,-6.24 c -8.0875,-5.735 -17.594,-8.5195 -31.695,-8.5195 z m -147.07,1.6875 v 54.404 h 16.791 v -33.992 l 22.021,33.992 h 16.902 l 19.352,-33.992 v 33.992 h 26.021 v -54.404 h -28.691 l -18.793,32.727 -21.02,-32.727 h -32.584 z m -43.34,65.108 c -1.5625,0 -2.9531,0.99859 -2.9531,2.8086 0,2.98 3.9102,2.4543 3.9102,4.4356 0,0.7375 -0.51265,1.3398 -1.5352,1.3398 -1.0638,0 -1.6668,-0.65476 -1.8106,-1.416 h -0.25 c -0.0913,0.59125 -0.20961,1.061 -0.38086,1.666 0.38125,0.28875 1.1683,0.56445 2.1133,0.56445 2.0862,0 3.4766,-1.2068 3.4766,-2.9668 0,-2.9788 -3.9883,-2.4938 -3.9883,-4.4375 0,-0.63 0.56328,-1.1777 1.3633,-1.1777 0.80125,0 1.3148,0.37946 1.5898,1.127 h 0.19726 c 0.17,-0.57875 0.26172,-0.89258 0.41797,-1.2988 -0.49875,-0.39375 -1.2066,-0.64453 -2.1504,-0.64453 z m 189,0 c -1.5612,0 -2.9551,0.99859 -2.9551,2.8086 0,2.98 3.9121,2.4543 3.9121,4.4356 0,0.7375 -0.51196,1.3398 -1.5332,1.3398 -1.065,0 -1.6694,-0.65476 -1.8144,-1.416 h -0.24805 c -0.0913,0.59125 -0.21031,1.061 -0.38281,1.666 0.38125,0.28875 1.169,0.56445 2.1152,0.56445 2.0862,0 3.4785,-1.2068 3.4785,-2.9668 0,-2.9788 -3.9902,-2.4938 -3.9902,-4.4375 0,-0.63 0.56398,-1.1777 1.3652,-1.1777 0.8,0 1.3129,0.37946 1.5879,1.127 h 0.19727 c 0.17,-0.57875 0.26242,-0.89258 0.41992,-1.2988 -0.49875,-0.39375 -1.2086,-0.64453 -2.1524,-0.64453 z m 49.355,0 c -1.5612,0 -2.9531,0.99859 -2.9531,2.8086 0,2.98 3.9102,2.4543 3.9102,4.4356 0,0.7375 -0.51265,1.3398 -1.5352,1.3398 -1.0638,0 -1.6675,-0.65476 -1.8125,-1.416 h -0.24805 c -0.0925,0.59125 -0.20961,1.061 -0.38086,1.666 0.38,0.28875 1.169,0.56445 2.1152,0.56445 2.0862,0 3.4766,-1.2068 3.4766,-2.9668 0,-2.9788 -3.9902,-2.4938 -3.9902,-4.4375 0,-0.63 0.56329,-1.1777 1.3633,-1.1777 0.80125,0 1.3136,0.37946 1.5898,1.127 h 0.19531 c 0.17125,-0.57875 0.26438,-0.89258 0.42188,-1.2988 -0.49875,-0.39375 -1.2086,-0.64453 -2.1524,-0.64453 z m -283.6,0.002 c -2.7562,0 -5.209,1.3912 -5.209,5.0137 0,2.48 1.7968,4.3828 4.8418,4.3828 1.0762,0 1.9827,-0.21062 2.6777,-0.57812 0.03875,-0.36875 0.14406,-0.74649 0.28906,-1.1152 l -0.16992,-0.10547 c -0.565,0.59125 -1.537,0.98437 -2.377,0.98437 -1.51,0 -3.1113,-1.0638 -3.1113,-3.7676 0,-2.7825 1.5904,-4.002 2.9941,-4.002 0.9325,0 1.5996,0.35422 2.2559,1.168 h 0.18359 c 0.04,-0.445 0.13148,-0.90664 0.30274,-1.3379 -0.60375,-0.36875 -1.759,-0.64258 -2.6777,-0.64258 z m 64.021,0 c -3.045,0 -5.041,2.111 -5.041,4.6973 0,3.2812 2.23,4.6992 5,4.6992 2.9262,0 5.0137,-2.1141 5.0137,-4.7129 0,-3.1625 -2.1914,-4.6836 -4.9726,-4.6836 z m 55.59,0 c -2.7562,0 -5.209,1.3912 -5.209,5.0137 0,2.48 1.7968,4.3828 4.8418,4.3828 1.0762,0 1.9834,-0.21062 2.6797,-0.57812 0.0375,-0.36875 0.14461,-0.74649 0.28711,-1.1152 l -0.16992,-0.10547 c -0.565,0.59125 -1.5357,0.98437 -2.377,0.98437 -1.5088,0 -3.1094,-1.0638 -3.1094,-3.7676 0,-2.7825 1.5872,-4.002 2.9922,-4.002 0.93125,0 1.5996,0.35422 2.2559,1.168 h 0.18359 c 0.0387,-0.445 0.13344,-0.90664 0.30469,-1.3379 -0.605,-0.36875 -1.7609,-0.64258 -2.6797,-0.64258 z m 81.373,0 c -2.7575,0 -5.2109,1.3912 -5.2109,5.0137 0,2.48 1.7975,4.3828 4.8438,4.3828 1.075,0 1.9815,-0.21062 2.6777,-0.57812 0.0375,-0.36875 0.14407,-0.74649 0.28907,-1.1152 l -0.17188,-0.10547 c -0.565,0.59125 -1.535,0.98437 -2.375,0.98437 -1.51,0 -3.1113,-1.0638 -3.1113,-3.7676 0,-2.7825 1.5872,-4.002 2.9922,-4.002 0.93125,0 1.6016,0.35422 2.2578,1.168 h 0.1836 c 0.0387,-0.445 0.13148,-0.90664 0.30273,-1.3379 -0.605,-0.36875 -1.759,-0.64258 -2.6777,-0.64258 z m 69.465,0 c -2.7575,0 -5.2109,1.3912 -5.2109,5.0137 0,2.48 1.798,4.3828 4.8418,4.3828 1.0762,0 1.9815,-0.21062 2.6777,-0.57812 0.04,-0.36875 0.14532,-0.74649 0.28907,-1.1152 l -0.16993,-0.10547 c -0.565,0.59125 -1.5357,0.98437 -2.377,0.98437 -1.51,0 -3.1094,-1.0638 -3.1094,-3.7676 0,-2.7825 1.5872,-4.002 2.9922,-4.002 0.93125,0 1.6009,0.35422 2.2559,1.168 h 0.1836 c 0.0413,-0.445 0.13273,-0.90664 0.30273,-1.3379 -0.60375,-0.36875 -1.7583,-0.64258 -2.6758,-0.64258 z m -144.14,0.10352 c -1.1288,2.9925 -3.0977,7.6648 -3.7402,9.1211 0.25,-0.0263 0.445,-0.0644 0.65625,-0.0644 0.20875,0 0.40648,0.0382 0.61523,0.0644 0.25,-0.90625 0.54149,-1.7982 0.89649,-2.6894 0.4575,-0.0138 0.90382,-0.0254 1.3613,-0.0254 0.56625,0 1.1166,0.0116 1.6816,0.0254 0.3275,0.89125 0.62999,1.797 0.90624,2.6894 0.36625,-0.0263 0.74649,-0.0644 1.1152,-0.0644 0.3675,0 0.7343,0.0382 1.1543,0.0644 -0.9975,-2.1388 -2.5327,-6.1286 -3.6465,-9.1211 -0.17125,0.0262 -0.33,0.0664 -0.5,0.0664 -0.17125,0 -0.33,-0.0402 -0.5,-0.0664 z m 81.371,0 c -1.13,2.9925 -3.0958,7.6648 -3.7383,9.1211 0.2475,-0.0263 0.445,-0.0644 0.65625,-0.0644 0.20875,0 0.40454,0.0382 0.61329,0.0644 0.25125,-0.90625 0.54007,-1.7982 0.89257,-2.6894 0.46,-0.0138 0.90774,-0.0254 1.3652,-0.0254 0.56625,0 1.1159,0.0116 1.6797,0.0254 0.32875,0.89125 0.63195,1.797 0.9082,2.6894 0.365,-0.0263 0.74578,-0.0644 1.1133,-0.0644 0.3675,0 0.73625,0.0382 1.1562,0.0644 -0.9975,-2.1388 -2.5334,-6.1286 -3.6484,-9.1211 -0.17125,0.0262 -0.32875,0.0664 -0.5,0.0664 -0.17,0 -0.32804,-0.0402 -0.49804,-0.0664 z m -203.65,0.0664 c 0.07875,1.155 0.10547,2.1655 0.10547,3.6367 v 1.7832 c 0,1.4712 -0.02672,2.481 -0.10547,3.6348 0.28875,-0.025 0.6425,-0.0644 2.7812,-0.0644 1.2088,0 1.8263,0.0532 2.2988,0.0644 -0.02625,-0.15625 -0.05273,-0.2882 -0.05273,-0.56445 0,-0.27625 0.02648,-0.40735 0.05273,-0.58985 -1.0112,0.11875 -2.0221,0.16992 -3.0059,0.16992 -0.02625,-0.52375 -0.03906,-1.0874 -0.03906,-1.6387 0,-0.565 0.01367,-1.1309 0.01367,-1.6797 0.9975,0 1.981,0.0372 2.9785,0.11719 -0.03875,-0.27625 -0.06445,-0.39336 -0.06445,-0.53711 0,-0.1725 0.01195,-0.28929 0.06445,-0.59179 -0.9975,0.0525 -1.836,0.0773 -2.9785,0.10351 0,-0.9575 -5.46e-4,-1.9006 0.06445,-2.8594 0.39375,0 1.9693,0.0912 2.9668,0.15625 -0.02625,-0.19625 -0.05273,-0.31289 -0.05273,-0.58789 0,-0.2375 0.02648,-0.39399 0.05273,-0.55274 -0.35375,0.04 -1.4559,0.0644 -2.7422,0.0644 -0.775,0 -1.5629,-0.0507 -2.3379,-0.0644 z m 6.8398,0 c 0.0125,0.63 0.06445,1.4301 0.06445,2.6113 0,2.6775 -0.19547,6.0646 -0.26172,6.4434 0.1975,-0.0375 0.40727,-0.0644 0.60352,-0.0644 0.1975,0 0.40719,0.0269 0.61719,0.0644 -0.04,-0.485 -0.07812,-1.2184 -0.07812,-3.3184 0,-0.98375 -8.6e-4,-2.0748 0.02539,-3.0586 2.0212,2.1262 3.9388,4.2507 5.7363,6.377 0.1575,-0.0375 0.32797,-0.0644 0.51172,-0.0644 0.18375,0 0.35336,0.0269 0.53711,0.0644 0,-3.49 9.38e-4,-5.2359 0.21094,-9.0547 -0.1975,0.04 -0.3943,0.0644 -0.5918,0.0644 -0.19625,0 -0.39234,-0.0245 -0.58984,-0.0644 0.0925,0.59125 0.0918,4.1593 0.0918,6.248 -1.93,-2.0888 -3.8053,-4.1606 -5.6953,-6.248 -0.1975,0.04 -0.3943,0.0644 -0.5918,0.0644 -0.19625,0 -0.39359,-0.0245 -0.58984,-0.0644 z m 9.2676,0 c 0.03875,0.1975 0.06641,0.37938 0.06641,0.57813 0,0.195 -0.02766,0.37992 -0.06641,0.57617 0.7875,-0.0925 1.8891,-0.16992 2.4004,-0.16992 0.04,0.185 0.04102,0.6575 0.04102,1.1562 v 3.2793 c 0,1.4712 -0.02672,2.481 -0.10547,3.6348 0.28875,-0.025 0.64242,-0.0644 1.0762,-0.0644 0.43375,0 0.78742,0.0395 1.0762,0.0644 -0.07875,-1.1538 -0.10547,-2.1635 -0.10547,-3.6348 v -3.2793 c 0,-0.49875 0.0011,-0.97125 0.02734,-1.1562 0.525,0 1.6272,0.0774 2.3359,0.16992 -0.03875,-0.19625 -0.06641,-0.38117 -0.06641,-0.57617 0,-0.19875 0.02766,-0.38063 0.06641,-0.57813 -1.115,0.0387 -1.7065,0.0644 -3.334,0.0644 -1.6275,0 -2.2171,-0.0257 -3.4121,-0.0644 z m 7.9668,0 c 0.07875,1.155 0.10547,2.1655 0.10547,3.6367 v 1.7832 c 0,1.4712 -0.02672,2.481 -0.10547,3.6348 0.28875,-0.025 0.64445,-0.0644 2.7832,-0.0644 1.2075,0 1.8244,0.0532 2.2969,0.0644 -0.0275,-0.15625 -0.05273,-0.2882 -0.05273,-0.56445 0,-0.27625 0.02523,-0.40735 0.05273,-0.58985 -1.0125,0.11875 -2.0221,0.16992 -3.0059,0.16992 -0.02625,-0.52375 -0.03906,-1.0874 -0.03906,-1.6387 0,-0.565 0.01367,-1.1309 0.01367,-1.6797 0.9975,0 1.981,0.0372 2.9785,0.11719 -0.04,-0.27625 -0.06445,-0.39336 -0.06445,-0.53711 0,-0.1725 0.0132,-0.28929 0.06445,-0.59179 -0.9975,0.0525 -1.8373,0.0773 -2.9785,0.10351 0,-0.9575 -5.47e-4,-1.9006 0.06445,-2.8594 0.39375,0 1.968,0.0912 2.9668,0.15625 -0.0275,-0.19625 -0.05273,-0.31289 -0.05273,-0.58789 0,-0.2375 0.02523,-0.39399 0.05273,-0.55274 -0.355,0.04 -1.4559,0.0644 -2.7422,0.0644 -0.775,0 -1.5629,-0.0507 -2.3379,-0.0644 z m 6.6836,0 c 0.0775,1.155 0.10352,2.1655 0.10352,3.6367 v 1.7832 c 0,1.4712 -0.02602,2.481 -0.10352,3.6348 0.2875,-0.025 0.64172,-0.0644 1.0742,-0.0644 0.43375,0 0.78867,0.0395 1.0762,0.0644 -0.0787,-1.1538 -0.10546,-2.1635 -0.10546,-3.6348 v -0.53711 h 0.11914 l 2.3496,4.1719 c 0.39375,-0.025 0.79961,-0.0644 1.1934,-0.0644 0.39375,0 0.7879,0.0395 1.1816,0.0644 -0.95875,-1.4825 -1.9549,-2.9784 -2.7949,-4.4609 1.3,-0.32875 2.0332,-1.1423 2.0332,-2.416 0,-0.77375 -0.32852,-1.3512 -0.85352,-1.7324 -0.45875,-0.3275 -0.94328,-0.44531 -2.2695,-0.44531 -0.8925,0 -1.4559,0.0644 -1.9297,0.0644 -0.4325,0 -0.78672,-0.0382 -1.0742,-0.0644 z m 18.113,0 c 0.0787,1.155 0.10546,2.1655 0.10546,3.6367 v 1.7832 c 0,1.4712 -0.0267,2.481 -0.10546,3.6348 0.28874,-0.025 0.64367,-0.0644 1.0762,-0.0644 0.4325,0 0.78742,0.0395 1.0762,0.0644 -0.0787,-1.1538 -0.10352,-2.1635 -0.10352,-3.6348 v -0.66797 c 0.9975,0 1.981,0.0372 2.9785,0.11719 -0.04,-0.27625 -0.0664,-0.39336 -0.0664,-0.53711 0,-0.1725 0.0152,-0.28929 0.0664,-0.59179 -0.9975,0.0525 -1.836,0.0773 -2.9785,0.10351 0,-0.9575 -5.4e-4,-1.9006 0.0645,-2.8594 0.39375,0 1.968,0.0912 2.9668,0.15625 -0.0275,-0.19625 -0.0527,-0.31289 -0.0527,-0.58789 0,-0.2375 0.0252,-0.39399 0.0527,-0.55274 -0.355,0.04 -1.4579,0.0644 -2.7441,0.0644 -0.775,0 -1.5609,-0.0507 -2.3359,-0.0644 z m 17.617,0 c 0.0787,1.155 0.10547,2.1655 0.10547,3.6367 v 1.7832 c 0,1.4712 -0.0267,2.481 -0.10547,3.6348 0.28875,-0.025 0.64367,-0.0644 1.0762,-0.0644 0.4325,0 0.78672,0.0395 1.0742,0.0644 -0.0775,-1.1538 -0.10351,-2.1635 -0.10351,-3.6348 v -0.53711 h 0.11718 l 2.3516,4.1719 c 0.39375,-0.025 0.79961,-0.0644 1.1934,-0.0644 0.39375,0 0.78789,0.0395 1.1816,0.0644 -0.9575,-1.4825 -1.9581,-2.9784 -2.7969,-4.4609 1.2988,-0.32875 2.0352,-1.1423 2.0352,-2.416 0,-0.77375 -0.32852,-1.3512 -0.85352,-1.7324 -0.46,-0.3275 -0.94648,-0.44531 -2.2715,-0.44531 -0.8925,0 -1.4565,0.0644 -1.9277,0.0644 -0.4325,0 -0.78742,-0.0382 -1.0762,-0.0644 z m 12.418,0 c -0.36875,3.0188 -0.80156,6.0384 -1.3516,9.0547 0.21,-0.0375 0.40523,-0.0644 0.61523,-0.0644 0.1975,0 0.40719,0.0269 0.61719,0.0644 0.13125,-1.9812 0.24914,-3.9758 0.52539,-5.957 h 0.0273 c 0.98375,1.9812 1.9276,3.9758 2.8613,5.957 0.0788,-0.0125 0.17,-0.0254 0.25,-0.0254 0.0775,0 0.16805,0.0129 0.24805,0.0254 0.945,-2.0338 1.9166,-4.0541 2.9004,-6.0879 h 0.0273 c 0.20875,2.0338 0.4329,4.2641 0.52539,6.0879 0.36501,-0.0375 0.73094,-0.0644 1.0859,-0.0644 0.355,0 0.71,0.0269 1.0625,0.0644 -0.3275,-1.8512 -0.7857,-6.0359 -1.127,-9.0547 -0.18375,0.0387 -0.36773,0.0644 -0.55273,0.0644 -0.18251,0 -0.38,-0.0257 -0.5625,-0.0644 -0.94626,2.0862 -2.0224,4.3177 -3.0586,6.2715 -0.95875,-1.8488 -2.0725,-4.1852 -3.0312,-6.2715 -0.17125,0.0387 -0.35539,0.0644 -0.52539,0.0644 -0.18375,0 -0.35461,-0.0257 -0.53711,-0.0644 z m 10.803,0 c 0.08,1.155 0.10546,2.1655 0.10546,3.6367 v 1.7832 c 0,1.4712 -0.0255,2.481 -0.10546,3.6348 0.28875,-0.025 0.6425,-0.0644 2.7812,-0.0644 1.2075,0 1.8251,0.0532 2.2988,0.0644 -0.0263,-0.15625 -0.0527,-0.2882 -0.0527,-0.56445 0,-0.27625 0.0265,-0.40735 0.0527,-0.58985 -1.0112,0.11875 -2.0228,0.16992 -3.0078,0.16992 -0.0263,-0.52375 -0.0371,-1.0874 -0.0371,-1.6387 0,-0.565 0.0117,-1.1309 0.0117,-1.6797 0.9975,0 1.983,0.0372 2.9805,0.11719 -0.04,-0.27625 -0.0664,-0.39336 -0.0664,-0.53711 0,-0.1725 0.0139,-0.28929 0.0664,-0.59179 -0.9975,0.0525 -1.838,0.0773 -2.9805,0.10351 0,-0.9575 1.6e-4,-1.9006 0.0664,-2.8594 0.39375,0 1.9693,0.0912 2.9668,0.15625 -0.0263,-0.19625 -0.0527,-0.31289 -0.0527,-0.58789 0,-0.2375 0.0265,-0.39399 0.0527,-0.55274 -0.355,0.04 -1.4566,0.0644 -2.7441,0.0644 -0.77375,0 -1.5609,-0.0507 -2.3359,-0.0644 z m 6.6816,0 c 0.0788,1.1562 0.10547,2.1635 0.10547,3.6348 v 1.7852 c 0,1.47 -0.0267,2.481 -0.10547,3.6348 0.28875,-0.0263 0.64437,-0.0644 1.0781,-0.0644 0.68125,0 1.5723,0.0644 2.8848,0.0644 2.4662,0 4.541,-1.9035 4.541,-4.791 0,-3.3062 -2.059,-4.2637 -5.0527,-4.2637 -1.155,0 -1.7968,0.0664 -2.373,0.0664 -0.43375,0 -0.78937,-0.0402 -1.0781,-0.0664 z m 10.264,0 c 0.08,1.155 0.10547,2.1655 0.10547,3.6367 v 1.7832 c 0,1.4712 -0.0255,2.481 -0.10547,3.6348 0.28875,-0.025 0.64312,-0.0644 1.0781,-0.0644 0.4325,0 0.78547,0.0395 1.0742,0.0644 -0.0762,-1.1538 -0.10351,-2.1635 -0.10351,-3.6348 v -1.7832 c 0,-1.4712 0.0273,-2.4817 0.10351,-3.6367 -0.28875,0.0262 -0.64172,0.0644 -1.0742,0.0644 -0.435,0 -0.78937,-0.0382 -1.0781,-0.0644 z m 21.516,0 c 0.0775,1.155 0.10547,2.1655 0.10547,3.6367 v 1.7832 c 0,1.4712 -0.028,2.481 -0.10547,3.6348 0.28875,-0.025 0.64243,-0.0644 1.0762,-0.0644 0.43499,0 0.78812,0.0395 1.0781,0.0644 -0.08,-1.1538 -0.10547,-2.1635 -0.10547,-3.6348 v -0.53711 h 0.11719 l 2.3496,4.1719 c 0.3925,-0.025 0.79961,-0.0644 1.1934,-0.0644 0.39375,0 0.78914,0.0395 1.1816,0.0644 -0.9575,-1.4825 -1.9549,-2.9784 -2.7949,-4.4609 1.2988,-0.32875 2.0352,-1.1423 2.0352,-2.416 0,-0.77375 -0.32851,-1.3512 -0.85351,-1.7324 -0.46,-0.3275 -0.94453,-0.44531 -2.2695,-0.44531 -0.89375,0 -1.4591,0.0644 -1.9316,0.0644 -0.43375,0 -0.78743,-0.0382 -1.0762,-0.0644 z m 7.9043,0 c 0.0775,1.155 0.10547,2.1655 0.10547,3.6367 v 1.7832 c 0,1.4712 -0.028,2.481 -0.10547,3.6348 0.2875,-0.025 0.6425,-0.0644 2.7812,-0.0644 1.2062,0 1.8237,0.0532 2.2949,0.0644 -0.025,-0.15625 -0.0508,-0.2882 -0.0508,-0.56445 0,-0.27625 0.0258,-0.40735 0.0508,-0.58985 -1.01,0.11875 -2.0202,0.16992 -3.0039,0.16992 -0.025,-0.52375 -0.0391,-1.0874 -0.0391,-1.6387 0,-0.565 0.0137,-1.1309 0.0137,-1.6797 0.99624,0 1.981,0.0372 2.9785,0.11719 -0.04,-0.27625 -0.0664,-0.39336 -0.0664,-0.53711 0,-0.1725 0.0127,-0.28929 0.0664,-0.59179 -0.9975,0.0525 -1.8373,0.0773 -2.9785,0.10351 0,-0.9575 -5.5e-4,-1.9006 0.0645,-2.8594 0.39375,0 1.9686,0.0912 2.9648,0.15625 -0.025,-0.19625 -0.0508,-0.31289 -0.0508,-0.58789 0,-0.2375 0.0258,-0.39399 0.0508,-0.55274 -0.3525,0.04 -1.4547,0.0644 -2.7422,0.0644 -0.77375,0 -1.5615,-0.0507 -2.334,-0.0644 z m 24.203,0 c -0.36749,3.0188 -0.79906,6.0384 -1.3516,9.0547 0.21,-0.0375 0.40524,-0.0644 0.61524,-0.0644 0.1975,0 0.40593,0.0269 0.61718,0.0644 0.1325,-1.9812 0.25039,-3.9758 0.5254,-5.957 h 0.0273 c 0.985,1.9812 1.9288,3.9758 2.8613,5.957 0.0787,-0.0125 0.17,-0.0254 0.25,-0.0254 0.0787,0 0.17,0.0129 0.25,0.0254 0.9425,-2.0338 1.9159,-4.0541 2.8984,-6.0879 h 0.0254 c 0.21125,2.0338 0.43484,4.2641 0.52734,6.0879 0.3675,-0.0375 0.73289,-0.0644 1.0879,-0.0644 0.355,0 0.70945,0.0269 1.0644,0.0644 -0.32875,-1.8512 -0.7889,-6.0359 -1.1289,-9.0547 -0.185,0.0387 -0.36774,0.0644 -0.55274,0.0644 -0.18375,0 -0.3807,-0.0257 -0.56445,-0.0644 -0.94625,2.0862 -2.0211,4.3177 -3.0586,6.2715 -0.95625,-1.8488 -2.0718,-4.1852 -3.0293,-6.2715 -0.17125,0.0387 -0.35485,0.0644 -0.52735,0.0644 -0.1825,0 -0.35336,-0.0257 -0.53711,-0.0644 z m 10.803,0 c 0.08,1.155 0.10547,2.1655 0.10547,3.6367 v 1.7832 c 0,1.4712 -0.0255,2.481 -0.10547,3.6348 0.28875,-0.025 0.64445,-0.0644 2.7832,-0.0644 1.21,0 1.8244,0.0532 2.2969,0.0644 -0.0263,-0.15625 -0.0508,-0.2882 -0.0508,-0.56445 0,-0.27625 0.0245,-0.40735 0.0508,-0.58985 -1.0112,0.11875 -2.0214,0.16992 -3.0039,0.16992 -0.0275,-0.52375 -0.041,-1.0874 -0.041,-1.6387 0,-0.565 0.0137,-1.1309 0.0137,-1.6797 0.9975,0 1.983,0.0372 2.9805,0.11719 -0.0412,-0.27625 -0.0664,-0.39336 -0.0664,-0.53711 0,-0.1725 0.0127,-0.28929 0.0664,-0.59179 -0.9975,0.0525 -1.8392,0.0773 -2.9805,0.10351 0,-0.9575 1.5e-4,-1.9006 0.0664,-2.8594 0.3925,0 1.9674,0.0912 2.9648,0.15625 -0.0263,-0.19625 -0.0508,-0.31289 -0.0508,-0.58789 0,-0.2375 0.0245,-0.39399 0.0508,-0.55274 -0.35375,0.04 -1.4566,0.0644 -2.7441,0.0644 -0.77375,0 -1.5609,-0.0507 -2.3359,-0.0644 z m 6.6816,0 c 0.08,1.1562 0.10547,2.1635 0.10547,3.6348 v 1.7852 c 0,1.47 -0.0255,2.481 -0.10547,3.6348 0.28875,-0.0263 0.64367,-0.0644 1.0762,-0.0644 0.6825,0 1.5774,0.0644 2.8887,0.0644 2.4675,0 4.541,-1.9035 4.541,-4.791 0,-3.3062 -2.0615,-4.2637 -5.0527,-4.2637 -1.155,0 -1.7982,0.0664 -2.377,0.0664 -0.4325,0 -0.78742,-0.0402 -1.0762,-0.0664 z m 10.266,0 c 0.08,1.155 0.10547,2.1655 0.10547,3.6367 v 1.7832 c 0,1.4712 -0.0255,2.481 -0.10547,3.6348 0.28876,-0.025 0.64438,-0.0644 1.0781,-0.0644 0.43125,0 0.78547,0.0395 1.0742,0.0644 -0.08,-1.1538 -0.10547,-2.1635 -0.10547,-3.6348 v -1.7832 c 0,-1.4712 0.0255,-2.4817 0.10547,-3.6367 -0.28875,0.0262 -0.64297,0.0644 -1.0742,0.0644 -0.43375,0 -0.78937,-0.0382 -1.0781,-0.0644 z m 21.566,0 c 0.08,1.155 0.10547,2.1655 0.10547,3.6367 v 1.7832 c 0,1.4712 -0.0255,2.481 -0.10547,3.6348 0.2875,-0.025 0.64117,-0.0644 1.0762,-0.0644 0.4325,0 0.78743,0.0395 1.0762,0.0644 -0.0788,-1.1538 -0.10743,-2.1635 -0.10743,-3.6348 v -1.7832 c 0,-1.4712 0.0287,-2.4817 0.10743,-3.6367 -0.28875,0.0262 -0.64368,0.0644 -1.0762,0.0644 -0.435,0 -0.78867,-0.0382 -1.0762,-0.0644 z m 4.3164,0 c 0.08,1.1562 0.10742,2.1635 0.10742,3.6348 v 1.7852 c 0,1.47 -0.0274,2.481 -0.10742,3.6348 0.28875,-0.0263 0.64367,-0.0644 1.0762,-0.0644 0.68375,0 1.5762,0.0644 2.8887,0.0644 2.4675,0 4.541,-1.9035 4.541,-4.791 0,-3.3062 -2.059,-4.2637 -5.0527,-4.2637 -1.155,0 -1.7982,0.0664 -2.377,0.0664 -0.4325,0 -0.78742,-0.0402 -1.0762,-0.0664 z m 20.309,0 c 0.0788,1.155 0.10547,2.1655 0.10547,3.6367 v 1.7832 c 0,1.4712 -0.0267,2.481 -0.10547,3.6348 0.2875,-0.025 0.6425,-0.0644 2.7812,-0.0644 1.2075,0 1.8244,0.0532 2.2969,0.0644 -0.0263,-0.15625 -0.0508,-0.2882 -0.0508,-0.56445 0,-0.27625 0.0245,-0.40735 0.0508,-0.58985 -1.0112,0.11875 -2.0214,0.16992 -3.0039,0.16992 -0.0275,-0.52375 -0.041,-1.0874 -0.041,-1.6387 0,-0.565 0.0137,-1.1309 0.0137,-1.6797 0.9975,0 1.9817,0.0372 2.9805,0.11719 -0.04,-0.27625 -0.0664,-0.39336 -0.0664,-0.53711 0,-0.1725 0.0127,-0.28929 0.0664,-0.59179 -0.99876,0.0525 -1.8392,0.0773 -2.9805,0.10351 0,-0.9575 1.5e-4,-1.9006 0.0664,-2.8594 0.3925,0 1.9674,0.0912 2.9648,0.15625 -0.0263,-0.19625 -0.0508,-0.31289 -0.0508,-0.58789 0,-0.2375 0.0245,-0.39399 0.0508,-0.55274 -0.355,0.04 -1.4566,0.0644 -2.7441,0.0644 -0.77375,0 -1.5602,-0.0507 -2.334,-0.0644 z m 6.6816,0 c 0.0788,1.155 0.10352,2.1655 0.10352,3.6367 v 1.7832 c 0,1.4712 -0.0248,2.481 -0.10352,3.6348 0.29,-0.025 0.64367,-0.0644 1.0762,-0.0644 0.435,0 0.78618,0.0395 1.0762,0.0644 -0.0788,-1.1538 -0.10547,-2.1635 -0.10547,-3.6348 v -0.53711 h 0.11914 l 2.3476,4.1719 c 0.39375,-0.025 0.79961,-0.0644 1.1934,-0.0644 0.39375,0 0.78914,0.0395 1.1816,0.0644 -0.9575,-1.4825 -1.9549,-2.9784 -2.7949,-4.4609 1.2988,-0.32875 2.0352,-1.1423 2.0352,-2.416 0,-0.77375 -0.32852,-1.3512 -0.85352,-1.7324 -0.46,-0.3275 -0.94578,-0.44531 -2.2695,-0.44531 -0.89375,0 -1.4572,0.0644 -1.9297,0.0644 -0.4325,0 -0.78617,-0.0382 -1.0762,-0.0644 z m 6.9961,0 c 0.85375,2.0075 2.7429,6.8109 3.5566,9.0547 0.18375,-0.025 0.38187,-0.0644 0.57812,-0.0644 0.1975,0 0.37992,0.0395 0.57617,0.0644 1.0238,-3.0038 2.7282,-6.9934 3.5957,-9.0547 -0.1825,0.04 -0.37993,0.0644 -0.57618,0.0644 -0.19625,0 -0.39312,-0.0245 -0.57812,-0.0644 -0.6825,2.0338 -1.5755,4.3979 -2.4805,6.5879 -0.80125,-2.19 -1.7434,-4.6316 -2.3359,-6.5879 -0.38,0.04 -0.77554,0.0644 -1.1543,0.0644 -0.38125,0 -0.77539,-0.0245 -1.1816,-0.0644 z m 9.5938,0 c 0.08,1.155 0.10742,2.1655 0.10742,3.6367 v 1.7832 c 0,1.4712 -0.0274,2.481 -0.10742,3.6348 0.28875,-0.025 0.64367,-0.0644 1.0762,-0.0644 0.43375,0 0.78742,0.0395 1.0762,0.0644 -0.0787,-1.1538 -0.10352,-2.1635 -0.10352,-3.6348 v -1.7832 c 0,-1.4712 0.0248,-2.4817 0.10352,-3.6367 -0.28875,0.0262 -0.64242,0.0644 -1.0762,0.0644 -0.4325,0 -0.78742,-0.0382 -1.0762,-0.0644 z m 12.957,0 c 0.0788,1.155 0.10351,2.1655 0.10351,3.6367 v 1.7832 c 0,1.4712 -0.0248,2.481 -0.10351,3.6348 0.28875,-0.025 0.6425,-0.0644 2.7812,-0.0644 1.2088,0 1.8244,0.0532 2.2969,0.0644 -0.0263,-0.15625 -0.0508,-0.2882 -0.0508,-0.56445 0,-0.27625 0.0245,-0.40735 0.0508,-0.58985 -1.0112,0.11875 -2.0221,0.16992 -3.0059,0.16992 -0.025,-0.52375 -0.0391,-1.0874 -0.0391,-1.6387 0,-0.565 0.0137,-1.1309 0.0137,-1.6797 0.99625,0 1.9842,0.0372 2.9805,0.11719 -0.04,-0.27625 -0.0664,-0.39336 -0.0664,-0.53711 0,-0.1725 0.0127,-0.28929 0.0664,-0.59179 -0.99625,0.0525 -1.8392,0.0773 -2.9805,0.10351 0,-0.9575 10e-4,-1.9006 0.0664,-2.8594 0.39375,0 1.9673,0.0912 2.9648,0.15625 -0.0263,-0.19625 -0.0508,-0.31289 -0.0508,-0.58789 0,-0.2375 0.0245,-0.39399 0.0508,-0.55274 -0.355,0.04 -1.4559,0.0644 -2.7422,0.0644 -0.77375,0 -1.5622,-0.0507 -2.3359,-0.0644 z m -120.78,0.0644 c -1.1538,0 -2.4121,0.57836 -2.4121,2.0996 0,0.70875 0.39204,1.393 0.95703,2.1543 -1.4175,0.72125 -2.3633,1.4299 -2.3633,2.7949 0,1.0238 0.84039,2.1133 2.4941,2.1133 1.0238,0 2.1532,-0.39531 2.9395,-1.0391 l 0.63086,0.86719 c 0.36625,-0.0113 0.72242,-0.0644 1.0762,-0.0644 0.48625,0 0.96953,0.0532 1.6133,0.0644 -0.6025,-0.59 -1.3906,-1.4558 -1.9531,-2.1133 0.6425,-0.7075 1.2442,-1.4162 1.8242,-2.2949 -0.23625,-0.2225 -0.48711,-0.48672 -0.72461,-0.76172 -0.5375,1.1275 -1.113,1.9957 -1.5605,2.5332 -0.70875,-0.82625 -1.4042,-1.6408 -2.0742,-2.5195 1.1562,-0.70875 1.6816,-1.3799 1.6816,-2.2324 0,-1.0488 -0.90766,-1.6016 -2.1289,-1.6016 z m -89.721,0.51368 c 1.6925,0 2.8613,1.3889 2.8613,3.6602 0,2.8612 -1.3769,4.1738 -2.9531,4.1738 -1.4688,0 -2.7559,-0.97133 -2.7559,-3.7676 0,-2.2575 1.0489,-4.0664 2.8477,-4.0664 z m 89.932,0.0781 c 0.47375,0 0.93164,0.38078 0.93164,0.95703 0,0.81375 -0.61633,1.483 -1.0488,1.8106 -0.4325,-0.61625 -0.81445,-1.2835 -0.81445,-1.8223 0,-0.6175 0.42039,-0.94531 0.93164,-0.94531 z m -117.04,0.0918 c 1.43,0 2.0352,0.16875 2.0352,1.7188 0,1.2338 -0.63141,1.877 -1.7852,1.877 -0.0925,0 -0.18601,-0.0116 -0.29101,-0.0254 0,-1.195 0.0148,-2.3766 0.041,-3.5703 z m 35.73,0 c 1.4312,0 2.0352,0.16875 2.0352,1.7188 0,1.2338 -0.63016,1.877 -1.7852,1.877 -0.0925,0 -0.18406,-0.0116 -0.28906,-0.0254 0,-1.195 0.0128,-2.3766 0.0391,-3.5703 z m 31.242,0 c 1.8112,0 3.0039,1.3397 3.0039,3.4922 0,2.73 -1.2448,4.0684 -3.2148,4.0684 -0.5375,0 -0.89055,-0.0285 -1.1543,-0.041 -0.0137,-0.24875 -0.0137,-1.8511 -0.0137,-2.5586 v -2.3359 c 0,-0.71 -8e-5,-2.3111 0.0137,-2.5586 0.40625,-0.0413 0.73524,-0.0664 1.3652,-0.0664 z m 30.441,0 c 1.43,0 2.0332,0.16875 2.0332,1.7188 0,1.2338 -0.62891,1.877 -1.7852,1.877 -0.0912,0 -0.18086,-0.0116 -0.28711,-0.0254 0,-1.195 0.0116,-2.3766 0.0391,-3.5703 z m 50.932,0 c 1.8088,0 3.0039,1.3397 3.0039,3.4922 0,2.73 -1.2461,4.0684 -3.2148,4.0684 -0.53875,0 -0.895,-0.0285 -1.1562,-0.041 -0.0138,-0.24875 -0.0137,-1.8511 -0.0137,-2.5586 v -2.3359 c -10e-6,-0.71 -8e-5,-2.3111 0.0137,-2.5586 0.40625,-0.0413 0.73593,-0.0664 1.3672,-0.0664 z m 36.146,0 c 1.8112,0 3.0078,1.3397 3.0078,3.4922 0,2.73 -1.248,4.0684 -3.2168,4.0684 -0.5375,0 -0.89179,-0.0285 -1.1543,-0.041 -0.0125,-0.24875 -0.0137,-1.8511 -0.0137,-2.5586 v -2.3359 c 0,-0.71 0.001,-2.3111 0.0137,-2.5586 0.4075,-0.0413 0.73328,-0.0664 1.3633,-0.0664 z m 25.65,0 c 1.43,0 2.0352,0.16875 2.0352,1.7188 0,1.2338 -0.63086,1.877 -1.7871,1.877 -0.0913,0 -0.18086,-0.0116 -0.28711,-0.0254 0,-1.195 0.0116,-2.3766 0.0391,-3.5703 z m -120.71,1.7188 c 0.42,1.025 0.78797,2.0606 1.168,3.123 h -2.4004 c 0.38,-1.0625 0.78492,-2.098 1.2324,-3.123 z m 81.371,0 c 0.41875,1.025 0.78671,2.0606 1.168,3.123 h -2.4004 c 0.37875,-1.0625 0.78493,-2.098 1.2324,-3.123 z m -55.051,2.3633 c 0.7475,0.97125 1.5348,1.9416 2.3223,2.9004 -0.34125,0.31375 -0.8793,0.51172 -1.4043,0.51172 -1.2062,0 -1.9023,-0.95797 -1.9023,-1.8242 0,-0.66875 0.37937,-1.1279 0.98437,-1.5879 z"
         transform="matrix(0.8,0,0,-0.8,105.48,725.44)"
         fill="#1c4e9d"
         id="path2" /></g></g></svg>
