<?xml version="1.0" encoding="UTF-8" standalone="no"?>
<svg
   width="480"
   height="128"
   viewBox="0 0 480 128"
   fill="none"
   version="1.1"
   id="svg16"
   sodipodi:docname="CPP_Investment_Board_Logo2.svg"
   inkscape:version="1.4.2 (f4327f4, 2025-05-13)"
   xmlns:inkscape="http://www.inkscape.org/namespaces/inkscape"
   xmlns:sodipodi="http://sodipodi.sourceforge.net/DTD/sodipodi-0.dtd"
   xmlns="http://www.w3.org/2000/svg"
   xmlns:svg="http://www.w3.org/2000/svg">
  <defs
     id="defs16" />
  <sodipodi:namedview
     id="namedview16"
     pagecolor="#ffffff"
     bordercolor="#000000"
     borderopacity="0.25"
     inkscape:showpageshadow="2"
     inkscape:pageopacity="0.0"
     inkscape:pagecheckerboard="0"
     inkscape:deskcolor="#d1d1d1"
     inkscape:zoom="1.4701987"
     inkscape:cx="103.0473"
     inkscape:cy="124.81306"
     inkscape:window-width="1920"
     inkscape:window-height="1057"
     inkscape:window-x="1912"
     inkscape:window-y="-8"
     inkscape:window-maximized="1"
     inkscape:current-layer="svg16" />
  <path
     d="m 144.43225,67.944498 h 8.66632 v 3.725611 h 0.0971 c 0.94923,-1.397233 2.2271,-2.539978 3.72096,-3.327989 1.49412,-0.78801 3.15876,-1.197001 4.84795,-1.191317 9.08745,0 9.81629,6.624973 9.81629,10.561151 V 95.20631 h -8.92545 V 82.020951 c 0,-3.725869 0.42113,-7.516071 -4.47074,-7.516071 -3.35305,0 -4.85957,2.834513 -4.85957,5.831278 V 95.20631 h -8.9252 z"
     fill="#303e49"
     id="path1"
     style="stroke-width:2.58364" />
  <path
     d="M 192.68797,95.19029 H 182.3857 l -9.08718,-27.24605 h 9.29775 l 4.98927,18.012888 h 0.11316 l 5.03784,-18.012888 h 9.08745 z"
     fill="#303e49"
     id="path2"
     style="stroke-width:2.58364" />
  <path
     d="m 210.74892,83.754057 c 0.162,3.725613 2.3165,6.204103 6.09069,6.204103 1.05102,0.0584 2.09611,-0.19481 3.00374,-0.72807 0.90763,-0.53301 1.63777,-1.32231 2.09869,-2.268701 h 8.34232 C 228.66442,93.26263 222.83314,96 216.72618,96 c -8.8606,0 -14.9027,-5.36157 -14.9027,-14.497586 -0.007,-1.916804 0.37101,-3.81578 1.112,-5.583766 0.74124,-1.767985 1.82999,-3.368809 3.20216,-4.707652 1.37191,-1.338843 2.99909,-2.38806 4.7849,-3.085643 1.78556,-0.697583 3.69306,-1.029064 5.60935,-0.97455 9.71889,0 14.57846,7.354077 14.22218,16.603254 z m 11.0797,-4.989011 c 0.01,-1.433921 -0.53662,-2.815394 -1.52435,-3.854534 -0.98798,-1.039141 -2.34,-1.655081 -3.77238,-1.717863 -3.15876,0 -5.26469,2.26792 -5.78297,5.572397 z"
     fill="#303e49"
     id="path3"
     style="stroke-width:2.58364" />
  <path
     d="m 241.12146,86.216267 c -0.0215,0.589329 0.10153,1.175043 0.3586,1.705983 0.25682,0.53068 0.63997,0.99056 1.11562,1.33936 0.95491,0.64591 2.08681,0.97997 3.23963,0.95568 1.73311,0 4.19532,-0.74512 4.19532,-2.89962 0,-2.154236 -2.7862,-2.510779 -4.35732,-2.88334 -5.62097,-1.409118 -12.65106,-1.619685 -12.65106,-8.925189 0,-6.479514 7.07867,-8.358596 12.4405,-8.358596 5.99327,0 12.24594,1.733365 12.55365,8.828302 h -8.24491 c 0.0385,-0.46118 -0.0481,-0.924168 -0.25036,-1.340393 -0.20256,-0.416224 -0.51337,-0.770183 -0.89962,-1.024672 -0.86346,-0.485725 -1.84498,-0.721353 -2.83477,-0.680273 -1.47423,0 -3.83904,0.161995 -3.83904,2.041077 0,2.575373 5.99328,3.045338 10.07543,3.952454 5.52357,1.101407 6.93294,5.086156 6.93294,7.354077 0,7.289223 -6.93294,9.718883 -13.07219,9.718883 -6.47952,0 -13.0722,-2.13822 -13.33134,-9.718883 z"
     fill="#303e49"
     id="path4"
     style="stroke-width:2.58364" />
  <path
     d="m 278.78243,73.727204 h -5.52357 v 12.391918 c 0,2.154238 1.2634,2.623948 3.23963,2.623948 0.72884,0 1.52254,-0.0971 2.31623,-0.0971 v 6.47951 c -1.61968,0 -3.23962,0.25914 -4.85957,0.25914 -7.61321,0 -9.55689,-2.20307 -9.55689,-9.605719 V 73.646336 h -4.51957 v -5.782964 h 4.51957 v -8.244916 h 8.92519 v 8.244916 h 5.45898 z"
     fill="#303e49"
     id="path5"
     style="stroke-width:2.58364" />
  <path
     d="m 281.7146,67.944498 h 8.66606 v 3.725611 h 0.0974 c 0.8017,-1.36933 1.94625,-2.506132 3.32101,-3.298793 1.37475,-0.792403 2.93217,-1.21302 4.51879,-1.220771 3.40188,0 6.48029,1.101665 7.92196,4.422419 0.93269,-1.394133 2.20384,-2.53016 3.69203,-3.303186 1.49076,-0.773025 3.14946,-1.157729 4.82883,-1.119233 8.64744,0 9.60339,6.576659 9.60339,11.776495 v 16.1984 h -8.9239 V 79.186179 c 0,-2.948193 -1.42617,-4.681299 -3.74111,-4.681299 -3.8238,0 -4.19584,2.947935 -4.19584,7.354076 V 95.20631 h -8.92597 V 79.704458 c 0,-3.239628 -0.95568,-5.199578 -3.36932,-5.199578 -3.23963,0 -4.56788,1.846528 -4.56788,7.418667 V 95.20631 h -8.92546 z"
     fill="#303e49"
     id="path6"
     style="stroke-width:2.58364" />
  <path
     d="m 335.98014,83.754057 c 0.14469,3.725613 2.29944,6.204103 6.08964,6.204103 1.04896,0.0594 2.09275,-0.19352 2.99703,-0.72704 0.90686,-0.53326 1.63286,-1.32334 2.09016,-2.269731 h 8.35809 C 353.89511,93.26263 348.06383,96 341.9561,96 c -8.8748,0 -14.90245,-5.36157 -14.90245,-14.497586 -0.008,-1.915512 0.37205,-3.812938 1.11097,-5.57989 0.7415,-1.766952 1.82663,-3.367001 3.19854,-4.705586 1.36934,-1.338584 2.99446,-2.388318 4.77975,-3.086676 1.78271,-0.698617 3.68944,-1.031648 5.60392,-0.979717 9.71966,0 14.65959,7.354077 14.23846,16.603512 z m 11.07866,-4.989011 c 0.0103,-1.436505 -0.5374,-2.820561 -1.52952,-3.85996 -0.99212,-1.039657 -2.34853,-1.65353 -3.78245,-1.712437 -3.14429,0 -5.24996,2.26792 -5.76669,5.572397 z"
     fill="#303e49"
     id="path7"
     style="stroke-width:2.58364" />
  <path
     d="m 359.40344,67.944498 h 8.66554 v 3.725611 h 0.0956 c 0.95078,-1.397233 2.2271,-2.539978 3.72303,-3.327989 1.49334,-0.78801 3.15721,-1.197001 4.84691,-1.191317 9.08668,0 9.81785,6.624973 9.81785,10.561151 V 95.20631 h -8.96008 V 82.020951 c 0,-3.725869 0.42114,-7.516071 -4.4697,-7.516071 -3.35357,0 -4.85983,2.834513 -4.85983,5.831278 V 95.20631 h -8.9239 z"
     fill="#303e49"
     id="path8"
     style="stroke-width:2.58364" />
  <path
     d="m 407.39718,73.727204 h -5.50574 v 12.391918 c 0,2.154238 1.2634,2.623948 3.23989,2.623948 0.72859,0 1.52176,-0.0971 2.29944,-0.0971 v 6.47951 c -1.61994,0 -3.23989,0.25914 -4.85983,0.25914 -7.614,0 -9.5569,-2.20307 -9.5569,-9.605719 V 73.646336 h -4.56788 v -5.782964 h 4.51879 v -8.244916 h 8.92649 v 8.244916 h 5.50574 z"
     fill="#303e49"
     id="path9"
     style="stroke-width:2.58364" />
  <path
     d="m 417.27961,86.216267 c -0.0181,0.588812 0.10593,1.173493 0.36171,1.703913 0.25836,0.53042 0.63816,0.99083 1.11355,1.34143 0.95336,0.64591 2.085,0.97997 3.2373,0.95568 1.73364,0 4.19585,-0.74512 4.19585,-2.89962 0,-2.154236 -2.76968,-2.510779 -4.35603,-2.88334 -5.62201,-1.409118 -12.65209,-1.619685 -12.65209,-8.925189 0,-6.479514 7.09467,-8.358596 12.44023,-8.358596 5.99406,0 12.24647,1.733365 12.55392,8.828302 h -8.2444 c 0.0388,-0.46118 -0.0491,-0.924168 -0.25061,-1.340393 -0.20153,-0.416224 -0.51415,-0.770183 -0.89911,-1.024672 -0.86293,-0.485725 -1.84473,-0.721353 -2.83426,-0.680273 -1.47526,0 -3.83929,0.161995 -3.83929,2.041077 0,2.575373 5.99405,3.045338 10.09171,3.952454 5.50574,1.101407 6.93191,5.086156 6.93191,7.354077 C 435.13,93.57034 428.19809,96 422.04126,96 c -6.47977,0 -13.07064,-2.13822 -13.33159,-9.718883 z"
     fill="#303e49"
     id="path10"
     style="stroke-width:2.58364" />
  <path
     d="m 129.98375,49.348559 h -2.6242 V 95.22258 h 2.6242 z"
     fill="#2b70b8"
     id="path11"
     style="stroke-width:2.58364" />
  <path
     d="m 135.31225,40.682381 h -2.60792 V 95.22258 h 2.60792 z"
     fill="#2b70b8"
     id="path12"
     style="stroke-width:2.58364" />
  <path
     d="m 140.65832,32 h -2.60818 v 63.22258 h 2.60818 z"
     fill="#2b70b8"
     id="path13"
     style="stroke-width:2.58364" />
  <path
     d="m 63.974761,50.288075 c -0.199303,-1.257459 -0.861516,-2.394984 -1.856554,-3.189221 -0.995013,-0.794237 -2.250998,-1.187778 -3.52135,-1.103396 -1.399119,-0.01266 -2.758141,0.467226 -3.839085,1.355662 -1.080919,0.888437 -1.814854,2.128792 -2.073347,3.503883 -0.320605,1.116986 -0.489549,2.272054 -0.502183,3.434098 0.01746,0.710864 0.08244,1.419763 0.19442,2.122023 0.11647,1.000127 0.429737,1.967442 0.921843,2.84588 0.49208,0.878697 1.153208,1.650947 1.94525,2.27283 0.975712,0.671488 2.136336,1.022605 3.320678,1.004261 0.982301,0.0015 1.950081,-0.237437 2.818546,-0.69655 0.775766,-0.481849 1.422864,-1.144811 1.88562,-1.932047 0.462756,-0.787235 0.727296,-1.675233 0.770908,-2.587258 H 71.1183 c -0.112905,2.982039 -1.358402,5.808801 -3.482725,7.904909 -1.180517,1.161605 -2.588629,2.066396 -4.135817,2.657275 -1.547214,0.591137 -3.19997,0.855443 -4.854302,0.776642 -2.711869,0.054 -5.382296,-0.67123 -7.694268,-2.089649 -0.679343,-0.451362 -1.313989,-0.96654 -1.895257,-1.538816 -2.709597,-2.907889 -4.164511,-6.766299 -4.049608,-10.7395 -0.07055,-3.641952 1.190906,-7.184408 3.547478,-9.962081 1.277946,-1.381576 2.833015,-2.477996 4.563565,-3.217693 1.730575,-0.73967 3.597721,-1.105953 5.479491,-1.074872 1.81904,-0.05315 3.628287,0.285286 5.305123,0.992351 1.676861,0.707065 3.182169,1.766255 4.413945,3.105847 1.219919,1.428133 2.065958,3.136928 2.462161,4.972915 0.0617,0.413227 0.09968,0.829685 0.11337,1.247279 z"
     fill="#303e49"
     id="path14"
     style="stroke-width:2.58364" />
  <path
     d="m 81.031477,53.268589 h 4.486753 c 0.453688,0 0.891098,0 1.312232,-0.081 0.50872,-0.02599 1.004004,-0.171528 1.445806,-0.424828 0.441803,-0.2533 0.817981,-0.607233 1.097274,-1.033018 0.298669,-0.574808 0.449037,-1.215164 0.43741,-1.862857 0,-3.62844 -3.531323,-3.401647 -4.341294,-3.434046 h -4.438181 z m 4.130469,-12.634807 c 0.745122,0 1.473967,0 2.203072,0 1.239373,-0.08461 2.48288,0.09529 3.647586,0.527812 1.164706,0.432502 2.223999,1.107737 3.107864,1.980878 0.883863,0.873142 1.572145,1.924245 2.0186,3.083576 0.446711,1.159332 0.642035,2.400384 0.572535,3.640841 0.06717,1.711611 -0.388322,3.403173 -1.305515,4.849857 -0.917193,1.446684 -2.252937,2.58005 -3.829474,3.249471 -1.560004,0.548766 -3.206301,0.812297 -4.859574,0.777418 h -5.636991 v 9.119737 h -7.111217 v -27.22959 z"
     fill="#303e49"
     id="path15"
     style="stroke-width:2.58364" />
  <path
     d="m 107.25751,53.300988 h 4.48702 c 0.4697,0 0.89084,0 1.31197,-0.081 0.51156,-0.02349 1.0102,-0.167834 1.45485,-0.421263 0.4449,-0.253404 0.8234,-0.608654 1.1045,-1.036583 0.2886,-0.577857 0.43328,-1.217024 0.42114,-1.862857 0,-3.62844 -3.51505,-3.401648 -4.32502,-3.434046 h -4.45446 z m 4.14675,-12.634807 c 0.7291,0 1.45795,0 2.20307,0 1.23937,-0.08461 2.48288,0.09531 3.64759,0.527812 1.1647,0.432502 2.224,1.107736 3.10786,1.980878 0.88386,0.873142 1.57214,1.924219 2.01886,3.08355 0.44645,1.159332 0.64151,2.400409 0.57201,3.640867 0.0672,1.711611 -0.38806,3.403147 -1.30525,4.849831 -0.91719,1.446684 -2.25268,2.579972 -3.82947,3.249394 -1.56414,0.53068 -3.20811,0.78801 -4.85958,0.761399 h -5.65326 v 9.119737 h -7.09494 V 40.666181 Z"
     fill="#303e49"
     id="path16"
     style="stroke-width:2.58364" />
</svg>
