<?xml version="1.0" encoding="UTF-8" standalone="no"?>
<!-- Generator: Adobe Illustrator 25.3.1, SVG Export Plug-In . SVG Version: 6.00 Build 0)  -->

<svg
   version="1.1"
   id="Layer_1"
   x="0px"
   y="0px"
   viewBox="0 0 256 128"
   xml:space="preserve"
   sodipodi:docname="DHA Logo2.svg"
   inkscape:version="1.4.2 (f4327f4, 2025-05-13)"
   width="256"
   height="128"
   xmlns:inkscape="http://www.inkscape.org/namespaces/inkscape"
   xmlns:sodipodi="http://sodipodi.sourceforge.net/DTD/sodipodi-0.dtd"
   xmlns="http://www.w3.org/2000/svg"
   xmlns:svg="http://www.w3.org/2000/svg"><defs
   id="defs27" /><sodipodi:namedview
   id="namedview27"
   pagecolor="#ffffff"
   bordercolor="#000000"
   borderopacity="0.25"
   inkscape:showpageshadow="2"
   inkscape:pageopacity="0.0"
   inkscape:pagecheckerboard="0"
   inkscape:deskcolor="#d1d1d1"
   inkscape:zoom="3.2241891"
   inkscape:cx="87.308776"
   inkscape:cy="62.18618"
   inkscape:window-width="1920"
   inkscape:window-height="1057"
   inkscape:window-x="1912"
   inkscape:window-y="-8"
   inkscape:window-maximized="1"
   inkscape:current-layer="Layer_1" />
<style
   type="text/css"
   id="style1">
	.st0{fill:#242B64;}
	.st1{fill:#414042;}
	.st2{fill:#582831;}
	.st3{fill:#010101;}
</style>
<g
   id="g27"
   transform="matrix(0.41542266,0,0,0.41542256,46.96326,28.697391)">
	<g
   id="g25">
		<path
   class="st0"
   d="M 197.28,21.24 H 163.21 V 59.66 H 126.14 V 21.24 H 92.22 v 5.21 c 3.02,2.24 5.72,4.84 8.07,7.79 4.34,5.48 7.52,11.92 9.46,19.14 1.89,7.02 2.84,14.55 2.84,22.37 0,12.4 -1.42,21.86 -4.33,28.92 -2.9,7.01 -6.99,12.99 -12.17,17.76 -1.26,1.16 -2.55,2.23 -3.87,3.21 v 5.38 h 33.92 V 86.61 h 37.07 v 44.41 h 6.97 l 27.1,-72.1 z"
   id="path1" />
		<path
   class="st0"
   d="m 93.2,119.29 c 4.74,-4.37 8.45,-9.78 11.12,-16.25 2.67,-6.46 4.01,-15.56 4.01,-27.29 0,-7.49 -0.9,-14.58 -2.7,-21.27 -1.8,-6.69 -4.69,-12.55 -8.69,-17.6 C 92.95,31.84 87.89,27.97 81.78,25.27 75.66,22.57 67.64,21.23 57.71,21.23 H 7.31 v 109.78 h 50.4 c 1.51,0 3.06,-0.06 4.66,-0.19 4.79,-0.37 9.98,-1.31 15.56,-2.81 5.44,-1.44 10.53,-4.35 15.27,-8.72 z M 41.23,46.1 h 8.46 c 3.29,0 6.24,0.3 8.83,0.91 4.32,1.01 7.67,2.85 10.04,5.53 3.79,4.29 5.69,12.26 5.69,23.89 0,8.79 -0.85,15.14 -2.55,19.06 -1.7,3.92 -4.04,6.66 -7.04,8.24 -3,1.57 -8.04,2.36 -15.13,2.36 H 41.22 V 46.1 Z"
   id="path2" />
		<path
   class="st0"
   d="m 253,21.24 h -37 l -41.26,109.78 h 22.55 12.09 l 5.35,-18.12 h 38.51 l 5.49,18.12 h 35.52 z m -9.16,58.48 5.77,17.75 -15.12,-10.97 -15.11,10.97 5.77,-17.75 -15.08,-10.98 h 18.65 l 5.77,-17.74 5.77,17.75 h 18.65 z"
   id="path3" />
		<g
   id="g22">
			<path
   class="st1"
   d="m 8.83,157.84 v -14.17 h 4.88 c 1.1,0 1.94,0.07 2.52,0.2 0.81,0.19 1.5,0.52 2.08,1.01 0.75,0.63 1.31,1.44 1.68,2.42 0.37,0.98 0.56,2.1 0.56,3.37 0,1.08 -0.13,2.03 -0.38,2.86 -0.25,0.83 -0.57,1.52 -0.97,2.06 -0.39,0.54 -0.82,0.97 -1.29,1.29 -0.47,0.31 -1.03,0.55 -1.69,0.71 -0.66,0.16 -1.42,0.24 -2.28,0.24 H 8.83 Z m 1.88,-1.67 h 3.03 c 0.93,0 1.67,-0.09 2.2,-0.26 0.53,-0.17 0.96,-0.42 1.27,-0.73 0.44,-0.44 0.79,-1.04 1.04,-1.79 0.25,-0.75 0.37,-1.66 0.37,-2.73 0,-1.48 -0.24,-2.62 -0.73,-3.42 -0.49,-0.79 -1.08,-1.33 -1.77,-1.6 -0.5,-0.19 -1.31,-0.29 -2.43,-0.29 h -2.98 z"
   id="path4" />
			<path
   class="st1"
   d="m 33.89,154.54 1.8,0.22 c -0.28,1.05 -0.81,1.87 -1.57,2.45 -0.77,0.58 -1.75,0.87 -2.94,0.87 -1.5,0 -2.69,-0.46 -3.57,-1.39 -0.88,-0.93 -1.32,-2.22 -1.32,-3.89 0,-1.73 0.44,-3.07 1.33,-4.02 0.89,-0.95 2.04,-1.43 3.46,-1.43 1.37,0 2.49,0.47 3.36,1.4 0.87,0.93 1.31,2.25 1.31,3.94 0,0.1 0,0.26 -0.01,0.46 h -7.65 c 0.06,1.13 0.38,1.99 0.96,2.59 0.57,0.6 1.29,0.9 2.15,0.9 0.64,0 1.18,-0.17 1.63,-0.5 0.44,-0.33 0.8,-0.87 1.06,-1.6 z m -5.71,-2.81 h 5.73 c -0.08,-0.86 -0.3,-1.51 -0.66,-1.94 -0.55,-0.67 -1.27,-1 -2.16,-1 -0.8,0 -1.47,0.27 -2.01,0.8 -0.54,0.52 -0.84,1.24 -0.9,2.14 z"
   id="path5" />
			<path
   class="st1"
   d="m 42.25,157.84 v -8.91 h -1.54 v -1.35 h 1.54 v -1.09 c 0,-0.69 0.06,-1.2 0.18,-1.54 0.17,-0.45 0.46,-0.82 0.88,-1.1 0.42,-0.28 1.01,-0.42 1.77,-0.42 0.49,0 1.03,0.06 1.62,0.17 l -0.26,1.52 c -0.36,-0.07 -0.7,-0.1 -1.02,-0.1 -0.53,0 -0.9,0.11 -1.12,0.34 -0.22,0.22 -0.33,0.65 -0.33,1.27 v 0.95 h 2 v 1.35 h -2 v 8.91 z"
   id="path6" />
			<path
   class="st1"
   d="m 58.31,154.54 1.8,0.22 c -0.28,1.05 -0.81,1.87 -1.58,2.45 -0.77,0.58 -1.75,0.87 -2.94,0.87 -1.5,0 -2.69,-0.46 -3.57,-1.39 -0.88,-0.93 -1.32,-2.22 -1.32,-3.89 0,-1.73 0.44,-3.07 1.33,-4.02 0.89,-0.95 2.04,-1.43 3.46,-1.43 1.37,0 2.49,0.47 3.36,1.4 0.87,0.93 1.3,2.25 1.3,3.94 0,0.1 0,0.26 -0.01,0.46 h -7.65 c 0.06,1.13 0.38,1.99 0.96,2.59 0.57,0.6 1.29,0.9 2.15,0.9 0.64,0 1.18,-0.17 1.63,-0.5 0.46,-0.33 0.82,-0.87 1.08,-1.6 z m -5.71,-2.81 h 5.73 c -0.08,-0.86 -0.3,-1.51 -0.66,-1.94 -0.55,-0.67 -1.27,-1 -2.16,-1 -0.8,0 -1.47,0.27 -2.02,0.8 -0.53,0.52 -0.83,1.24 -0.89,2.14 z"
   id="path7" />
			<path
   class="st1"
   d="m 66.25,157.84 v -10.26 h 1.57 v 1.46 c 0.75,-1.13 1.84,-1.69 3.27,-1.69 0.62,0 1.19,0.11 1.71,0.33 0.52,0.22 0.91,0.51 1.16,0.87 0.26,0.36 0.44,0.79 0.54,1.29 0.06,0.32 0.1,0.89 0.1,1.69 v 6.31 h -1.74 v -6.24 c 0,-0.71 -0.07,-1.24 -0.2,-1.59 -0.13,-0.35 -0.38,-0.63 -0.72,-0.84 -0.34,-0.21 -0.75,-0.31 -1.21,-0.31 -0.74,0 -1.38,0.23 -1.92,0.71 -0.54,0.47 -0.81,1.36 -0.81,2.68 v 5.61 h -1.75 z"
   id="path8" />
			<path
   class="st1"
   d="m 80.53,154.78 1.72,-0.27 c 0.1,0.69 0.37,1.22 0.81,1.58 0.44,0.37 1.06,0.55 1.85,0.55 0.8,0 1.39,-0.16 1.78,-0.49 0.39,-0.33 0.58,-0.71 0.58,-1.14 0,-0.39 -0.17,-0.7 -0.51,-0.93 -0.24,-0.16 -0.83,-0.35 -1.78,-0.59 -1.28,-0.32 -2.16,-0.6 -2.65,-0.84 -0.49,-0.23 -0.87,-0.56 -1.12,-0.98 -0.25,-0.42 -0.38,-0.88 -0.38,-1.38 0,-0.46 0.11,-0.88 0.31,-1.27 0.21,-0.39 0.49,-0.71 0.86,-0.97 0.27,-0.2 0.64,-0.37 1.11,-0.51 0.47,-0.14 0.97,-0.21 1.5,-0.21 0.81,0 1.51,0.12 2.12,0.35 0.61,0.23 1.06,0.55 1.35,0.94 0.29,0.4 0.49,0.93 0.6,1.59 l -1.7,0.23 c -0.08,-0.53 -0.3,-0.94 -0.67,-1.24 -0.37,-0.3 -0.89,-0.44 -1.57,-0.44 -0.8,0 -1.37,0.13 -1.71,0.4 -0.34,0.26 -0.51,0.57 -0.51,0.93 0,0.22 0.07,0.43 0.21,0.61 0.14,0.19 0.36,0.34 0.67,0.46 0.17,0.07 0.69,0.21 1.54,0.44 1.23,0.33 2.09,0.6 2.58,0.81 0.49,0.21 0.87,0.51 1.15,0.91 0.28,0.4 0.42,0.9 0.42,1.49 0,0.58 -0.17,1.13 -0.51,1.64 -0.34,0.51 -0.83,0.91 -1.46,1.19 -0.64,0.28 -1.36,0.42 -2.16,0.42 -1.33,0 -2.35,-0.28 -3.05,-0.83 -0.75,-0.54 -1.19,-1.36 -1.38,-2.45 z"
   id="path9" />
			<path
   class="st1"
   d="m 102.1,154.54 1.8,0.22 c -0.28,1.05 -0.81,1.87 -1.57,2.45 -0.77,0.58 -1.75,0.87 -2.94,0.87 -1.5,0 -2.69,-0.46 -3.57,-1.39 -0.88,-0.93 -1.32,-2.22 -1.32,-3.89 0,-1.73 0.44,-3.07 1.33,-4.02 0.89,-0.95 2.04,-1.43 3.46,-1.43 1.37,0 2.49,0.47 3.36,1.4 0.87,0.93 1.3,2.25 1.3,3.94 0,0.1 0,0.26 -0.01,0.46 h -7.65 c 0.06,1.13 0.38,1.99 0.96,2.59 0.57,0.6 1.29,0.9 2.15,0.9 0.64,0 1.18,-0.17 1.63,-0.5 0.45,-0.33 0.81,-0.87 1.07,-1.6 z m -5.71,-2.81 h 5.73 c -0.08,-0.86 -0.3,-1.51 -0.66,-1.94 -0.55,-0.67 -1.27,-1 -2.16,-1 -0.8,0 -1.47,0.27 -2.02,0.8 -0.53,0.52 -0.83,1.24 -0.89,2.14 z"
   id="path10" />
			<path
   class="st1"
   d="m 119.78,157.84 v -14.17 h 1.88 v 5.82 h 7.36 v -5.82 h 1.88 v 14.17 h -1.88 v -6.68 h -7.36 v 6.68 z"
   id="path11" />
			<path
   class="st1"
   d="m 144.78,154.54 1.8,0.22 c -0.28,1.05 -0.81,1.87 -1.58,2.45 -0.77,0.58 -1.75,0.87 -2.94,0.87 -1.5,0 -2.69,-0.46 -3.57,-1.39 -0.88,-0.93 -1.32,-2.22 -1.32,-3.89 0,-1.73 0.44,-3.07 1.33,-4.02 0.89,-0.95 2.04,-1.43 3.46,-1.43 1.37,0 2.49,0.47 3.36,1.4 0.87,0.93 1.31,2.25 1.31,3.94 0,0.1 0,0.26 -0.01,0.46 h -7.65 c 0.06,1.13 0.38,1.99 0.96,2.59 0.57,0.6 1.29,0.9 2.15,0.9 0.64,0 1.18,-0.17 1.63,-0.5 0.45,-0.33 0.8,-0.87 1.07,-1.6 z m -5.71,-2.81 h 5.73 c -0.08,-0.86 -0.3,-1.51 -0.66,-1.94 -0.55,-0.67 -1.27,-1 -2.16,-1 -0.8,0 -1.47,0.27 -2.02,0.8 -0.53,0.52 -0.83,1.24 -0.89,2.14 z"
   id="path12" />
			<path
   class="st1"
   d="m 159.42,156.58 c -0.64,0.55 -1.26,0.93 -1.86,1.16 -0.6,0.22 -1.24,0.34 -1.92,0.34 -1.13,0 -1.99,-0.28 -2.6,-0.83 -0.61,-0.55 -0.91,-1.25 -0.91,-2.11 0,-0.5 0.12,-0.96 0.34,-1.38 0.23,-0.42 0.53,-0.75 0.9,-1 0.37,-0.25 0.79,-0.44 1.25,-0.57 0.34,-0.09 0.86,-0.18 1.55,-0.26 1.4,-0.17 2.44,-0.37 3.1,-0.6 0.01,-0.24 0.01,-0.39 0.01,-0.45 0,-0.71 -0.16,-1.21 -0.49,-1.5 -0.44,-0.39 -1.11,-0.59 -1.98,-0.59 -0.82,0 -1.42,0.14 -1.81,0.43 -0.39,0.29 -0.68,0.8 -0.86,1.52 l -1.7,-0.23 c 0.15,-0.73 0.41,-1.32 0.76,-1.76 0.35,-0.45 0.87,-0.79 1.54,-1.03 0.67,-0.24 1.45,-0.36 2.33,-0.36 0.88,0 1.59,0.1 2.14,0.31 0.55,0.21 0.95,0.47 1.21,0.78 0.26,0.31 0.44,0.71 0.54,1.18 0.06,0.3 0.09,0.83 0.09,1.6 v 2.32 c 0,1.62 0.04,2.64 0.11,3.07 0.07,0.43 0.22,0.84 0.44,1.23 h -1.82 c -0.19,-0.37 -0.31,-0.79 -0.36,-1.27 z m -0.15,-3.89 c -0.63,0.26 -1.58,0.48 -2.84,0.66 -0.72,0.1 -1.22,0.22 -1.52,0.35 -0.3,0.13 -0.53,0.32 -0.69,0.56 -0.16,0.25 -0.24,0.53 -0.24,0.83 0,0.46 0.18,0.85 0.53,1.16 0.35,0.31 0.86,0.46 1.54,0.46 0.67,0 1.27,-0.15 1.79,-0.44 0.52,-0.29 0.9,-0.69 1.15,-1.2 0.19,-0.39 0.28,-0.97 0.28,-1.74 z"
   id="path13" />
			<path
   class="st1"
   d="m 167.65,157.84 v -14.17 h 1.74 v 14.17 z"
   id="path14" />
			<path
   class="st1"
   d="m 179.84,156.29 0.25,1.54 c -0.49,0.1 -0.93,0.15 -1.31,0.15 -0.63,0 -1.12,-0.1 -1.47,-0.3 -0.35,-0.2 -0.59,-0.46 -0.74,-0.79 -0.14,-0.33 -0.21,-1.01 -0.21,-2.05 v -5.9 h -1.28 v -1.35 h 1.28 v -2.54 l 1.73,-1.04 v 3.59 h 1.75 v 1.35 h -1.75 v 6 c 0,0.49 0.03,0.81 0.09,0.96 0.06,0.14 0.16,0.25 0.3,0.34 0.14,0.09 0.34,0.13 0.59,0.13 0.2,-0.03 0.46,-0.05 0.77,-0.09 z"
   id="path15" />
			<path
   class="st1"
   d="m 185.5,157.84 v -14.17 h 1.74 v 5.08 c 0.81,-0.94 1.84,-1.41 3.07,-1.41 0.76,0 1.42,0.15 1.98,0.45 0.56,0.3 0.96,0.71 1.2,1.24 0.24,0.53 0.36,1.3 0.36,2.3 v 6.5 h -1.74 v -6.5 c 0,-0.87 -0.19,-1.5 -0.57,-1.9 -0.38,-0.4 -0.91,-0.59 -1.6,-0.59 -0.52,0 -1,0.13 -1.45,0.4 -0.45,0.27 -0.78,0.63 -0.97,1.09 -0.19,0.46 -0.29,1.09 -0.29,1.89 v 5.62 z"
   id="path16" />
			<path
   class="st1"
   d="m 207.5,157.84 5.44,-14.17 h 2.02 l 5.8,14.17 h -2.14 l -1.65,-4.29 h -5.92 l -1.56,4.29 z m 4.09,-5.82 h 4.8 l -1.48,-3.92 c -0.45,-1.19 -0.79,-2.17 -1.01,-2.94 -0.18,0.91 -0.43,1.81 -0.76,2.71 z"
   id="path17" />
			<path
   class="st1"
   d="m 225.68,158.69 1.69,0.25 c 0.07,0.52 0.27,0.9 0.59,1.14 0.43,0.32 1.02,0.48 1.77,0.48 0.81,0 1.43,-0.16 1.87,-0.48 0.44,-0.32 0.73,-0.77 0.89,-1.35 0.09,-0.36 0.13,-1.1 0.12,-2.23 -0.76,0.9 -1.71,1.34 -2.84,1.34 -1.41,0 -2.5,-0.51 -3.28,-1.53 -0.78,-1.02 -1.16,-2.24 -1.16,-3.66 0,-0.98 0.18,-1.88 0.53,-2.71 0.35,-0.83 0.87,-1.47 1.54,-1.92 0.67,-0.45 1.46,-0.68 2.37,-0.68 1.21,0 2.21,0.49 3,1.47 v -1.24 h 1.61 v 8.87 c 0,1.6 -0.16,2.73 -0.49,3.4 -0.33,0.67 -0.84,1.19 -1.55,1.58 -0.71,0.39 -1.57,0.58 -2.6,0.58 -1.22,0 -2.21,-0.28 -2.97,-0.83 -0.76,-0.54 -1.12,-1.37 -1.09,-2.48 z m 1.43,-6.16 c 0,1.35 0.27,2.33 0.8,2.95 0.54,0.62 1.2,0.93 2.01,0.93 0.8,0 1.47,-0.31 2.01,-0.92 0.54,-0.62 0.81,-1.58 0.81,-2.89 0,-1.26 -0.28,-2.2 -0.84,-2.84 -0.56,-0.64 -1.23,-0.96 -2.02,-0.96 -0.77,0 -1.43,0.31 -1.97,0.94 -0.52,0.62 -0.8,1.55 -0.8,2.79 z"
   id="path18" />
			<path
   class="st1"
   d="m 247.99,154.54 1.8,0.22 c -0.28,1.05 -0.81,1.87 -1.58,2.45 -0.77,0.58 -1.75,0.87 -2.94,0.87 -1.5,0 -2.69,-0.46 -3.57,-1.39 -0.88,-0.93 -1.32,-2.22 -1.32,-3.89 0,-1.73 0.44,-3.07 1.33,-4.02 0.89,-0.95 2.04,-1.43 3.46,-1.43 1.37,0 2.49,0.47 3.36,1.4 0.87,0.93 1.3,2.25 1.3,3.94 0,0.1 0,0.26 -0.01,0.46 h -7.65 c 0.06,1.13 0.38,1.99 0.96,2.59 0.57,0.6 1.29,0.9 2.15,0.9 0.64,0 1.18,-0.17 1.63,-0.5 0.45,-0.33 0.81,-0.87 1.08,-1.6 z m -5.71,-2.81 h 5.73 c -0.08,-0.86 -0.3,-1.51 -0.66,-1.94 -0.55,-0.67 -1.27,-1 -2.16,-1 -0.8,0 -1.47,0.27 -2.01,0.8 -0.55,0.52 -0.85,1.24 -0.9,2.14 z"
   id="path19" />
			<path
   class="st1"
   d="m 255.93,157.84 v -10.26 h 1.57 v 1.46 c 0.75,-1.13 1.84,-1.69 3.27,-1.69 0.62,0 1.19,0.11 1.71,0.33 0.52,0.22 0.91,0.51 1.16,0.87 0.26,0.36 0.44,0.79 0.54,1.29 0.06,0.32 0.1,0.89 0.1,1.69 v 6.31 h -1.74 v -6.24 c 0,-0.71 -0.07,-1.24 -0.2,-1.59 -0.13,-0.35 -0.38,-0.63 -0.72,-0.84 -0.34,-0.21 -0.75,-0.31 -1.21,-0.31 -0.74,0 -1.38,0.23 -1.92,0.71 -0.54,0.47 -0.81,1.36 -0.81,2.68 v 5.61 h -1.75 z"
   id="path20" />
			<path
   class="st1"
   d="m 277.59,154.08 1.71,0.22 c -0.19,1.18 -0.67,2.1 -1.43,2.77 -0.77,0.67 -1.72,1 -2.84,1 -1.41,0 -2.53,-0.46 -3.39,-1.38 -0.85,-0.92 -1.28,-2.23 -1.28,-3.95 0,-1.11 0.18,-2.08 0.55,-2.91 0.37,-0.83 0.93,-1.45 1.68,-1.87 0.75,-0.42 1.57,-0.62 2.45,-0.62 1.12,0 2.03,0.28 2.74,0.85 0.71,0.56 1.16,1.36 1.36,2.4 l -1.69,0.26 c -0.16,-0.69 -0.45,-1.21 -0.86,-1.56 -0.41,-0.35 -0.9,-0.52 -1.48,-0.52 -0.88,0 -1.59,0.31 -2.14,0.94 -0.55,0.63 -0.82,1.62 -0.82,2.98 0,1.38 0.26,2.38 0.79,3.01 0.53,0.63 1.22,0.94 2.07,0.94 0.68,0 1.25,-0.21 1.71,-0.63 0.46,-0.41 0.75,-1.06 0.87,-1.93 z"
   id="path21" />
			<path
   class="st1"
   d="m 284.67,161.8 -0.19,-1.63 c 0.38,0.1 0.71,0.15 1,0.15 0.39,0 0.7,-0.06 0.93,-0.19 0.23,-0.13 0.42,-0.31 0.57,-0.54 0.11,-0.17 0.29,-0.61 0.53,-1.3 0.03,-0.1 0.08,-0.24 0.15,-0.43 l -3.89,-10.28 h 1.88 l 2.14,5.94 c 0.28,0.75 0.53,1.55 0.74,2.38 0.2,-0.8 0.44,-1.58 0.71,-2.34 l 2.19,-5.98 h 1.74 l -3.9,10.44 c -0.42,1.13 -0.74,1.9 -0.98,2.33 -0.31,0.57 -0.66,0.99 -1.06,1.26 -0.4,0.27 -0.88,0.4 -1.43,0.4 -0.34,0 -0.72,-0.07 -1.13,-0.21 z"
   id="path22" />
		</g>
		<path
   class="st2"
   d="m 360.71,89.3 c 9.08,1.86 6.54,8.88 19.82,7.7 1.02,-0.09 1.95,-0.18 2.84,-0.26 V 80.55 c -3.28,0.86 -7.48,1.53 -12.46,1.44 -16.23,-0.31 -22.2,-12.92 -31.66,-7.87 -1.43,0.76 -6.27,3.64 -12.39,7.32 0.03,0.02 0.06,0.03 0.08,0.04 v 0 c -0.03,-0.02 -0.06,-0.03 -0.09,-0.04 -11.12,6.69 -26.5,16.05 -33.64,20.41 l 8.32,20.71 c 12.18,-8.35 51.52,-34.83 59.18,-33.26 z m -3.06,-4.38 c -0.23,0.01 -0.43,-0.09 -0.61,-0.26 0.18,0.18 0.38,0.28 0.61,0.26 z m -28.33,-1.65 c -0.84,-0.47 -1.64,-1.02 -2.34,-1.76 0.69,0.73 1.49,1.29 2.34,1.76 z"
   id="path23" />
		<path
   class="st2"
   d="m 331.45,58.41 c 6.43,-1.47 14.78,8.6 29.67,9.85 7.03,0.59 15.86,-1.52 22.25,-3.48 V 49.81 c -6.12,1.89 -15.43,4.5 -21.75,5.05 -10.15,0.87 -28.95,-9.05 -40.68,-10.94 -8.8,-1.41 -32.01,12.59 -43.08,19.69 l 8.11,20.18 c 9.66,-7.22 30.74,-22.02 45.48,-25.38 z"
   id="path24" />
		<path
   class="st2"
   d="m 321.31,30.86 c 3.57,0.85 7,2.51 10.19,4.16 0.34,0.18 0.68,0.35 1.02,0.53 4.83,2.54 9.02,4.85 12.08,3.9 16.82,-5.22 31.55,-9.26 38.78,-11.18 V 7.95 c -2.41,0.08 -6.11,0.37 -11.72,1.18 -13.02,1.88 -36.29,14.81 -46.51,14.73 -10.23,-0.08 -17.05,-8.86 -30.37,-8.15 -8.6,0.46 -22.8,6.6 -31.78,10.9 l 7.11,17.7 c 11.05,-6.63 33.12,-17.75 51.2,-13.45 z"
   id="path25" />
	</g>
	<g
   id="g26">
		<path
   class="st3"
   d="m 371.8,142.67 c 1.58,0 3.13,0.41 4.64,1.22 1.51,0.81 2.69,1.98 3.53,3.49 0.84,1.51 1.26,3.09 1.26,4.74 0,1.63 -0.41,3.19 -1.24,4.69 -0.83,1.5 -1.99,2.67 -3.49,3.5 -1.5,0.83 -3.06,1.24 -4.7,1.24 -1.63,0 -3.2,-0.41 -4.7,-1.24 -1.5,-0.83 -2.66,-2 -3.5,-3.5 -0.83,-1.5 -1.25,-3.07 -1.25,-4.69 0,-1.64 0.42,-3.22 1.27,-4.74 0.85,-1.51 2.03,-2.68 3.53,-3.49 1.52,-0.82 3.07,-1.22 4.65,-1.22 z m 0,1.56 c -1.33,0 -2.62,0.34 -3.87,1.02 -1.26,0.68 -2.24,1.65 -2.95,2.92 -0.71,1.27 -1.06,2.58 -1.06,3.95 0,1.36 0.35,2.66 1.04,3.91 0.69,1.25 1.67,2.22 2.92,2.92 1.25,0.7 2.56,1.04 3.92,1.04 1.36,0 2.66,-0.35 3.92,-1.04 1.25,-0.7 2.22,-1.67 2.92,-2.92 0.69,-1.25 1.04,-2.55 1.04,-3.91 0,-1.37 -0.35,-2.68 -1.06,-3.95 -0.71,-1.26 -1.69,-2.24 -2.95,-2.92 -1.26,-0.68 -2.55,-1.02 -3.87,-1.02 z m -4.14,13.1 v -10.16 h 3.49 c 1.19,0 2.06,0.09 2.59,0.28 0.53,0.19 0.96,0.51 1.28,0.98 0.32,0.47 0.48,0.96 0.48,1.49 0,0.74 -0.26,1.39 -0.79,1.94 -0.53,0.55 -1.23,0.86 -2.11,0.93 0.36,0.15 0.65,0.33 0.86,0.54 0.41,0.4 0.91,1.07 1.5,2.01 l 1.24,1.99 h -2 l -0.9,-1.6 c -0.71,-1.26 -1.28,-2.05 -1.71,-2.36 -0.3,-0.23 -0.74,-0.35 -1.31,-0.35 h -0.96 v 4.32 h -1.66 z m 1.64,-5.72 h 1.99 c 0.95,0 1.6,-0.14 1.95,-0.43 0.35,-0.28 0.52,-0.66 0.52,-1.13 0,-0.3 -0.08,-0.57 -0.25,-0.81 -0.17,-0.24 -0.4,-0.41 -0.69,-0.53 -0.3,-0.12 -0.84,-0.18 -1.65,-0.18 h -1.86 v 3.08 z"
   id="path26" />
	</g>
</g>
</svg>
