<?xml version="1.0" encoding="UTF-8" standalone="no"?>
<svg
   width="128"
   height="128"
   viewBox="0 0 128 128"
   version="1.1"
   id="svg3"
   sodipodi:docname="Logo_of_the_United_States_Department_of_Agriculture2.svg"
   inkscape:version="1.4.2 (f4327f4, 2025-05-13)"
   xmlns:inkscape="http://www.inkscape.org/namespaces/inkscape"
   xmlns:sodipodi="http://sodipodi.sourceforge.net/DTD/sodipodi-0.dtd"
   xmlns="http://www.w3.org/2000/svg"
   xmlns:svg="http://www.w3.org/2000/svg">
  <defs
     id="defs3" />
  <sodipodi:namedview
     id="namedview3"
     pagecolor="#ffffff"
     bordercolor="#000000"
     borderopacity="0.25"
     inkscape:showpageshadow="2"
     inkscape:pageopacity="0.0"
     inkscape:pagecheckerboard="0"
     inkscape:deskcolor="#d1d1d1"
     inkscape:zoom="5.0418681"
     inkscape:cx="123.46614"
     inkscape:cy="84.790001"
     inkscape:window-width="1920"
     inkscape:window-height="1057"
     inkscape:window-x="1912"
     inkscape:window-y="-8"
     inkscape:window-maximized="1"
     inkscape:current-layer="svg3" />
  <g
     transform="matrix(0.50921627,0,0,-0.50921627,26.176986,89.139103)"
     id="g3">
    <g
       transform="matrix(1.2496,0,0,1.2496,-17.586,-13.475)"
       id="g2">
      <path
         d="m 126.33,100.58 c 0,0 -16.305,-38.069 -17.483,-40.425 -0.62,-1.178 -1.1786,-1.8601 -2.9136,-3.0381 h 8.5547 c -1.674,0.744 -1.9833,1.6131 -1.4253,3.1011 0.124,0.682 1.6117,4.3402 3.4717,8.5562 h 15.19 c 1.736,-4.216 3.3487,-7.9991 3.5347,-8.6191 0.433,-1.301 0.12325,-2.1701 -1.4898,-3.0381 h 13.27 c -2.046,1.054 -2.4801,1.7371 -3.1011,3.0381 -1.115,2.356 -17.609,40.425 -17.609,40.425 z M 51.576,99.96037 c -5.642,0 -13.516,-3.3483 -13.516,-11.78 0,-4.712 2.4801,-8.0602 8.1841,-11.222 5.642,-3.038 11.036,-3.8434 11.036,-9.7954 0,-3.039 -1.8601,-7.4414 -7.998,-7.4414 -6.448,0 -10.167,5.8285 -11.345,10.23 l 0.30908,-10.478 c 2.17,-1.054 6.2628,-2.9766 11.905,-2.9766 7.626,0 14.446,5.2695 14.446,13.02 0,8.619 -6.0143,10.664 -11.78,13.393 -5.828,2.666 -8.4946,4.093 -8.4946,7.875 0,2.666 1.8608,5.9517 6.5728,5.9517 5.952,0 9.4855,-4.9596 10.354,-8.2456 l -0.30908,9.1758 c -3.163,1.86 -7.2553,2.2939 -9.3633,2.2939 z M -0.003,99.27775 c 0.992,-0.496 1.9834,-1.3631 1.9834,-2.7891 v -25.793 c 0,-10.975 9.2387,-14.199 16.493,-14.199 8.432,0 14.694,4.0913 14.694,14.632 l 0.18604,25.359 c 0,1.426 0.68133,2.2931 1.6113,2.7891 h -7.1909 c 0.931,-0.496 1.6743,-1.3631 1.6743,-2.7891 l 0.12305,-25.484 c 0,-6.138 -2.6664,-10.973 -10.044,-10.973 -8.06,0 -9.5479,6.137 -9.5479,10.478 v 25.979 c 0,1.426 0.92988,2.2931 1.9219,2.7891 z m 68.689,0 c 0.93,-0.496 1.6099,-1.3631 1.6099,-2.7891 v -36.582 c 0,-1.364 -0.67986,-2.2325 -1.6099,-2.7905 h 15.933 c 16.74,0 25.049,10.913 25.049,21.702 0,6.014 -4.0917,20.459 -24.491,20.459 z m 15.189,-3.0996 c 12.834,0 17.175,-9.9199 17.175,-17.36 0,-9.053 -3.9064,-18.476 -17.919,-18.476 h -4.96 v 35.711 c 0.931,0.124 4.2161,0.12451 5.7041,0.12451 z m 40.1,-8.9897 c 0,0 3.4097,-8.3084 6.3237,-15.19 h -12.526 c 1.984,4.65 6.2022,15.19 6.2022,15.19 z"
         fill="#002d72"
         id="path1" />
      <path
         d="m 141.2,51.2 c -18,0.03927 -92.923,-1.3602 -139.68,-26.275 0,0 56.631,22.395 143.66,20.155 v 6.0791 c 0,0 -1.41,0.03541 -3.9814,0.04101 z M 1.52,51.158985 v -5.7583 c 10.559,1.599 49.271,-1.5996 49.271,-1.5996 -18.877,7.039 -49.271,7.3579 -49.271,7.3579 z m 18.076,-9.5742 C 10.0193,41.616083 1.52,41.242015 1.52,41.242015 v -5.7598 c 3.1997,1.6 34.875,5.439 34.875,5.439 -4.9192,0.47962 -11.053,0.6448 -16.799,0.66358 z m 116.93,-1.2495 c -1.8444,-0.008 -3.9542,-0.03049 -6.3032,-0.07324 l -0.46289,-0.0088 c -26.237,-0.50299 -81.257,-3.6693 -128.22,-20.26 v -19.992 l 143.66,0.026367 v 40.235 c 0,0 -3.1388,0.09729 -8.6719,0.07324 z"
         fill="#005440"
         id="path2" />
    </g>
  </g>
</svg>
