<svg id="eCy75sb8O6a1" xmlns="http://www.w3.org/2000/svg" xmlns:xlink="http://www.w3.org/1999/xlink" viewBox="0 0 320 340" shape-rendering="geometricPrecision" text-rendering="geometricPrecision" project-id="64c576d1d55f45718b5a65f0ba7e86bb" export-id="08c4bab770e54dd1acfa975ded3f9de3" cached="false"><g transform="matrix(0.1 0 0 -0.1 0 340)"><path d="M1500,3339c-116-11-263-50-343-90l-66-34l147-1c133,0,154-3,227-28c104-36,173-76,245-142c149-139,191-297,160-606-20-191,5-281,101-378c95-95,199-135,338-128c74,3,95,9,151,38c128,68,206,177,231,323c39,236-82,523-314,744-122,115-220,175-380,232-168,59-348,85-497,70Z" fill="#1c6da6"/><path d="M1016,3126c-90-33-155-77-239-162-124-125-201-264-246-439-82-320-37-633,127-895c78-123,133-189,217-259c129-106,130-106,70,13-72,144-99,244-99,376-1,159,42,285,127,377c56,61,102,90,232,148c155,70,213,105,271,167c62,66,93,128,107,218c28,185-68,362-241,443-58,27-80,32-162,35-81,2-105-1-164-22Z" fill="#1c6da6"/><path d="M2690,2091c-77-143-220-289-346-351-216-106-425-59-689,152-106,86-239,116-365,84-125-32-212-101-267-213-33-67-38-86-41-168-9-209,73-334,289-434c123-57,203-74,344-75c231,0,474,81,662,223c207,156,355,373,417,612c24,92,44,229,33,229-3,0-20-26-37-59Z" fill="#1c6da6"/><path d="M77,833c-4-3-7-75-7-160v-153h35h35v65v65h50c49,0,50,1,50,30s-1,30-50,30h-50v35v35h50c49,0,50,1,50,30v30h-78c-43,0-82-3-85-7Z"/><path d="M740,784c0-55,0-55-22-40-50,36-134,11-162-48-20-42-20-67-2-109c27-66,95-94,155-64c17,9,31,11,31,6s14-9,30-9h30v160v160h-30c-30,0-30,0-30-56Zm-20-94c26-26,26-81,0-105-29-26-79-24-102,4-56,70,39,164,102,101Z"/><path d="M1570,680v-160h25h25v160v160h-25-25v-160Z"/><path d="M1750,811c0-26,4-30,33-33l32-3l3-127l3-128h29h30v130v130h35c32,0,35,2,35,30v30h-100-100v-29Z"/><path d="M2880,815c0-20,5-25,25-25s25,5,25,25-5,25-25,25-25-5-25-25Z"/><path d="M3007,833c-4-3-7-19-7-36s-8-36-22-46c-22-18-18-41,8-41c11,0,14-19,14-95v-95h30h30v95c0,88,1,95,20,95c15,0,20,7,20,25s-5,25-20,25c-17,0-20,7-20,40c0,35-3,40-23,40-13,0-27-3-30-7Z"/><path d="M311,734c-50-42-60-115-24-171c21-32,79-56,121-49c32,5,92,49,92,68c0,14-57,9-70-7-18-21-66-19-90,5-35,35-24,40,75,40h95v25c0,96-125,152-199,89Zm127-36c28-28,13-38-53-38-36,0-65,3-65,7c0,3,7,15,17,25c19,21,82,25,101,6Z"/><path d="M902,746c-54-29-78-109-49-166c17-34,74-70,111-70c36,0,90,30,106,59c10,19,8,21-17,21-15,0-37-7-47-15-11-8-29-15-41-15-26,0-65,27-65,46c0,11,19,14,95,14c105,0,107,2,81,64-28,67-111,97-174,62Zm110-53c30-27,21-33-47-33-67,0-77,7-49,34c20,21,73,20,96-1Z"/><path d="M1130,640v-120h30h30v80c0,79,1,81,30,98c19,11,30,25,30,40c0,24-28,30-48,10-9-9-15-9-24,0-7,7-20,12-30,12-16,0-18-11-18-120Z"/><path d="M1310,743c-36-25-48-43-55-84s11-94,42-122c30-26,85-32,122-14c17,9,31,11,31,6s14-9,30-9h31l-3,117c-3,99-6,118-19,121-9,2-23-3-31-11-12-12-17-13-33-1-26,19-85,18-115-3Zm120-53c26-26,26-81,0-105-29-26-79-24-102,4-55,69,40,163,102,101Z"/><path d="M1960,640v-120h30h30v80c0,79,1,81,30,98c19,11,30,25,30,40c0,25-27,30-49,10-11-10-14-10-18,0-3,6-16,12-29,12h-24v-120Z"/><path d="M2126,730c-104-92,1-268,123-207c17,9,31,11,31,6s14-9,30-9h30v114c0,109-1,115-22,122-14,4-25,1-33-9-9-13-13-13-30-1-33,25-90,17-129-16Zm132-40c48-45,16-123-50-123-62,0-89,73-43,118c29,30,64,32,93,5Z"/><path d="M2400,640v-120h25c24,0,25,2,25,73c0,82,16,117,55,117s55-35,55-117c0-71,1-73,25-73c25,0,25,0,25,95c0,88-2,98-25,120-29,30-95,35-116,9-11-14-13-14-21,0-5,9-18,16-28,16-19,0-20-8-20-120Z"/><path d="M2682,737c-26-28-29-69-6-88c9-8,35-21,58-30c28-11,41-23,41-35c0-25-52-33-61-10-3,9-17,16-30,16-33,0-32-33,2-59c58-46,148-9,146,59-1,40-10,50-65,70-29,11-42,21-42,34c0,25,19,31,38,11c18-17,67-21,67-5c0,6-11,22-25,35-33,34-93,34-123,2Z"/><path d="M2880,640v-120h25h25v120v120h-25-25v-120Z"/><path d="M177,363c-3-4-31-71-62-148s-59-146-62-152c-4-9,6-13,30-13c29,0,37,5,47,30c12,29,15,30,75,30c61,0,63-1,74-30c8-26,15-30,45-30h36L343,93C236,362,235,365,208,368c-14,2-28,0-31-5Zm51-143l21-60h-45c-24,0-44,2-44,4c0,3,20,62,35,104c8,21,13,14,33-48Z"/><path d="M580,314c0-55,0-55-22-40-28,20-81,20-118,1-83-43-79-180,6-220c40-19,67-19,104,0c17,9,30,11,30,5c0-5,11-10,25-10h25v160v160h-25c-24,0-25-3-25-56Zm-26-95c50-39,22-122-42-122-43,0-72,28-72,70c0,65,61,93,114,52Z"/><path d="M1110,345c0-20,5-25,25-25s25,5,25,25-5,25-25,25-25-5-25-25Z"/><path d="M1490,345c0-21,5-25,30-25s30,4,30,25-5,25-30,25-30-4-30-25Z"/><path d="M1828,328c-2-30-8-43-18-43-8,0-16-10-18-22-3-18,2-23,17-23c20,0,21-6,21-95c0-95,0-95,25-95s25,0,25,95c0,88,1,95,20,95c11,0,21,5,22,10c4,29,1,35-17,35-16,0-21,8-23,43-3,37-6,42-27,42s-24-5-27-42Z"/><path d="M2410,332c0-31-4-41-20-45-12-3-20-14-20-26c0-14,6-21,20-21c19,0,20-7,20-95v-95h30h30v95c0,88,1,95,20,95c27,0,27,40,1,47-14,4-21,15-23,42-3,31-7,36-30,39-26,3-28,1-28-36Z"/><path d="M2540,346c0-22,4-26,31-26c26,0,30,3,27,23-2,16-11,23-30,25-24,3-28,0-28-22Z"/><path d="M697,283c-4-3-7-57-7-120v-113h30h30v79c0,83,12,111,49,111c33,0,41-22,41-107v-83h30h30v79c0,83,12,111,49,111c33,0,41-22,41-107v-83h30h30v95c0,88-2,98-25,120-30,31-82,33-117,5-25-19-26-19-43,0-22,24-72,26-103,4-20-14-22-14-22,0c0,16-31,22-43,9Z"/><path d="M1110,170v-120h25h25v120v120h-25-25v-120Z"/><path d="M1220,170v-120h30h30v85c0,73,3,86,19,95c57,30,81,0,81-101v-79h31h31l-4,94c-3,84-6,97-27,120-29,30-84,35-119,10-17-12-22-12-22-2c0,8-11,15-25,16l-25,2v-120Z"/><path d="M1497,283c-4-3-7-57-7-120v-113h30h30v120c0,119,0,120-23,120-13,0-27-3-30-7Z"/><path d="M1627,279c-23-14-39-56-31-81c3-12,29-30,61-44c40-18,54-29,51-42-4-22-46-28-54-8-8,21-64,22-64,1s34-53,65-61c56-14,115,24,115,74c0,35-23,57-76,75-21,8-40,21-42,29-4,22,28,31,48,13c22-19,60-20,60,0c0,8-9,24-20,35-22,22-82,27-113,9Z"/><path d="M1960,170v-120h25c24,0,25,2,25,64c0,80,12,113,42,118c31,4,40,58,10,58-11,0-25-7-33-16-11-14-13-14-21,0-5,9-18,16-28,16-19,0-20-8-20-120Z"/><path d="M2139,275c-37-20-63-78-56-128c11-79,98-128,166-94c17,9,31,11,31,6s14-9,30-9h31l-3,117c-3,99-6,118-19,121-9,2-23-3-31-11-12-12-17-13-33-1-24,18-83,17-116-1Zm115-56c51-40,22-122-44-122-63,0-92,73-48,120c27,29,57,29,92,2Z"/><path d="M2540,171v-121h30h31l-3,118-3,117-27,3-28,3v-120Z"/><path d="M2698,273c-96-60-63-215,49-230c105-14,177,92,128,187-29,56-120,78-177,43Zm110-50c34-29,37-66,10-98-45-51-118-26-118,42c0,62,63,94,108,56Z"/><path d="M2940,170v-120h25c24,0,25,2,25,73c0,82,16,117,55,117s55-35,55-117v-73h30h30v75c0,83-17,137-48,154-30,16-88,13-103-5-11-14-13-14-21,0-5,9-18,16-28,16-19,0-20-8-20-120Z"/></g></svg>
