<?xml version="1.0" encoding="UTF-8" standalone="no"?>
<svg
   width="128"
   height="128"
   version="1.1"
   viewBox="0 0 127.99978 128.00074"
   xml:space="preserve"
   id="svg106"
   sodipodi:docname="Seal_of_Cybersecurity_and_Infrastructure_Security_Agency2.svg"
   inkscape:version="1.4.2 (f4327f4, 2025-05-13)"
   xmlns:inkscape="http://www.inkscape.org/namespaces/inkscape"
   xmlns:sodipodi="http://sodipodi.sourceforge.net/DTD/sodipodi-0.dtd"
   xmlns="http://www.w3.org/2000/svg"
   xmlns:svg="http://www.w3.org/2000/svg"><sodipodi:namedview
     id="namedview106"
     pagecolor="#ffffff"
     bordercolor="#000000"
     borderopacity="0.25"
     inkscape:showpageshadow="2"
     inkscape:pageopacity="0.0"
     inkscape:pagecheckerboard="0"
     inkscape:deskcolor="#d1d1d1"
     inkscape:zoom="2"
     inkscape:cx="275.25"
     inkscape:cy="27.25"
     inkscape:window-width="1920"
     inkscape:window-height="1057"
     inkscape:window-x="1912"
     inkscape:window-y="-8"
     inkscape:window-maximized="1"
     inkscape:current-layer="svg106" /><defs
     id="defs1"><clipPath
       id="a"><path
         d="m 72,660.3 h 59.6 v 59.701 H 72 Z"
         id="path1" /></clipPath></defs><g
     transform="matrix(0.18322234,0,0,-0.18322234,45.38577,190.53954)"
     id="g106"><g
       transform="matrix(6,0,0,6,-507.97,-3451.8)"
       id="g105"><g
         clip-path="url(#a)"
         id="g104"><g
           transform="matrix(0.010781,0,0,-0.0108,72,720)"
           id="g3"><g
             transform="translate(5445,2745)"
             id="g2"><path
               d="m 0,0 c 0,1491 -1209,2700 -2700,2700 -1491,0 -2700,-1209 -2700,-2700 0,-1491 1209,-2700 2700,-2700 C -1209,-2700 0,-1491 0,0"
               fill="#ffffff"
               id="path2" /></g></g><g
           transform="matrix(0.010781,0,0,-0.0108,72,720)"
           id="g5"><g
             transform="translate(2745,110)"
             id="g4"><path
               d="m 0,0 c -1453,0 -2635,1182 -2635,2635 0,1453 1182,2635 2635,2635 1453,0 2635,-1182 2635,-2635 C 2635,1182 1453,0 0,0 M 0,5114 C -1367,5114 -2479,4002 -2479,2635 -2479,1268 -1367,156 0,156 1367,156 2479,1268 2479,2635 2479,4002 1367,5114 0,5114"
               fill="#005288"
               id="path3" /></g></g><g
           transform="matrix(0.010781,0,0,-0.0108,72,720)"
           id="g7"><g
             transform="translate(2893,3725)"
             id="g6"><path
               d="M 0,0 C 84,-16 173,-27 261,-30 V -9 C 46,1 -114,60 -220,117 -235,102 -249,86 -263,71 -189,44 -98,19 0,0 m -206,131 c 36,37 73,73 113,107 v -71 c 0,-38 26,-69 58,-69 33,0 59,31 59,69 v 163 c 18,14 36,26 55,39 V 116 c 0,-38 26,-69 58,-69 32,0 59,31 59,69 v 324 c 21,13 43,24 65,35 V 9 C 53,19 -102,77 -206,131 m 147,-401 39,19 21,-12 -53,-31 z m 22,-82 42,-33 -27,-21 z m 22,-79 39,31 39,-30 -39,-149 z m 84,180 v -25 l -21,13 z m -63,12 63,31 v -16 l -45,-26 z m 65,-167 -27,21 41,33 z m -47,129 68,-39 -67,-54 -68,54 z m 66,-11 6,3 8,4 -3,-13 z m -44,-2033 -59,33 -32,45 c -18,-8 -66,-29 -110,-45 -45,-17 -106,-36 -106,-36 114,1 141,1 146,1 h 1 c 5,1 34,1 160,2 m 1601,1341 c 0,991 -804,1794 -1795,1794 -207,0 -407,-35 -592,-99 0,0 346,-277 493,-426 -102,-96 -194,-204 -274,-322 -63,-93 -117,-191 -162,-292 l -860,859 29,-350 c -267,-313 -428,-720 -428,-1164 0,-991 803,-1794 1794,-1794 991,0 1795,803 1795,1794 m -2694,-1457 400,215 -231,237 170,-7 -140,233 h 9 c 105,0 203,34 283,92 184,-29 447,-64 695,-79 -1,-2 -2,-3 -3,-5 -3,-7 -7,-14 -11,-22 -5,-11 -11,-22 -17,-33 -7,-15 -15,-30 -22,-45 -9,-17 -18,-35 -27,-52 -9,-20 -19,-40 -29,-60 0,0 43,-59 126,-84 77,-24 162,-1 212,66 16,21 28,45 28,70 0,0 132,-198 100,-311 -32,-114 -284,-102 -284,-102 h -84 l -76,-80 c -20,-21 -48,-34 -77,-34 h -1022 z m -330,1679 203,-215 v -214 l -183,193 z m 621,-287 c 97,-35 162,-128 162,-231 v -9 c -33,-5 -59,-27 -70,-57 h -157 c -6,15 -15,28 -26,38 -15,12 -35,20 -56,20 -37,0 -69,-24 -82,-58 h -43 l -87,93 v 300 l -270,286 -23,270 272,-287 c -6,-12 -9,-25 -9,-39 0,-48 39,-87 87,-87 48,0 87,39 87,87 0,48 -39,87 -87,87 -13,0 -24,-3 -35,-8 l -323,342 -23,270 303,-320 c -6,-12 -9,-25 -9,-39 0,-48 39,-87 87,-87 48,0 87,39 87,87 0,48 -39,87 -87,87 -12,0 -24,-3 -35,-8 l -354,377 -27,312 698,-697 v -722 z m -302,685 c 15,0 27,-12 27,-27 0,-15 -12,-28 -27,-28 -16,0 -28,13 -28,28 0,15 12,27 28,27 m 0,-332 c 15,0 27,-12 27,-27 0,-16 -12,-28 -27,-28 -16,0 -28,12 -28,28 0,15 12,27 28,27 m 155,-652 c 15,0 28,-12 28,-27 0,-16 -13,-28 -28,-28 -15,0 -27,12 -27,28 0,15 12,27 27,27 m 320,0 c 15,0 28,-12 28,-27 0,-16 -13,-28 -28,-28 -15,0 -27,12 -27,28 0,15 12,27 27,27 m 19,816 v -421 c 93,-79 152,-196 152,-327 0,-133 -60,-252 -156,-330 -22,-18 -46,-34 -72,-48 -59,-31 -127,-49 -199,-49 -152,0 -285,79 -361,198 v 1 c -6,9 -133,228 -133,228 l -16,187 296,-312 h 68 c 12,-33 44,-57 82,-57 21,0 40,7 55,20 12,10 21,22 27,37 h 157 c 12,-33 44,-57 81,-57 48,0 87,39 87,87 0,30 -16,57 -40,73 1,7 2,15 2,22 0,121 -73,231 -182,279 v 622 z m 2039,-574 v -467 c 0,0 -489,-126 -1095,-126 h -38 c -272,2 -605,44 -839,78 87,88 141,208 141,341 0,134 -55,261 -152,352 v 15 h 1889 c -27,251 -107,490 -232,702 v -51 H 995 v -78 h -86 v -91 h -52 v -55 c 0,-8 -2,-15 -7,-22 -8,-12 -21,-19 -35,-19 -14,0 -27,7 -35,19 -4,7 -6,14 -6,22 v 55 h -52 v 90 H 659 V -632 H 261 v 428 l -120,-59 c -33,-111 -66,-220 -97,-330 9,-6 15,-16 15,-28 0,-20 -16,-35 -35,-35 -19,0 -35,15 -35,35 0,12 6,22 15,28 -30,103 -60,206 -91,309 l -2,-1 -27,-13 v 103 h -46 l -21,-352 -1,-18 h -141 l -1,18 -21,352 h -109 c -46,-76 -86,-156 -119,-238 l -63,63 c 188,438 541,789 981,975 665,-281 1132,-940 1132,-1707"
               fill="#005288"
               id="path5" /></g></g><g
           transform="matrix(0.010781,0,0,-0.0108,72,720)"
           id="g9"><g
             transform="translate(593,2862)"
             id="g8"><path
               d="m 0,0 -2,-68 c 37,-1 67,9 92,27 24,19 38,45 40,79 4,41 -9,74 -38,98 -29,24 -70,38 -123,42 -54,5 -98,-3 -130,-22 -32,-19 -50,-49 -53,-91 -6,-70 34,-111 120,-124 l 10,66 c -49,6 -73,24 -70,53 1,15 10,27 26,34 17,8 49,10 95,7 C 8,97 36,91 50,81 65,72 72,59 71,42 68,15 45,1 0,0"
               fill="#005288"
               id="path7" /></g></g><g
           transform="matrix(0.010781,0,0,-0.0108,72,720)"
           id="g11"><g
             transform="translate(374,2785)"
             id="g10"><path
               d="m 0,0 3,-81 124,-43 -121,-55 3,-72 190,100 142,5 -3,73 -142,-5 z"
               fill="#005288"
               id="path9" /></g></g><g
           transform="matrix(0.010781,0,0,-0.0108,72,720)"
           id="g13"><g
             transform="translate(388,2487)"
             id="g12"><path
               d="m 0,0 18,-113 c 4,-27 9,-47 16,-60 6,-12 17,-22 33,-29 15,-7 34,-9 55,-6 37,6 58,26 64,59 19,-36 49,-50 90,-44 21,3 39,11 52,24 13,12 21,26 24,42 2,16 2,38 -3,65 L 332,51 Z m 145,-49 4,-24 c 3,-23 1,-39 -6,-46 -8,-7 -17,-12 -28,-14 -10,-1 -19,0 -28,5 -9,5 -15,17 -18,37 l -4,29 z m 141,22 5,-36 c 6,-34 -6,-53 -35,-57 -16,-3 -28,0 -36,7 -8,7 -13,20 -16,36 l -5,36 z"
               fill="#005288"
               id="path11" /></g></g><g
           transform="matrix(0.010781,0,0,-0.0108,72,720)"
           id="g15"><g
             transform="translate(444,2178)"
             id="g14"><path
               d="m 0,0 56,-196 55,15 -36,125 75,22 28,-97 55,15 -27,98 79,22 36,-125 57,17 -56,196 z"
               fill="#005288"
               id="path13" /></g></g><g
           transform="matrix(0.010781,0,0,-0.0108,72,720)"
           id="g17"><g
             transform="translate(523,1919)"
             id="g16"><path
               d="m 0,0 41,-97 c 8,-19 15,-33 21,-42 6,-10 15,-18 27,-25 12,-7 25,-11 41,-11 16,0 32,3 48,10 39,17 60,43 63,78 l 159,1 -31,73 -140,-10 -14,34 122,52 -29,67 z m 78,-47 87,37 13,-30 c 11,-27 2,-46 -28,-59 -10,-4 -19,-6 -28,-4 -8,1 -14,4 -19,8 -4,4 -9,11 -13,21 z"
               fill="#005288"
               id="path15" /></g></g><g
           transform="matrix(0.010781,0,0,-0.0108,72,720)"
           id="g19"><g
             transform="translate(814,1499)"
             id="g18"><path
               d="m 0,0 -10,65 c -29,-7 -49,0 -60,20 -6,9 -7,18 -5,27 2,8 7,15 14,19 8,5 16,5 25,2 9,-4 23,-14 43,-30 C 24,89 40,78 53,71 66,64 80,61 96,61 c 15,1 31,5 46,14 27,16 44,38 50,67 7,29 1,58 -17,90 -31,52 -77,70 -138,54 l 16,-65 c 33,10 57,3 71,-21 6,-11 9,-22 7,-32 -2,-10 -7,-18 -17,-23 -7,-4 -14,-6 -23,-4 -8,1 -21,9 -37,23 -21,17 -38,30 -50,37 -13,7 -28,11 -44,11 -16,0 -31,-4 -47,-13 -26,-15 -42,-36 -49,-63 -7,-26 -2,-53 14,-81 C -93,5 -52,-14 0,0"
               fill="#005288"
               id="path17" /></g></g><g
           transform="matrix(0.010781,0,0,-0.0108,72,720)"
           id="g21"><g
             transform="translate(797,1395)"
             id="g20"><path
               d="m 0,0 123,-163 45,35 -78,104 63,47 60,-81 46,34 -60,81 66,50 78,-105 48,36 -123,163 z"
               fill="#005288"
               id="path19" /></g></g><g
           transform="matrix(0.010781,0,0,-0.0108,72,720)"
           id="g23"><g
             transform="translate(1230,1212)"
             id="g22"><path
               d="m 0,0 50,-47 c 25,27 38,56 40,87 3,31 -8,58 -32,83 -28,29 -61,41 -98,36 -37,-6 -75,-27 -114,-64 -39,-38 -62,-75 -69,-112 -8,-36 4,-70 33,-100 48,-51 106,-48 172,7 l -43,52 c -37,-33 -65,-39 -86,-18 -10,11 -13,26 -8,43 5,18 25,43 58,75 30,28 53,45 70,50 17,4 31,1 43,-11 C 34,61 29,34 0,0"
               fill="#005288"
               id="path21" /></g></g><g
           transform="matrix(0.010781,0,0,-0.0108,72,720)"
           id="g25"><g
             transform="translate(1181,964)"
             id="g24"><path
               d="m 0,0 57,-46 120,149 c 17,22 29,36 38,42 8,7 17,10 27,10 9,-1 19,-5 27,-12 10,-7 16,-16 18,-25 1,-9 0,-18 -5,-27 -5,-9 -16,-24 -33,-45 L 130,-104 178,-142 296,5 c 23,30 39,53 47,70 8,17 9,36 4,58 -6,21 -21,42 -45,61 -23,18 -44,29 -63,32 -19,2 -37,-1 -53,-10 -17,-10 -39,-32 -67,-67 z"
               fill="#005288"
               id="path23" /></g></g><g
           transform="matrix(0.010781,0,0,-0.0108,72,720)"
           id="g27"><g
             transform="translate(1439,767)"
             id="g26"><path
               d="m 0,0 90,-54 c 18,-11 32,-18 42,-22 10,-4 22,-5 36,-4 14,1 27,7 40,16 13,9 24,21 33,36 21,36 23,69 5,100 l 128,94 -69,41 -106,-90 -32,19 68,113 -63,38 z m 91,8 48,81 28,-17 c 25,-14 29,-36 12,-63 -5,-10 -12,-17 -19,-21 -8,-3 -14,-5 -20,-4 -7,0 -14,4 -24,9 z"
               fill="#005288"
               id="path25" /></g></g><g
           transform="matrix(0.010781,0,0,-0.0108,72,720)"
           id="g29"><g
             transform="translate(1699,620)"
             id="g28"><path
               d="m 0,0 67,-32 143,303 -67,32 z"
               fill="#005288"
               id="path27" /></g></g><g
           transform="matrix(0.010781,0,0,-0.0108,72,720)"
           id="g31"><g
             transform="translate(1806,568)"
             id="g30"><path
               d="m 0,0 196,-74 22,58 -64,25 97,254 -69,26 L 85,35 23,59 Z"
               fill="#005288"
               id="path29" /></g></g><g
           transform="matrix(0.010781,0,0,-0.0108,72,720)"
           id="g33"><g
             transform="translate(2037,481)"
             id="g32"><path
               d="m 0,0 79,-20 76,107 18,-131 70,-18 -42,211 35,137 -72,18 -35,-137 z"
               fill="#005288"
               id="path31" /></g></g><g
           transform="matrix(0.010781,0,0,-0.0108,72,720)"
           id="g35"><g
             transform="translate(2669,520)"
             id="g34"><path
               d="m 0,0 55,6 c -6,40 -18,77 -37,110 12,11 24,16 35,16 2,-1 5,-1 12,-2 l 4,57 c -9,3 -18,5 -25,5 -24,2 -46,-7 -68,-26 -25,24 -55,37 -88,40 -37,3 -65,-5 -83,-24 -19,-18 -29,-41 -31,-67 -3,-43 20,-77 69,-102 -23,-27 -36,-51 -37,-73 -2,-20 5,-38 20,-54 16,-16 36,-25 62,-27 27,-2 48,4 65,18 16,15 25,33 27,55 3,34 -15,62 -52,85 l 51,58 C -11,57 -5,32 0,0 m -127,50 c -21,15 -31,34 -30,56 1,14 7,25 16,33 9,9 21,12 36,11 18,-1 33,-9 45,-23 z m 24,-69 c 19,-12 28,-29 27,-48 -1,-8 -4,-14 -8,-20 -5,-5 -12,-7 -20,-6 -9,0 -15,3 -19,8 -4,6 -6,12 -6,20 1,12 10,27 26,46"
               fill="#005288"
               id="path33" /></g></g><g
           transform="matrix(0.010781,0,0,-0.0108,72,720)"
           id="g37"><g
             transform="translate(2891,381)"
             id="g36"><path
               d="M 0,0 73,6 48,340 -26,335 Z"
               fill="#005288"
               id="path35" /></g></g><g
           transform="matrix(0.010781,0,0,-0.0108,72,720)"
           id="g39"><g
             transform="translate(3049,394)"
             id="g38"><path
               d="M 0,0 81,14 129,234 166,29 222,39 163,369 98,358 40,101 -2,340 -58,330 Z"
               fill="#005288"
               id="path37" /></g></g><g
           transform="matrix(0.010781,0,0,-0.0108,72,720)"
           id="g41"><g
             transform="translate(3358,456)"
             id="g40"><path
               d="M 0,0 191,58 174,113 54,77 29,160 121,189 104,244 12,215 -27,342 -97,321 Z"
               fill="#005288"
               id="path39" /></g></g><g
           transform="matrix(0.010781,0,0,-0.0108,72,720)"
           id="g43"><g
             transform="translate(3599,533)"
             id="g42"><path
               d="m 0,0 96,43 c 19,8 33,15 42,21 9,6 17,15 24,28 7,12 11,25 11,41 0,16 -4,32 -11,48 -17,38 -43,59 -79,62 L 81,402 7,370 20,230 -14,216 -67,337 -135,307 Z m 45,80 -37,86 29,13 c 27,12 46,3 59,-27 5,-10 6,-19 5,-28 -1,-8 -3,-14 -7,-19 -4,-4 -12,-9 -22,-13 z"
               fill="#005288"
               id="path41" /></g></g><g
           transform="matrix(0.010781,0,0,-0.0108,72,720)"
           id="g45"><g
             transform="translate(3963,714)"
             id="g44"><path
               d="m 0,0 63,39 -96,336 -64,-40 23,-68 -80,-50 -51,50 -58,-36 z M -56,211 -12,76 -112,176 Z"
               fill="#005288"
               id="path43" /></g></g><g
           transform="matrix(0.010781,0,0,-0.0108,72,720)"
           id="g47"><g
             transform="translate(4268,1026)"
             id="g46"><path
               d="m 0,0 -62,-20 c 11,-27 7,-48 -11,-63 -8,-6 -17,-9 -25,-9 -9,1 -16,5 -21,11 -6,7 -8,16 -6,25 3,9 10,24 23,46 12,20 20,37 25,51 4,14 5,28 3,44 -3,15 -10,30 -21,43 -19,25 -44,38 -73,40 -30,2 -58,-8 -87,-31 -47,-38 -58,-86 -32,-145 l 61,26 c -15,32 -11,56 10,74 10,8 21,11 31,11 10,0 19,-4 26,-13 5,-6 7,-13 7,-22 0,-8 -6,-22 -17,-40 -14,-23 -24,-42 -29,-55 -5,-14 -7,-29 -5,-45 3,-16 9,-31 20,-44 19,-24 43,-37 70,-40 27,-2 53,6 78,26 45,37 57,80 35,130"
               fill="#005288"
               id="path45" /></g></g><g
           transform="matrix(0.010781,0,0,-0.0108,72,720)"
           id="g49"><g
             transform="translate(4354,1005)"
             id="g48"><path
               d="M 0,0 147,149 102,193 54,144 -140,336 -192,283 2,92 -45,44 Z"
               fill="#005288"
               id="path47" /></g></g><g
           transform="matrix(0.010781,0,0,-0.0108,72,720)"
           id="g51"><g
             transform="translate(4537,1194)"
             id="g50"><path
               d="m 0,0 65,82 c 13,16 22,29 27,39 5,10 8,22 9,35 0,14 -3,28 -11,42 -7,14 -18,26 -32,37 -33,26 -66,32 -98,18 l -77,140 -50,-63 76,-118 -23,-29 -104,83 -45,-58 z m 3,91 -74,59 20,25 c 18,23 40,24 65,4 9,-7 15,-14 17,-22 3,-8 4,-15 3,-21 -2,-6 -6,-13 -13,-22 z"
               fill="#005288"
               id="path49" /></g></g><g
           transform="matrix(0.010781,0,0,-0.0108,72,720)"
           id="g53"><g
             transform="translate(4721,1436)"
             id="g52"><path
               d="m 0,0 38,63 -165,98 c -23,14 -39,25 -46,32 -8,8 -13,16 -13,26 -1,9 1,19 7,29 7,10 14,17 23,20 9,3 18,3 28,-1 9,-4 25,-12 49,-26 l 164,-98 32,53 -162,96 c -33,19 -58,32 -76,38 -18,5 -37,4 -58,-5 -20,-8 -38,-25 -54,-52 -15,-25 -23,-48 -23,-67 0,-19 6,-36 17,-51 12,-15 36,-34 75,-57 z"
               fill="#005288"
               id="path51" /></g></g><g
           transform="matrix(0.010781,0,0,-0.0108,72,720)"
           id="g55"><g
             transform="translate(4749,1952)"
             id="g54"><path
               d="m 0,0 23,64 c -34,12 -66,13 -95,3 -29,-10 -50,-30 -64,-61 -16,-38 -14,-73 6,-105 19,-32 54,-58 103,-80 50,-21 93,-28 130,-20 37,8 63,31 80,70 27,64 2,116 -75,156 L 77,-33 c 45,-21 62,-45 51,-72 -6,-14 -19,-23 -37,-25 -18,-2 -49,6 -91,24 -38,17 -62,31 -73,45 -11,14 -14,29 -7,44 10,25 37,30 80,17"
               fill="#005288"
               id="path53" /></g></g><g
           transform="matrix(0.010781,0,0,-0.0108,72,720)"
           id="g57"><g
             transform="translate(4983,1964)"
             id="g56"><path
               d="M 0,0 60,200 -1,218 -20,152 -281,230 -302,160 -41,81 -61,18 Z"
               fill="#005288"
               id="path55" /></g></g><g
           transform="matrix(0.010781,0,0,-0.0108,72,720)"
           id="g59"><g
             transform="translate(5056,2217)"
             id="g58"><path
               d="m 0,0 13,72 -189,34 c -27,5 -45,9 -55,13 -10,5 -17,11 -21,20 -4,8 -5,18 -3,29 2,12 7,21 14,28 7,6 16,9 26,8 10,0 28,-2 55,-7 l 189,-33 11,61 -186,32 c -37,7 -65,10 -84,9 -19,-1 -37,-9 -53,-25 -16,-15 -27,-38 -32,-68 -6,-29 -5,-53 2,-71 7,-18 18,-32 34,-42 16,-10 46,-19 90,-27 z"
               fill="#005288"
               id="path57" /></g></g><g
           transform="matrix(0.010781,0,0,-0.0108,72,720)"
           id="g61"><g
             transform="translate(5106,2538)"
             id="g60"><path
               d="m 0,0 4,105 c 1,20 1,36 -1,47 -1,11 -6,22 -14,34 -7,11 -18,20 -32,27 -14,7 -30,11 -48,12 -42,2 -72,-13 -91,-44 l -143,68 -4,-80 131,-50 -2,-37 -132,6 -3,-74 z m -52,76 -94,4 2,32 c 1,29 18,43 50,41 11,0 20,-3 27,-7 7,-5 12,-10 14,-16 2,-6 3,-14 3,-25 z"
               fill="#005288"
               id="path59" /></g></g><g
           transform="matrix(0.010781,0,0,-0.0108,72,720)"
           id="g63"><g
             transform="translate(5112,2842)"
             id="g62"><path
               d="m 0,0 -16,203 -57,-5 10,-129 -78,-6 -8,101 -57,-5 8,-101 -82,-6 -10,130 -60,-5 16,-203 z"
               fill="#005288"
               id="path61" /></g></g><g
           transform="matrix(0.010781,0,0,-0.0108,72,720)"
           id="g65"><g
             transform="translate(1303,4299)"
             id="g64"><path
               d="m 0,0 -59,-27 c 14,-26 12,-47 -4,-63 -7,-8 -15,-12 -24,-12 -9,-1 -16,2 -22,8 -7,6 -10,14 -9,24 1,9 7,25 17,48 9,21 15,39 18,53 3,15 3,29 -2,44 -4,15 -13,29 -26,41 -22,22 -48,32 -77,31 -29,-2 -57,-16 -82,-41 -42,-44 -47,-93 -15,-148 l 58,33 c -19,30 -18,54 1,74 9,9 19,14 29,15 10,1 19,-2 27,-9 6,-6 9,-13 10,-22 1,-8 -3,-22 -12,-41 -11,-25 -19,-44 -22,-59 -4,-14 -3,-29 1,-44 4,-16 13,-30 25,-42 22,-21 46,-31 73,-31 28,1 52,13 75,35 40,42 47,86 20,133"
               fill="#005288"
               id="path63" /></g></g><g
           transform="matrix(0.010781,0,0,-0.0108,72,720)"
           id="g67"><g
             transform="translate(1392,4280)"
             id="g66"><path
               d="m 0,0 158,128 -36,44 -101,-81 -49,60 78,64 -36,44 -78,-63 -52,64 101,81 -38,47 -158,-128 z"
               fill="#005288"
               id="path65" /></g></g><g
           transform="matrix(0.010781,0,0,-0.0108,72,720)"
           id="g69"><g
             transform="translate(1602,4693)"
             id="g68"><path
               d="M 0,0 56,39 C 34,69 9,88 -20,96 c -30,9 -59,4 -88,-14 -35,-22 -53,-51 -55,-89 -3,-37 11,-78 39,-124 28,-46 60,-76 94,-91 35,-14 70,-10 105,12 59,37 69,94 29,170 L 44,-71 c 25,-43 25,-73 0,-88 -13,-8 -28,-8 -44,1 -16,9 -36,33 -61,72 -21,35 -33,61 -34,78 -1,18 5,31 20,40 22,14 48,3 75,-32"
               fill="#005288"
               id="path67" /></g></g><g
           transform="matrix(0.010781,0,0,-0.0108,72,720)"
           id="g71"><g
             transform="translate(1808,4566)"
             id="g70"><path
               d="m 0,0 67,30 -78,175 c -11,24 -18,42 -20,53 -2,10 -1,20 4,28 5,8 13,14 23,19 11,5 21,6 30,4 9,-3 17,-9 22,-17 6,-8 14,-25 25,-50 l 78,-174 56,25 -76,172 c -16,34 -29,59 -41,74 -11,15 -28,25 -49,30 -22,5 -47,1 -75,-12 -27,-12 -46,-26 -57,-41 -11,-16 -16,-33 -16,-52 1,-19 10,-49 29,-89 z"
               fill="#005288"
               id="path69" /></g></g><g
           transform="matrix(0.010781,0,0,-0.0108,72,720)"
           id="g73"><g
             transform="translate(2071,4679)"
             id="g72"><path
               d="m 0,0 101,29 c 20,6 34,11 44,16 10,5 19,13 28,24 8,11 13,24 15,40 2,15 1,32 -4,49 -12,40 -35,64 -70,71 L 132,387 55,365 49,225 14,215 -23,342 -94,321 Z m 55,72 -26,90 31,9 c 28,8 46,-3 55,-34 3,-10 4,-20 2,-28 -2,-8 -6,-14 -11,-18 -4,-4 -12,-7 -22,-10 z"
               fill="#005288"
               id="path71" /></g></g><g
           transform="matrix(0.010781,0,0,-0.0108,72,720)"
           id="g75"><g
             transform="translate(2332,4748)"
             id="g74"><path
               d="M 0,0 73,14 11,343 -61,329 Z"
               fill="#005288"
               id="path73" /></g></g><g
           transform="matrix(0.010781,0,0,-0.0108,72,720)"
           id="g77"><g
             transform="translate(2428,4768)"
             id="g76"><path
               d="M 0,0 207,21 201,84 133,77 104,347 31,339 60,69 -7,62 Z"
               fill="#005288"
               id="path75" /></g></g><g
           transform="matrix(0.010781,0,0,-0.0108,72,720)"
           id="g79"><g
             transform="translate(2640,4791)"
             id="g78"><path
               d="m 0,0 81,-1 48,122 50,-123 h 72 l -92,194 2,141 -74,1 -1,-142 z"
               fill="#005288"
               id="path77" /></g></g><g
           transform="matrix(0.010781,0,0,-0.0108,72,720)"
           id="g81"><g
             transform="translate(3055,4767)"
             id="g80"><path
               d="m 0,0 73,-13 150,314 -74,13 -28,-66 -93,16 -4,71 -67,11 z M 98,194 42,65 33,205 Z"
               fill="#005288"
               id="path79" /></g></g><g
           transform="matrix(0.010781,0,0,-0.0108,72,720)"
           id="g83"><g
             transform="translate(3399,4847)"
             id="g82"><path
               d="m 0,0 111,-34 53,170 -30,10 -20,-34 c -9,33 -30,55 -65,65 -36,12 -70,6 -100,-16 -30,-22 -52,-57 -67,-106 -16,-52 -19,-97 -7,-134 11,-37 37,-62 79,-75 65,-20 113,5 144,76 l -60,30 c -18,-41 -39,-57 -65,-49 -16,5 -26,16 -31,35 -5,18 0,49 13,92 12,38 25,64 39,76 14,13 30,17 48,11 28,-9 36,-34 23,-76 L 17,55 Z"
               fill="#005288"
               id="path81" /></g></g><g
           transform="matrix(0.010781,0,0,-0.0108,72,720)"
           id="g85"><g
             transform="translate(3513,4643)"
             id="g84"><path
               d="m 0,0 185,-85 24,52 -118,54 32,71 92,-42 24,52 -92,42 34,75 119,-54 24,54 -185,85 z"
               fill="#005288"
               id="path83" /></g></g><g
           transform="matrix(0.010781,0,0,-0.0108,72,720)"
           id="g87"><g
             transform="translate(3725,4544)"
             id="g86"><path
               d="M 0,0 69,-43 252,88 142,-89 191,-118 367,166 311,201 97,48 224,254 176,284 Z"
               fill="#005288"
               id="path85" /></g></g><g
           transform="matrix(0.010781,0,0,-0.0108,72,720)"
           id="g89"><g
             transform="translate(4222,4453)"
             id="g88"><path
               d="m 0,0 55,-39 c 21,29 31,59 30,90 -2,31 -16,57 -42,78 -32,26 -65,34 -101,25 -37,-10 -72,-36 -106,-77 -34,-42 -52,-82 -55,-119 -3,-37 12,-69 44,-96 54,-44 111,-35 171,28 l -49,46 c -33,-37 -61,-47 -84,-28 -11,10 -16,24 -13,42 4,18 20,45 49,81 26,31 47,51 64,57 16,7 30,5 43,-6 C 27,65 25,38 0,0"
               fill="#005288"
               id="path87" /></g></g><g
           transform="matrix(0.010781,0,0,-0.0108,72,720)"
           id="g91"><g
             transform="translate(4135,4250)"
             id="g90"><path
               d="m 0,0 56,-58 121,50 -53,-121 49,-52 75,201 103,98 -51,53 -102,-98 z"
               fill="#005288"
               id="path89" /></g></g><g
           transform="matrix(0.010781,0,0,-0.0108,72,720)"
           id="g93"><g
             transform="translate(2745,812)"
             id="g92"><path
               d="m 0,0 c -1068,0 -1933,865 -1933,1933 0,503 192,960 506,1304 l 5,-64 c -300,-344 -464,-779 -464,-1240 0,-504 196,-978 552,-1334 C -977,243 -504,47 0,47 c 504,0 978,196 1334,552 356,356 552,830 552,1334 0,504 -196,978 -552,1334 -356,356 -830,552 -1334,552 -458,0 -892,-162 -1235,-460 l -34,33 c 340,295 784,474 1269,474 1068,0 1933,-865 1933,-1933 C 1933,865 1068,0 0,0"
               fill="#c41230"
               id="path91" /></g></g><g
           transform="matrix(0.010781,0,0,-0.0108,72,720)"
           id="g95"><g
             transform="translate(618,3247)"
             id="g94"><path
               d="m 0,0 -47,15 c 67,283 189,547 353,777 l 42,-27 C 186,538 66,279 0,0 m 4254,0 c -66,279 -186,538 -348,765 l 42,27 C 4112,562 4234,298 4301,15 Z"
               fill="#0078ae"
               id="path93" /></g></g><g
           transform="matrix(0.010781,0,0,-0.0108,72,720)"
           id="g97"><g
             transform="translate(508,3281)"
             id="g96"><path
               d="m 0,0 -48,15 c 71,295 198,568 368,807 l 41,-27 C 194,559 69,290 0,0 m 4474,0 c -69,290 -193,559 -361,795 l 41,27 C 4324,583 4451,310 4522,15 Z"
               fill="#0078ae"
               id="path95" /></g></g><g
           transform="matrix(0.010781,0,0,-0.0108,72,720)"
           id="g99"><g
             transform="translate(724,3214)"
             id="g98"><path
               d="m 0,0 -48,15 c 65,274 182,527 341,749 l 41,-27 C 178,519 62,269 0,0 m 4042,0 c -62,269 -177,519 -334,737 l 41,27 C 3908,542 4025,289 4090,15 Z"
               fill="#0078ae"
               id="path97" /></g></g><g
           transform="matrix(0.010781,0,0,-0.0108,72,720)"
           id="g101"><g
             transform="translate(2981,3457)"
             id="g100"><path
               d="m 0,0 173,85 v 135 c -197,6 -398,52 -537,104 -62,-73 -119,-150 -169,-232 h 115 l 22,-370 h 107 l 22,370 h 82 V 0 L 0,90 Z m -123,385 c -22,0 -39,22 -39,50 v 87 c 26,22 52,43 79,63 V 435 c 0,-28 -18,-50 -40,-50 M 49,334 C 27,334 9,356 9,384 v 265 c 26,17 53,33 80,49 V 384 C 89,356 71,334 49,334 m 143,419 c 21,10 42,20 63,29 4,-1 8,-3 12,-5 v -968 c 0,-1 1,-2 2,-2 h 17 c 1,0 2,1 2,2 v 958 c 24,-11 47,-23 70,-35 v -971 c 0,-1 1,-2 2,-2 h 17 c 1,0 2,1 2,2 v 960 c 24,-13 47,-26 70,-40 v -872 c 0,-1 1,-2 2,-2 h 17 c 1,0 2,1 2,2 v 859 c 28,-17 56,-35 83,-54 V -346 H 192 Z m 610,-893 -52,-1 v -73 c 0,-4 -1,-8 -4,-12 -4,-7 -11,-11 -19,-11 -8,0 -15,4 -19,11 -2,4 -4,8 -4,12 v 74 h -52 v 90 H 571 V 601 C 689,515 796,416 888,306 V -50 h -86 z m 105,423 c 50,-60 95,-124 136,-191 V 29 H 907 Z M 717,-975 h -82 l 41,-135 z m 0,0 h -82 l 41,-135 z m 587,-260 v 401 c 0,41 -2,82 -5,122 H -546 c 66,-84 102,-188 102,-296 0,-98 -30,-189 -80,-266 228,-32 530,-68 778,-70 h 38 c 465,0 863,76 1012,109 m -1553,219 c 0,-84 24,-126 71,-126 41,0 62,27 64,82 l 94,-6 c -11,-100 -63,-150 -156,-150 -54,0 -96,19 -127,56 -31,37 -46,85 -46,143 0,62 16,111 48,146 32,35 73,53 124,53 42,0 77,-12 106,-36 29,-24 46,-60 51,-106 l -87,-5 c -8,49 -31,73 -69,73 -23,0 -41,-9 -53,-26 -13,-17 -20,-50 -20,-98 m 373,-194 H 33 v 386 h 91 z m 362,263 c 0,-23 -6,-43 -18,-61 -13,-18 -28,-31 -46,-39 -19,-8 -48,-16 -87,-24 -23,-5 -38,-10 -45,-17 -7,-6 -10,-14 -10,-23 0,-23 18,-35 53,-35 34,0 56,15 66,46 l 77,-26 c -22,-60 -70,-91 -146,-91 -43,0 -76,12 -101,36 -25,23 -38,52 -38,87 0,34 11,59 31,77 21,18 56,31 105,42 27,5 45,11 54,17 9,6 14,15 14,26 0,12 -6,21 -16,29 -10,8 -25,12 -46,12 -43,0 -69,-18 -78,-54 l -84,19 c 9,36 27,62 55,80 28,18 61,27 101,27 52,0 92,-12 119,-38 27,-26 40,-56 40,-90 m 373,123 -121,-386 H 634 l -124,386 h 79 l 24,-79 h 125 l 24,79 z m -183,-286 41,135 h -82 z m 41,135 h -82 l 41,-135 z m 0,0 h -82 l 41,-135 z"
               fill="#0078ae"
               id="path99" /></g></g><g
           transform="matrix(0.010781,0,0,-0.0108,72,720)"
           id="g103"><g
             transform="translate(2714,3233)"
             id="g102"><path
               d="m 0,0 -2,-31 c 24,48 64,87 114,109 -2,5 -3,9 -4,13 C 63,72 26,40 0,0 m 442,-140 c -6,-128 -111,-229 -239,-229 -133,0 -241,107 -241,240 0,19 3,38 7,56 h 14 c -4,-18 -7,-37 -7,-56 0,-125 102,-227 227,-227 125,0 226,102 226,227 0,92 -55,171 -134,207 1,4 2,9 4,13 74,-32 128,-101 141,-183 v -49 h 2 z m -47,11 c 0,-106 -86,-193 -192,-193 -107,0 -193,87 -193,193 0,77 45,144 111,174 l 4,-13 C 66,3 24,-58 24,-129 c 0,-99 80,-179 179,-179 98,0 178,80 178,179 0,70 -41,131 -100,160 l 4,14 c 65,-31 110,-97 110,-174 m -37,0 c 0,-85 -70,-155 -155,-155 -86,0 -155,70 -155,155 0,60 34,112 84,138 2,-5 3,-10 4,-15 -43,-24 -73,-70 -73,-123 0,-77 62,-140 140,-140 77,0 140,63 140,140 0,53 -30,99 -73,123 1,4 3,9 4,14 50,-26 84,-77 84,-137 m -31,0 c 0,-69 -56,-125 -124,-125 -69,0 -125,56 -125,125 0,46 25,86 63,108 l 4,-15 c -31,-20 -51,-54 -51,-93 0,-60 49,-109 109,-109 60,0 109,49 109,109 0,39 -20,73 -51,92 l 5,15 c 36,-21 61,-61 61,-107 m -50,0 c 0,-43 -33,-78 -74,-78 -42,0 -75,35 -75,78 0,24 10,45 27,60 2,-6 3,-12 5,-18 -10,-11 -16,-26 -16,-42 0,-34 26,-62 59,-62 32,0 59,28 59,62 0,16 -6,30 -16,41 2,6 4,12 5,18 16,-15 26,-36 26,-59 m 26,0 c 0,-55 -45,-100 -100,-100 -56,0 -101,45 -101,100 0,35 19,66 46,84 2,-6 3,-11 5,-16 -21,-16 -34,-40 -34,-68 0,-46 37,-84 84,-84 46,0 84,38 84,84 0,27 -13,51 -33,67 2,5 3,11 5,16 26,-18 44,-48 44,-83 m 760,-288 h -10 c 30,90 47,187 47,288 0,67 -7,131 -21,194 h 9 v 8 c 15,-65 22,-133 22,-202 0,-101 -16,-197 -47,-288 m 237,0 h -10 c 24,92 37,188 37,288 0,127 -21,249 -60,363 h 10 c 39,-114 60,-236 60,-363 0,-99 -13,-196 -37,-288 m -430,0 h -12 c 39,88 61,186 61,288 0,101 -22,197 -59,285 h 11 c 12,-27 22,-55 30,-83 v -8 h 2 c 17,-62 27,-127 27,-194 0,-102 -22,-200 -60,-288 m -1220,430 -9,10 c 28,106 87,201 166,274 h 17 C -260,223 -321,125 -350,13 M 695,-417 c 48,81 76,176 78,277 h 11 c -2,-101 -29,-195 -76,-277 z m -985,0 h -13 c -10,17 -18,34 -26,52 v 30 c 11,-29 24,-56 39,-82 m 575,0 H 120 c -125,36 -217,151 -217,288 0,19 2,38 6,56 h 13 c -4,-18 -6,-37 -6,-56 0,-158 129,-287 287,-287 154,0 280,123 286,275 h 13 C 497,-272 407,-382 285,-417 M 91,149 c 1,-4 2,-9 4,-13 C 61,122 31,102 5,78 l 1,18 c 25,22 53,40 85,53 m 221,-13 c 1,4 2,8 4,12 49,-20 92,-53 124,-95 V 31 c -31,46 -76,83 -128,105 m 21,72 c 1,4 2,8 4,12 37,-15 72,-36 103,-61 v -16 c -31,27 -67,49 -107,65 M 11,191 c 17,11 34,19 53,27 V 204 C 45,196 27,187 10,176 Z m -182,-320 c 0,43 7,84 21,122 l 2,-36 c -7,-28 -11,-56 -11,-86 0,-117 57,-222 144,-288 h -20 c -83,69 -136,172 -136,288 m 735,-11 h 12 c -3,-112 -55,-211 -135,-277 h -21 c 85,64 140,164 144,277 m -10,-277 c 62,76 100,172 103,277 h 12 c -3,-105 -40,-200 -100,-277 z m -806,288 c 0,-109 39,-210 104,-288 h -16 c -62,79 -100,179 -100,288 0,111 39,212 104,292 l 1,-18 c -58,-76 -93,-171 -93,-274 M 18,297 H 46 C 36,294 26,290 17,286 Z m 394,-23 13,7 15,-9 v -14 c -9,6 -18,11 -28,16"
               fill="#5e9732"
               id="path101" /></g></g></g></g></g></svg>
