<?xml version="1.0" encoding="UTF-8" standalone="no"?>
<!-- Generator: Adobe Illustrator 24.3.0, SVG Export Plug-In . SVG Version: 6.00 Build 0)  -->

<svg
   version="1.1"
   id="Layer_1"
   x="0px"
   y="0px"
   viewBox="0 0 128 128"
   xml:space="preserve"
   sodipodi:docname="Seal_of_the_U.S._Department_of_Homeland_Security2.svg"
   inkscape:version="1.4.2 (f4327f4, 2025-05-13)"
   width="128"
   height="128"
   xmlns:inkscape="http://www.inkscape.org/namespaces/inkscape"
   xmlns:sodipodi="http://sodipodi.sourceforge.net/DTD/sodipodi-0.dtd"
   xmlns="http://www.w3.org/2000/svg"
   xmlns:svg="http://www.w3.org/2000/svg"><defs
   id="defs108" /><sodipodi:namedview
   id="namedview108"
   pagecolor="#ffffff"
   bordercolor="#000000"
   borderopacity="0.25"
   inkscape:showpageshadow="2"
   inkscape:pageopacity="0.0"
   inkscape:pagecheckerboard="0"
   inkscape:deskcolor="#d1d1d1"
   inkscape:zoom="1.425"
   inkscape:cx="300"
   inkscape:cy="300"
   inkscape:window-width="1920"
   inkscape:window-height="1057"
   inkscape:window-x="1912"
   inkscape:window-y="-8"
   inkscape:window-maximized="1"
   inkscape:current-layer="Layer_1" />
<style
   type="text/css"
   id="style1">
	.st0{fill:#FFFFFF;}
	.st1{fill:#C41230;}
	.st2{fill:#C0C2C4;}
	.st3{fill:#005288;}
	.st4{fill:#0078AE;}
	.st5{fill:#5E9732;}
</style>
<g
   id="g108"
   transform="matrix(0.10666667,0,0,0.10666667,31.957333,32)">
	<g
   id="g107">
		
			<circle
   transform="matrix(0.7071,-0.7071,0.7071,0.7071,-124.141,300.2958)"
   class="st0"
   cx="300.39999"
   cy="300"
   id="ellipse1"
   r="300" />
		<g
   id="g2">
			<path
   class="st1"
   d="m 482.7,192.2 c -3.4,1.2 -6.7,2.1 -10,2.8 18.7,30.6 29.4,66.5 29.4,105 0,111.4 -90.3,201.7 -201.7,201.7 C 189,501.7 98.7,411.4 98.7,300 c 0,-40.1 11.7,-77.5 31.9,-109 -3.2,-0.9 -6.4,-2.2 -9.5,-3.6 -20.4,32.6 -32.3,71.2 -32.3,112.6 0,116.9 94.8,211.7 211.7,211.7 116.9,0 211.7,-94.8 211.7,-211.7 -0.1,-39.4 -10.8,-76.2 -29.5,-107.8 z"
   id="path1" />
			<path
   class="st1"
   d="m 183.2,135.9 c 33,-23.7 73.5,-37.6 117.3,-37.6 48.8,0 93.6,17.4 128.5,46.3 3.9,-1.1 7.8,-2.1 11.7,-3.1 -37.3,-33.1 -86.4,-53.1 -140.2,-53.1 -48.2,0 -92.7,16.1 -128.3,43.3 1.7,0.6 3.4,1.2 5.1,1.9 2,0.7 4,1.5 5.9,2.3 z"
   id="path2" />
		</g>
		<path
   class="st2"
   d="M 300.4,0 C 134.7,0 0.4,134.3 0.4,300 c 0,165.7 134.3,300 300,300 165.7,0 300,-134.3 300,-300 C 600.4,134.3 466.1,0 300.4,0 Z m 0,581.4 C 145,581.4 19,455.4 19,300 19,144.6 145,18.6 300.4,18.6 c 155.4,0 281.4,126 281.4,281.4 0,155.4 -126,281.4 -281.4,281.4 z"
   id="path3" />
		<g
   id="g7">
			<path
   class="st3"
   d="m 228,239.8 c -4.3,-2.2 -8,-4.7 -12,-8.4 -12.9,-11.7 -15.9,-24.1 -12.1,-38.2 2.3,-8.4 5.7,-12.7 4.5,-21.5 -0.7,-5 -4.2,-9.1 -7.8,-12.5 -8.6,-8.3 -18.8,-13.4 -33.9,-18.5 -9.3,-3.1 -36.4,-11.5 -48.3,-22.4 -2.7,7.9 3.1,18.5 10,19.9 -6.1,0.6 -11.3,3.8 -13.7,7.2 4.6,5.3 13.8,10.9 21.4,11 -3.5,2.3 -7.8,7.3 -9.2,10.1 6.6,3.5 17,6.4 25,5.9 -3.4,2.7 -6.3,6.1 -8.2,9.3 5.4,2.5 16,6.1 26.1,6.8 -3.7,1.8 -9,8.2 -11.7,12.1 5.7,2.5 17.9,4.1 25.5,4.8 -5.4,2.9 -11.1,8.6 -14.3,13.8 5.5,2.6 15.9,5.6 24.4,5.3 -4.2,4 -6.9,8.9 -8.5,13.6 6.4,1.3 13.2,1.3 21,0.3 -4.8,6 -6.7,14 -7.3,19.6 6.4,-0.2 14.8,-1.6 20.8,-5.2 -1.3,4.9 -1,11.4 1.1,16.1 2.5,-0.6 5.4,-1.6 8.6,-3.3 -0.7,-8.9 -1.1,-18.1 -1.4,-25.8 z"
   id="path4" />
			<path
   class="st3"
   d="m 486.5,133 c -12,10.8 -31.1,13.7 -51.1,20.3 -15.1,5 -24.5,7.9 -38,18.7 -3.9,3.1 -7.5,7.6 -7.1,15.4 0.5,8.6 1.9,12.4 2.1,24.4 0.2,8.6 -2.8,15.5 -6.4,19.6 -3.8,4.3 -8.8,8.1 -13.2,10.4 -0.3,7.3 -0.6,14.7 -1,23.3 3.1,1.7 7.2,3.3 9.7,3.9 2.1,-4.6 2.4,-11.2 1.1,-16.1 6,3.6 14.4,5 20.8,5.2 -0.7,-5.7 -2.6,-13.6 -7.3,-19.6 7.8,1 14.6,1 21,-0.3 -1.6,-4.7 -4.3,-9.6 -8.5,-13.6 8.5,0.3 18.9,-2.7 24.4,-5.3 -3.1,-5.2 -8.8,-10.9 -14.3,-13.8 7.6,-0.8 20.2,-2.2 25.9,-4.8 -2.7,-3.9 -8.4,-10.3 -12.1,-12.1 10.1,-0.7 20.6,-4.4 26.1,-6.8 -1.9,-3.1 -4.8,-6.6 -8.2,-9.3 9.4,-0.6 18.5,-2.4 25,-5.9 -1.4,-2.8 -5.7,-7.8 -9.2,-10.1 20,-5.5 20.3,-15.6 20.3,-23.5 z"
   id="path5" />
			<path
   class="st3"
   d="M 401.5,154.4 C 372.8,134.5 338,122.8 300.4,122.8 c -34.2,0 -66.2,9.7 -93.3,26.5 7,5.5 11.2,11.2 12.2,17.2 0.9,5.3 1.5,11.6 -1.5,20.8 -3.2,9.8 -5,19.9 2.3,30.1 7.2,10.2 16.6,14.6 24.3,16.1 v 0 c 10.2,-1.8 21.4,-3.2 32.6,-4.1 v 0 c 1.5,-4.7 5.8,-8.9 10.1,-12.2 6.3,-4.9 4.9,-9.2 3.4,-12.5 -1.2,-2.6 -3.4,-4.7 -6.7,-6.4 -2.8,-1.5 -13.2,-2.5 -13,4.1 -1.7,-2.4 -3.1,-5.7 -2.1,-9.8 1.4,-5.8 10.9,-7.3 13.2,-7.1 -1.8,-1.5 -0.7,-4 3.5,-5.2 5,-1.4 9.8,-1.6 14.4,-1.5 9.5,0.2 11,2.6 15.8,6.8 5.8,5.2 13.5,6.9 16.5,3.8 -2.2,4.9 -9.1,7.6 -13.5,6.8 2.2,6.8 2.9,12.8 3.7,20 0.4,3.3 1,8.8 1.9,13.2 12.7,1.1 25.5,2.8 36.7,4.9 v 0 c 4.6,-1.4 9.4,-4.1 13.7,-9 4.1,-4.7 7.8,-10.7 6.3,-25.7 -0.4,-4.2 -2.6,-15.1 -2.3,-20.1 0.9,-11.5 9.4,-19 22.9,-25.1 z"
   id="path6" />
			<path
   class="st3"
   d="m 283.7,186 c 1.8,1.3 2.8,1.5 3.4,1.4 0,0.3 0.6,0.7 0.8,0.9 0.4,0.3 0.6,0.6 0.7,1 0.8,-0.3 2.9,-1.2 4.8,-1.9 2,-0.7 4.7,-1.5 4.7,-1.5 -8.5,-1.8 -9.8,0.8 -14.4,0.1 z"
   id="path7" />
		</g>
		<g
   id="g37">
			<g
   id="g14">
				<g
   id="g8">
					<path
   class="st0"
   d="m 300.4,389.2 h -1.9 c -0.9,-6 -5.3,-9.7 -11.6,-11.6 -4.8,-1.5 -11.8,-3.8 -26.7,-8.3 -17.3,-5.3 -26.1,-19.2 -27.3,-36.7 -1.7,-24.7 -4.2,-68 -5.1,-95.6 19.5,-4.8 48.2,-8.6 72.5,-8.6 24.2,0 53,3.8 72.5,8.6 -0.9,27.6 -3.4,70.9 -5.1,95.6 -1.2,17.5 -10,31.4 -27.3,36.7 -14.9,4.6 -21.9,6.8 -26.7,8.3 -6.3,1.9 -10.7,5.6 -11.6,11.6 h -1.7"
   id="path8" />
				</g>
				<path
   class="st4"
   d="m 295.5,326.2 -3.5,-1.8 -2.3,-6 -5.2,-2.3 -5.8,-5.2 -3.5,3.8 -5.2,1.3 -2.7,4.4 -4.2,4.4 -5.7,3 -3.9,6.6 -2.2,2.9 -3.8,3 -2.1,-2.2 -2.2,2.2 -2.8,5.2 c -1.5,-3.9 -2.4,-6.9 -2.9,-13.2 -0.8,-11.6 -1.7,-26.1 -2.5,-41 19.1,-4.1 43.5,-6.9 63.2,-7 v 45.2 c -0.9,-0.7 -1.8,-1.1 -2.7,-3.3 z"
   id="path9" />
				<path
   class="st5"
   d="m 298.2,347.9 h -56.9 c 0.8,1.8 1.8,3.4 2.9,4.9 4.1,5.7 9.9,10 17.3,12.3 10,3.1 16.4,5.1 21.1,6.6 l 5.6,1.7 c 4.6,1.4 7.7,3.4 10,5.7 z"
   id="path10" />
				<path
   class="st3"
   d="m 358.3,326 c 1.6,-1.2 3.3,-2.7 5.7,-3.6 0.3,-5.3 0.7,-11 1,-16.8 -0.6,0.4 -1.3,0.9 -2.1,1.6 -2.7,2.2 -6.1,4.9 -12.1,4.9 -5.6,0 -9.2,-2.2 -12.1,-4 -2.4,-1.5 -4.3,-2.6 -7,-2.6 -3.1,0 -5.7,1.6 -8.5,3.3 -3,1.8 -6.4,3.9 -10.6,3.9 -4.3,0 -7.4,-1.3 -9.9,-2.7 v 16 c 0.6,0.3 1.1,0.7 1.7,1 2.5,1.6 4.8,2.9 8.3,2.9 2.2,0 4.3,-1.3 6.8,-2.8 3.4,-2 7.2,-4.3 12.3,-4.3 4.8,0 8.1,2 10.9,3.7 2.5,1.6 4.7,2.9 8.3,2.9 3.2,-0.1 5,-1.6 7.3,-3.4 z"
   id="path11" />
				<path
   class="st3"
   d="m 312.5,362.3 c -4.3,0 -7.4,-1.3 -9.9,-2.7 v 19.5 c 2.2,-2.3 5.4,-4.3 10,-5.7 l 5.6,-1.7 c 4.7,-1.5 11,-3.5 21.1,-6.6 2.9,-0.9 5.6,-2.1 8,-3.6 -3.7,-0.7 -6.3,-2.3 -8.6,-3.7 -2.4,-1.5 -4.3,-2.6 -7,-2.6 -3.1,0 -5.7,1.6 -8.5,3.3 -3,1.8 -6.5,3.8 -10.7,3.8 z"
   id="path12" />
				<path
   class="st4"
   d="m 358.3,301.4 c 1.9,-1.5 4.1,-3.3 7.2,-4 0.1,-2 0.2,-4.1 0.4,-6.2 -19.1,-4.1 -43.5,-6.8 -63.2,-7 v 17.1 c 0.6,0.3 1.1,0.7 1.7,1 2.5,1.6 4.8,2.9 8.3,2.9 2.2,0 4.3,-1.3 6.8,-2.8 3.4,-2 7.2,-4.3 12.3,-4.3 4.8,0 8.1,2 10.9,3.7 2.5,1.6 4.7,2.9 8.3,2.9 3.2,0 5,-1.4 7.3,-3.3 z"
   id="path13" />
				<path
   class="st4"
   d="M 302.6,334.4 V 351 c 0.6,0.3 1.1,0.7 1.7,1 2.5,1.6 4.8,2.9 8.3,2.9 2.2,0 4.3,-1.3 6.8,-2.8 3.4,-2 7.2,-4.3 12.3,-4.3 4.8,0 8.1,2 10.9,3.7 2.5,1.6 4.7,2.9 8.3,2.9 2.7,0 4.4,-1 6.2,-2.3 3.6,-5.4 5.8,-12.1 6.3,-19.9 0,-0.3 0,-0.7 0.1,-1 -0.2,0.1 -0.3,0.2 -0.5,0.4 -2.7,2.2 -6.1,4.9 -12.1,4.9 -5.6,0 -9.2,-2.2 -12.1,-4 -2.4,-1.5 -4.3,-2.6 -7,-2.6 -3.1,0 -5.7,1.6 -8.5,3.3 -3,1.8 -6.4,3.8 -10.6,3.8 -4.4,0.1 -7.6,-1.2 -10.1,-2.6 z"
   id="path14" />
			</g>
			<g
   id="g36">
				<path
   class="st3"
   d="m 234.7,286.9 c -0.9,-16.6 -1.7,-33.3 -2.2,-46.5 20.2,-4.6 46.9,-7.6 67.8,-7.6 21,0 47.7,3 67.9,7.6 -0.5,13.2 -1.3,29.9 -2.2,46.5 -19,-4 -44.1,-7 -65.7,-7 -21.4,0 -46.6,3 -65.6,7 z"
   id="path15" />
				<polygon
   class="st0"
   points="254.4,244.9 251.7,247.3 253.5,250.5 250.4,248.6 248,251.3 248.7,247.8 245.4,246.3 249,245.9 249.4,242.2 250.9,245.6 "
   id="polygon15" />
				<polygon
   class="st0"
   points="266.3,240 267.7,243.4 271.2,242.8 268.4,245.2 270.1,248.4 267,246.4 264.5,249 265.4,245.5 262.2,243.8 265.8,243.6 "
   id="polygon16" />
				<polygon
   class="st0"
   points="283.4,238.5 284.5,242 288.1,241.6 285.2,243.8 286.7,247.1 283.8,245 281.1,247.5 282.2,244 279,242.2 282.6,242.1 "
   id="polygon17" />
				<polygon
   class="st0"
   points="300.5,238 301.4,241.5 305,241.3 302,243.3 303.3,246.8 300.5,244.5 297.7,246.8 299,243.3 295.9,241.3 299.5,241.5 "
   id="polygon18" />
				<polygon
   class="st0"
   points="351.9,245.9 355.5,246.3 352.2,247.8 353,251.4 350.6,248.7 347.4,250.5 349.2,247.3 346.5,244.9 350.1,245.6 351.6,242.3 "
   id="polygon19" />
				<polygon
   class="st0"
   points="335.5,245.5 336.4,249 333.9,246.4 330.8,248.4 332.5,245.2 329.7,242.8 333.3,243.4 334.6,240 335.1,243.6 338.8,243.8 "
   id="polygon20" />
				<polygon
   class="st0"
   points="318.8,244 319.9,247.5 317.2,245 314.3,247.1 315.8,243.8 312.8,241.6 316.5,242 317.6,238.6 318.3,242.1 322,242.2 "
   id="polygon21" />
				<polygon
   class="st0"
   points="256.9,271.8 254.2,274.2 255.9,277.4 252.8,275.5 250.4,278.2 251.2,274.6 247.8,273.1 251.5,272.8 251.9,269.1 253.3,272.5 "
   id="polygon22" />
				<polygon
   class="st0"
   points="268.2,267.1 269.5,270.5 273.1,269.9 270.3,272.2 271.9,275.5 268.9,273.5 266.3,276.1 267.2,272.5 264,270.9 267.6,270.7 "
   id="polygon23" />
				<polygon
   class="st0"
   points="284.6,265.7 285.7,269.2 289.3,268.8 286.4,271 287.9,274.3 284.9,272.2 282.3,274.7 283.4,271.2 280.2,269.3 283.8,269.3 "
   id="polygon24" />
				<polygon
   class="st0"
   points="301,265.3 302,268.8 305.6,268.6 302.5,270.6 303.8,274 301,271.7 298.2,274 299.5,270.6 296.5,268.6 300.1,268.8 "
   id="polygon25" />
				<polygon
   class="st0"
   points="350.6,273 354.2,273.3 350.9,274.8 351.7,278.4 349.2,275.7 346.1,277.6 347.9,274.4 345.2,271.9 348.8,272.7 350.2,269.3 "
   id="polygon26" />
				<polygon
   class="st0"
   points="334.8,272.7 335.7,276.2 333.2,273.6 330.1,275.6 331.8,272.4 329,270 332.6,270.6 333.9,267.2 334.4,270.8 338.1,271 "
   id="polygon27" />
				<polygon
   class="st0"
   points="318.7,271.2 319.8,274.7 317.1,272.3 314.2,274.4 315.7,271.1 312.8,268.9 316.4,269.3 317.5,265.8 318.2,269.4 321.9,269.4 "
   id="polygon28" />
				<polygon
   class="st0"
   points="264.9,256 262.2,258.4 263.9,261.6 260.8,259.7 258.3,262.3 259.2,258.8 255.9,257.2 259.5,256.9 260,253.3 261.4,256.7 "
   id="polygon29" />
				<polygon
   class="st0"
   points="248.8,258.3 246.2,260.8 248,264 244.8,262.1 242.4,264.9 243.2,261.3 239.8,259.8 243.4,259.4 243.8,255.8 245.3,259.1 "
   id="polygon30" />
				<polygon
   class="st0"
   points="276.3,251.6 277.5,255 281.1,254.6 278.2,256.8 279.8,260.1 276.8,258 274.2,260.6 275.2,257.1 272,255.3 275.6,255.2 "
   id="polygon31" />
				<polygon
   class="st0"
   points="292.6,250.7 293.7,254.2 297.3,253.9 294.3,256 295.7,259.4 292.8,257.1 290.1,259.5 291.3,256.1 288.1,254.2 291.8,254.2 "
   id="polygon32" />
				<polygon
   class="st0"
   points="309.1,250.7 309.9,254.3 313.5,254.2 310.4,256.1 311.6,259.6 308.9,257.2 306,259.4 307.4,256 304.4,253.9 308,254.2 "
   id="polygon33" />
				<polygon
   class="st0"
   points="358.3,259.5 361.9,260 358.5,261.4 359.2,265 356.9,262.3 353.7,264 355.6,260.9 352.9,258.4 356.4,259.2 358,255.9 "
   id="polygon34" />
				<polygon
   class="st0"
   points="342.5,258.9 343.4,262.5 340.9,259.8 337.8,261.7 339.5,258.5 336.7,256.1 340.3,256.8 341.7,253.4 342.2,257 345.8,257.3 "
   id="polygon35" />
				<polygon
   class="st0"
   points="326.5,257.1 327.5,260.7 324.9,258.1 321.9,260.2 323.4,256.9 320.6,254.6 324.2,255.1 325.4,251.7 326.1,255.3 329.7,255.4 "
   id="polygon36" />
			</g>
		</g>
		<path
   class="st3"
   d="m 491.2,324.6 -14.7,4.5 3.3,1.4 -5.1,3.3 c 0.6,-3 1.1,-6 1.5,-9.1 l 8.1,-6.7 0.2,3.6 9.1,-12.4 -14,6.4 3.5,0.9 -6.4,5.4 c 0.5,-3.7 0.8,-7.4 1,-11.2 l 7.9,-8.8 0.7,3.5 7.3,-13.5 -13,8.2 3.6,0.4 -6.3,6.8 c 0.1,-2.3 0.2,-4.7 0.2,-7 0,-17.7 -2.6,-34.8 -7.4,-50.9 -8,0.7 -16.1,-1.8 -19.9,-2.6 10.3,6 13.9,12.6 15.4,20 -8.2,1.9 -19.2,-0.9 -25.2,-5.6 5.9,5.2 9.6,13.2 9.9,21.6 -8.5,0.4 -16.3,-3.6 -22.1,-9.3 3.7,4.1 8.4,14.5 7.3,21.9 -7.1,-0.8 -15.4,-5.4 -19.9,-10.9 3.7,8.3 5.5,15 5.1,22.4 -7.1,-1.3 -12.4,-3.3 -18.7,-9.3 3,7.6 4.2,15.2 3.5,21.4 -8.1,-2.9 -13.5,-6.1 -18.1,-13.8 2.4,6.7 4,15.6 2.3,20.8 -6.9,-2.1 -11.4,-6.2 -15,-13.2 3.5,7.5 3.1,16.1 1.9,20.6 -2.9,-0.6 -6.6,-2.6 -8.7,-4.8 -0.1,1.3 -0.2,2.7 -0.3,3.9 -0.3,5 -1.3,9.8 -3,14.1 0.6,0.6 1.9,2.2 2,2.3 3.6,3.9 8.6,7.6 12.5,8.8 -1.7,0.2 -4,1.7 -6.3,2 2.6,2.9 7.8,3.6 11.1,6.9 -2.5,0.3 -3.1,2.1 -6.2,1.8 5.8,4.5 11.2,4.7 14.2,5 1.2,0.1 5.1,0.5 7.6,0.1 3.5,-0.5 7.2,1.2 8.6,2 2.2,1.3 2,4.3 1.6,5.8 -0.3,0.9 -0.7,2 -2.3,2.8 -0.9,0.3 -1.5,0.3 -0.6,-0.4 0.9,-0.6 1.6,-4.4 -0.3,-5.9 -1.4,-1.1 -3.5,-1.9 -5.8,-1.8 -2.6,0.1 -6.7,0.4 -8.6,0.2 -1.8,-0.2 -2.9,2.2 -3.2,3.2 -0.6,2.3 -1.4,5.3 -4.8,3.8 -4.2,-2.4 -10.1,-2.2 -17,-5 1,2.1 0.6,3.9 1.6,6.3 -6.1,-1.5 -7.6,-4.6 -13.4,-6.6 1,2.1 0.7,3.8 2,5.8 -4.9,-0.9 -9.5,-5.3 -16.3,-7.1 -0.2,0.1 -0.4,0.1 -0.6,0.2 -2.5,0.8 -4.7,1.5 -6.8,2.1 4.8,5.5 8.8,12.2 10.7,20.3 0,0 -3.4,0.1 -8.4,-1.7 1.4,4.4 2.3,9.2 2.4,14.2 0,0 -3.8,-0.7 -9,-3.9 0.5,4.8 0.3,9.8 -0.7,14.9 0,0 -4.4,-1.8 -9.6,-7.1 -0.6,5 -1.8,10 -4,15 0,0 -4,-2.7 -8.1,-9.1 -1.7,5 -4.1,9.9 -7.4,14.5 0,0 -4.4,-4.6 -7.4,-13.9 -4,6 -7.7,8.5 -7.7,8.5 -2.1,-5 -3.4,-10 -4,-15 -5.2,5.3 -9.6,7.1 -9.6,7.1 -1,-5.1 -1.2,-10.1 -0.7,-14.9 -5.2,3.2 -9.1,3.9 -9.1,3.9 0.1,-5.1 1,-9.8 2.4,-14.2 -5,1.7 -8.4,1.7 -8.4,1.7 1.9,-8.3 7.3,-16.8 10.9,-20.6 0,0 0,0 0,0 -1.8,-0.5 -3.7,-1.1 -5.8,-1.8 -0.2,-0.1 -0.4,-0.1 -0.6,-0.2 -6.8,1.8 -11.4,6.2 -16.3,7.1 1.3,-2 1,-3.6 2,-5.8 -5.8,2 -7.4,5.1 -13.4,6.6 1,-2.3 0.6,-4.2 1.6,-6.3 -5.6,2.8 -13.4,4.7 -16.8,5.4 -3.8,0.8 -4,-4.8 -5.2,-6.1 -0.5,-0.5 -3.6,-0.8 -4.8,-0.6 -1.9,0.3 -5.5,0.2 -8.3,0.1 -2.7,-0.1 -4.6,0.8 -6.1,1.8 -2,1.5 -1,5.4 -0.2,6 0.9,0.7 0.4,0.6 -0.6,0.4 -1.6,-0.8 -2,-1.9 -2.3,-2.8 -0.4,-1.5 -0.6,-4.5 1.6,-5.8 1.4,-0.8 5.1,-2.6 8.6,-2 2.5,0.4 6.4,0 7.6,-0.1 1.2,-0.1 10,-1.7 15.9,-6.3 -3.1,0.3 -3.7,-1.5 -6.2,-1.8 3.3,-3.3 8.5,-4 11.1,-6.9 -2.3,-0.3 -4.4,-2.1 -6,-2.4 5.1,-2.9 8.6,-4.5 12.2,-8.4 0.1,-0.1 1.4,-1.6 2,-2.2 -1.7,-4.3 -2.7,-9.1 -3,-14.2 -0.1,-1.2 -0.2,-2.5 -0.3,-3.8 -1.3,1.4 -3.9,2.8 -8.1,4.3 -2,-4.8 -1,-13.7 1.5,-20.6 -3.6,7 -7.6,11.6 -14.5,13.7 -1.7,-5.2 -0.7,-14.2 1.7,-20.9 -4.6,7.7 -9.5,11.5 -17.6,14.4 -0.7,-6.3 0,-14.5 3,-22.1 -6.3,6 -11.6,8 -18.7,9.3 -0.4,-7.4 1.4,-14.1 5.1,-22.4 -4.5,5.5 -13.9,9.3 -21,10.1 0.5,-6.4 5,-15.2 7.7,-20.4 -6.7,4.8 -13.8,8.2 -21.5,8.6 1,-7.3 4.2,-15.2 9.9,-21.6 -6.6,4.9 -16.7,7.6 -24.3,6.5 1.9,-8 6.8,-15.8 13.4,-20 -3.9,0.8 -10.9,2.4 -18.9,1.6 -4.7,15.9 -7.3,32.7 -7.4,50.1 -4,-3.2 -6.8,-4 -9.6,-6.7 0.5,3.8 1,5.8 1.4,10.5 0.8,8.4 3.9,13.2 9.2,16.2 0.3,2.4 0.6,4.8 0.9,7.1 -3.9,-2.5 -9.1,-4 -16,-4 4.2,13.7 10.2,14.7 18.2,16 0.3,1.3 0.6,2.5 0.9,3.7 -4.3,-1.1 -9.4,-1.1 -15.3,0.5 4,6.3 9.6,10.1 18.6,11.4 0,0.1 0,0.1 0,0.1 -5.5,-0.5 -11.5,0.4 -16.2,2.8 6.8,5.8 13.5,8.1 19.8,7.4 0.3,0.8 0.7,1.7 1,2.5 -5,1.3 -9.5,4 -12,6.4 5.3,1.7 10.7,2.6 15.6,2 0.1,0.1 0.1,0.2 0.2,0.4 -2.9,2.2 -5.4,5.8 -6.9,11.3 3.8,-1 7.6,-1.2 11.5,-2.3 0.8,1.4 1.6,2.8 2.4,4.2 -2,3.9 -2.7,8.7 -1.5,14.1 3.2,-0.8 5.9,-2 8.1,-3.6 0.8,1.1 1.5,2.2 2.3,3.3 -0.8,6.2 0.6,12.4 4.3,16.6 1.5,-1.7 2.7,-3.3 3.7,-4.9 8,-12.2 3.2,-21 3.3,-28.9 0.1,-0.2 0.1,-0.3 0.2,-0.5 0.7,9.4 8.9,18.7 -0.8,30.1 -0.2,0.2 -0.4,0.4 -0.5,0.6 32.5,37.8 80.7,61.7 134.5,61.7 76.3,0 141.4,-48.2 166.4,-115.9 l 8.1,-3.5 -0.6,3.5 11.6,-10 -15,3.1 3.2,1.7 -6.2,2.5 c 1.1,-3.1 2.1,-6.3 3,-9.5 l 8.8,-4.9 -0.3,3.6 10.7,-11.1 -14.7,4.5 3.3,1.4 -7.1,3.9 c 0.9,-3.5 1.8,-7 2.5,-10.5 l 6.7,-4.3 -0.3,3.6 z"
   id="path37" />
		<path
   class="st0"
   d="m 207,389.2 c 14.4,10.9 22.6,26 24.7,38.1 -1.8,-1.3 -5.2,-2.7 -7.3,-2.3 -1.9,-12.8 -8.6,-23.2 -19.1,-31.6 0.5,-2 1.1,-3.3 1.7,-4.2 z"
   id="path38" />
		<g
   id="g43">
			<path
   class="st0"
   d="m 196,400.5 c 3.4,1.3 5.2,0.8 6,-0.4 1.8,-2.6 1,-6 -0.2,-6.7 0.3,1 0.2,2.2 0,3.4 -0.2,1 -0.7,2.7 -2.6,2.5 -1,-0.1 -2.9,-0.6 -4,-1.4 -0.8,-0.5 -0.8,-1.9 -0.3,-3 0.2,-0.6 0.5,-1.4 1.2,-2 -1.2,0.3 -1.9,0.9 -2.8,1.6 -0.9,0.7 -2.3,0.9 -3.1,0 -1,-1.1 -1.6,-1.9 -1.9,-2.6 -0.8,-1.9 1.6,-3.2 3,-4 -2.4,0 -2.8,0.9 -4.8,0.6 -2,-0.3 -2.5,-3.5 -2.4,-4.5 0,-0.8 0.9,-1.5 2.1,-1.8 1.1,-0.2 2.4,-0.2 3.1,-0.1 -0.1,-0.5 -0.2,-1.1 -0.2,-1.7 -2,-0.5 -5.8,0.2 -6.5,1.3 -0.9,1.4 -0.7,2.1 0,4.5 0.7,2.4 1.3,3.2 2.8,3.4 0.4,0.1 1.2,0.2 2.1,-0.2 -0.5,0.3 -0.8,0.6 -1,1.2 -0.3,0.6 -0.7,1.7 1.2,3.9 1.6,2 3.2,2.7 4.5,2 0.8,-0.4 1,-0.9 1.4,-1.3 -0.2,0.5 -0.4,1.1 -0.5,1.6 -0.4,2.2 1,3 2.9,3.7 z"
   id="path39" />
			<g
   id="g42">
				<path
   class="st0"
   d="m 193.4,385.5 c 1,-1.2 3.4,-1.4 4.7,-0.5 -0.9,1.7 -1,4.6 -0.5,6 -3.4,-0.6 -4,-3.8 -4.2,-5.5 z"
   id="path40" />
				<path
   class="st0"
   d="m 198.8,385.3 c 2,-0.1 2.7,-1.1 3.1,-2.1 0.4,-1 1.4,-1.6 1.5,-0.1 0,1.5 0,2.1 -0.8,2.5 -0.9,0.4 -2.4,0.5 -3.8,-0.3 z"
   id="path41" />
				<path
   class="st0"
   d="m 199.8,388.4 c -0.2,1.1 -0.6,2.1 -1.2,3.1 -0.5,0.7 -1.2,1.2 -1.8,1.7 0.9,0.7 2.2,1.1 3.3,1 1.1,-0.1 1.1,-0.2 1.1,-0.6 -0.3,-1.9 -1,-4.4 -1.4,-5.2 z"
   id="path42" />
			</g>
		</g>
		<g
   id="g57">
			<path
   class="st0"
   d="m 401.1,383.7 c 0.9,1.7 1,4.6 0.5,6 3.4,-0.5 4,-3.8 4.2,-5.5 -0.9,-1.2 -3.3,-1.3 -4.7,-0.5 z"
   id="path43" />
			<path
   class="st0"
   d="m 400.5,384 c -2,-0.1 -2.7,-1.1 -3.1,-2.1 -0.4,-1 -1.4,-1.6 -1.5,-0.1 0,1.5 0,2.1 0.8,2.5 0.9,0.4 2.4,0.6 3.8,-0.3 z"
   id="path44" />
			<path
   class="st0"
   d="m 400.7,390.2 c -0.7,-1 -1.1,-2 -1.2,-3.1 -0.4,0.7 -1.1,3.3 -1.4,5.1 -0.1,0.4 0,0.6 1.1,0.6 1.1,0.1 2.4,-0.3 3.3,-1 -0.5,-0.3 -1.3,-0.8 -1.8,-1.6 z"
   id="path45" />
			<g
   id="g55">
				<path
   class="st0"
   d="m 460.1,336.1 3.4,0.9 -51.9,41 v 0 l -1.2,1 c -0.1,0 -0.2,0 -0.2,0 0,0.6 0,1.2 -0.1,1.7 0.7,0 1.7,0 2.6,0.2 1.1,0.3 2,1 2,1.8 0,1 -0.6,4.2 -2.6,4.4 -2,0.3 -2.4,-0.6 -4.8,-0.8 1.4,0.8 3.7,2.2 2.9,4.1 -0.3,0.7 -1,1.5 -2,2.5 -0.8,0.8 -2.2,0.6 -3.1,-0.1 -0.9,-0.7 -1.6,-1.4 -2.7,-1.7 0.7,0.6 0.9,1.4 1.1,2 0.4,1.2 0.4,2.5 -0.4,3 -1.1,0.7 -3,1.2 -4,1.3 -1.9,0.2 -2.4,-1.5 -2.5,-2.5 -0.2,-1.3 -0.2,-2.4 0.1,-3.4 -1.2,0.6 -2.2,4 -0.4,6.6 0.8,1.2 2.5,1.8 6,0.5 1.8,-0.7 3.3,-1.4 3,-3.3 -0.1,-0.6 -0.3,-1.1 -0.5,-1.7 0.4,0.4 0.6,0.9 1.4,1.3 1.3,0.8 2.9,0.1 4.6,-1.8 1.9,-2.2 1.5,-3.3 1.3,-3.9 -0.2,-0.6 -0.6,-0.9 -1,-1.2 0.9,0.4 1.7,0.3 2.1,0.2 1.5,-0.2 2.1,-1 2.9,-3.3 0.8,-2.4 1,-3.1 0.2,-4.5 -0.4,-0.6 -1.6,-1.1 -3,-1.4 l 51.5,-40.7 0.1,3.6 9.2,-12.3 z"
   id="path46" />
				<path
   class="st0"
   d="m 432.4,348.7 36.6,-46.3 1,3.5 6.1,-14.1 -12.2,9.3 3.6,0.1 -33.1,42 c -2.6,3.9 -5.4,8.1 -8,12.1 l 0.1,0.1 c 1.9,-2.3 3.9,-4.5 5.9,-6.7 z"
   id="path47" />
				<path
   class="st0"
   d="m 428,362.4 c 3.1,-2.4 6.3,-5 9.4,-7.4 l 30.5,-28.2 0.4,3.6 8.2,-13 -13.5,7.3 3.5,0.7 -30.5,28.3 c -2.7,3 -5.4,6 -8,8.7 z"
   id="path48" />
				<path
   class="st0"
   d="M 461.9,355.8 419,377.3 c -0.8,0.6 -1.4,1.1 -1.7,1.4 0.3,0.2 0.6,0.5 0.7,0.8 0.1,0.1 0.1,0.3 0.2,0.4 l 44.6,-22.3 -0.6,3.5 11.6,-10.1 -15,3.2 z"
   id="path49" />
				<path
   class="st0"
   d="m 397,401.3 c -0.6,-0.2 -1.2,-0.5 -1.7,-1 l -7.7,15.9 v 0 l -2.8,0.9 -9.1,17.4 4.4,-1.3 1.6,4.3 8.6,-17.7 -1,-2.9 z"
   id="path50" />
				<path
   class="st0"
   d="m 427,371 c 2.9,-1.5 6.3,-3.2 9.8,-4.9 l 28.5,-18.6 -0.2,3.6 10.3,-11.4 -14.6,4.9 3.3,1.3 -31.1,20.3 c -2,1.6 -4.1,3.3 -6,4.8 z"
   id="path51" />
				<path
   class="st0"
   d="m 393.5,397 c -0.2,-0.8 -0.3,-1.7 -0.2,-2.6 l -10.2,11.1 -3,0.2 -0.3,0.3 v 0 l -14.2,14.2 h 0.7 l -0.1,0.1 0.2,-0.1 3.5,-0.2 0.6,3.5 11.8,-15.5 2.3,-0.5 z"
   id="path52" />
				<path
   class="st0"
   d="m 412.3,374.8 c 1.3,-1 3,-2.4 5.2,-4.1 l 50.1,-54.8 0.7,3.5 7.2,-13.6 -12.9,8.4 3.6,0.4 -52.5,57.4 c -0.5,1 -0.9,2 -1.4,2.8 z"
   id="path53" />
				<path
   class="st0"
   d="m 367.5,412.3 18.7,-13.1 c 2.1,-2.3 4.5,-4.9 5.3,-5.8 l -23.3,15.4 v 0 l -2.9,-0.6 -1.7,1.1 -15,9.3 4.2,0.9 0.5,3.2 12.1,-10.4 z"
   id="path54" />
				<path
   class="st0"
   d="m 352,414 7.5,-4.7 7,-4.8 2.4,0.5 c 0,0 17,-10.5 21.2,-13.2 0.2,-0.1 0.3,-0.2 0.3,-0.2 v 0 c 0,0 0.1,-0.1 0.1,-0.1 l -22.3,11.1 -2.8,-0.9 -17.8,8.4 4,1.5 z"
   id="path55" />
			</g>
			<g
   id="g56">
				<path
   class="st0"
   d="m 436.2,310.9 3.5,-0.6 -32.1,65 c 0.3,0.1 0.5,0.3 0.7,0.4 0.4,0.2 0.7,0.5 0.9,0.8 l 32.2,-65.3 1.7,3.2 3.1,-15.1 z"
   id="path56" />
			</g>
			<path
   class="st0"
   d="m 440.1,321.9 3.6,-0.2 -20.2,30.6 c -2.4,4.8 -4.7,9.4 -6.7,13.5 0.1,-0.1 0.2,-0.2 0.3,-0.4 l 28.2,-42.7 1.3,3.4 4.9,-14.6 z"
   id="path57" />
		</g>
		<path
   class="st0"
   d="m 144.8,360.4 c 0.5,0 0.4,0 -0.2,-0.2 -5.4,-3 -9.1,-4 -16.5,-3 7,0.5 11.8,1.5 16.7,3.2 z"
   id="path58" />
		<path
   class="st0"
   d="m 148.1,398.1 c 0.8,-5.1 4.2,-11.3 9.2,-15.4 3.5,-2.9 5.5,-4 2.6,-0.9 -4.4,4.6 -9.6,12.2 -11.8,16.3 z"
   id="path59" />
		<path
   class="st0"
   d="m 159.1,412.1 c -1.9,-4.8 -0.3,-12.6 1.8,-17.7 1.4,-3.5 5,-8.8 6.2,-9.3 -4,6.1 -8.2,22.3 -8,27 z"
   id="path60" />
		<path
   class="st0"
   d="m 143,344.7 c -0.4,-1.8 -2.2,-3 -4,-2.6 -1.8,0.4 -3,2.1 -2.6,4 0.4,1.8 2.1,3 4,2.6 1.8,-0.4 3,-2.2 2.6,-4 z"
   id="path61" />
		<path
   class="st0"
   d="m 172.4,349.3 c 0.1,-5.1 -0.7,-10.3 -0.1,-16.2 -10.1,7.3 -13.5,20.2 -9.3,29.2 -0.4,-0.1 -0.8,-0.1 -1.3,0 -1.9,0.4 -3.1,2.2 -2.7,4.1 0.4,1.9 2.2,3.1 4.1,2.7 1.9,-0.4 3.1,-2.2 2.7,-4.1 -0.2,-1 -0.8,-1.7 -1.5,-2.2 -1.7,-8 -0.3,-17.9 3.9,-22.1 -1.3,5 -3.7,15.4 -2.1,25.1 1.6,-1.9 2.9,-3.7 3.8,-5.5 0.2,1.5 0.6,3.1 1.2,4.7 0.2,-7.7 2.8,-15.2 10.7,-20.5 -5.8,7.4 -9.2,16 -9.9,22.5 4.2,-5.4 13.9,-7 14.6,-28 -4.9,1.5 -10.7,5.1 -14.1,10.3 z"
   id="path62" />
		<path
   class="st0"
   d="m 179.1,371 c -0.4,-2 -2.3,-3.3 -4.3,-2.9 -2,0.4 -3.3,2.3 -2.9,4.3 0.4,2 2.3,3.3 4.3,2.9 2,-0.5 3.3,-2.4 2.9,-4.3 z"
   id="path63" />
		<path
   class="st0"
   d="m 177.8,382 c -0.4,-2 -2.3,-3.3 -4.3,-2.9 -2,0.4 -3.3,2.3 -2.9,4.3 0.4,2 2.3,3.3 4.3,2.9 2,-0.4 3.3,-2.3 2.9,-4.3 z"
   id="path64" />
		<path
   class="st0"
   d="m 156.6,328 c -7.4,6.2 -9.5,14 -8.7,20.9 -0.3,0 -0.6,0 -0.9,0 -1.5,0.3 -2.5,1.8 -2.2,3.3 0.3,1.5 1.8,2.5 3.3,2.2 0.4,-0.1 0.7,-0.2 1,-0.4 0.7,2 1.6,3.8 2.7,5.4 -0.7,-2.3 -1.2,-4.9 -1.4,-7.5 0,-0.3 0,-0.6 0,-0.9 0,-0.1 0,-0.1 -0.1,-0.2 -0.4,-5.8 0.5,-11.9 3.7,-16.2 -1,6.4 -2.5,18.6 -1.1,26.3 2.2,-8 13.9,-11.6 3.7,-32.9 z"
   id="path65" />
		<path
   class="st0"
   d="m 186.4,375.9 c -0.3,-1.5 -1.8,-2.5 -3.4,-2.2 -1.5,0.3 -2.5,1.8 -2.2,3.4 0.3,1.5 1.8,2.5 3.4,2.2 1.5,-0.3 2.5,-1.8 2.2,-3.4 z"
   id="path66" />
		<path
   class="st0"
   d="m 170.6,375.4 c -0.3,-1.4 -1.7,-2.3 -3.1,-2 -1.4,0.3 -2.3,1.7 -2.1,3.1 0.3,1.4 1.7,2.3 3.1,2.1 1.5,-0.4 2.4,-1.8 2.1,-3.2 z"
   id="path67" />
		<path
   class="st0"
   d="m 134.7,339.3 c -0.2,-1.2 -1.2,-2 -2.4,-2 -3.7,-5 -9,-10.3 -17.8,-11.2 4.8,2.3 12.1,6.8 17.2,11.3 -1.2,0.3 -2,1.5 -1.8,2.7 0.2,1.3 1.5,2.2 2.8,2 1.4,-0.2 2.3,-1.5 2,-2.8 z"
   id="path68" />
		<path
   class="st0"
   d="m 134.8,322.5 c -0.3,-1.7 -2,-2.7 -3.6,-2.4 -0.1,0 -0.1,0 -0.2,0.1 -2,-7.8 -3.9,-13.9 -12.8,-20 4.5,5.7 9.6,14 12.5,20.1 -1.3,0.5 -2.1,2 -1.8,3.4 0.3,1.7 2,2.7 3.6,2.4 1.6,-0.3 2.7,-1.9 2.3,-3.6 z"
   id="path69" />
		<path
   class="st0"
   d="m 143.9,353.3 c -0.2,-1.3 -1.5,-2.2 -2.8,-2 -0.6,0.1 -1.2,0.5 -1.5,0.9 -7.9,-6.9 -13.3,-7 -17.4,-7.2 2.5,0.9 11.5,3.5 17.2,7.5 -0.2,0.5 -0.3,1 -0.2,1.5 0.2,1.3 1.5,2.2 2.8,2 1.2,-0.1 2.1,-1.4 1.9,-2.7 z"
   id="path70" />
		<path
   class="st0"
   d="m 150.5,363.1 c -0.4,-1.9 -2.2,-3.1 -4.1,-2.7 -1.9,0.4 -3.1,2.2 -2.7,4.1 0.4,1.9 2.2,3.1 4.1,2.7 1.8,-0.3 3.1,-2.2 2.7,-4.1 z"
   id="path71" />
		<path
   class="st0"
   d="m 155.6,369.2 c -0.2,-1.3 -1.5,-2.2 -2.8,-2 -0.8,0.1 -1.5,0.7 -1.8,1.4 -6.8,-0.9 -14.3,0 -20.5,3.5 7,-1.6 14.4,-3.1 20.4,-3.1 0,0 0,0 0,0 -0.1,0.3 -0.1,0.7 -0.1,1 0.2,1.3 1.5,2.2 2.8,2 1.3,-0.3 2.2,-1.5 2,-2.8 z"
   id="path72" />
		<path
   class="st0"
   d="m 162.6,373.3 c -0.3,-1.7 -2,-2.8 -3.7,-2.5 -1.7,0.3 -2.8,2 -2.5,3.7 -0.1,0 -0.1,0 -0.2,0 -5.1,-0.2 -13.5,1.1 -18.7,7.3 5.3,-3.1 13.7,-6.3 18.8,-7 0,0 0.1,0 0.1,0 0.4,1.6 2,2.6 3.7,2.3 1.7,-0.5 2.8,-2.1 2.5,-3.8 z"
   id="path73" />
		<g
   id="g106">
			<g
   id="g75">
				<path
   class="st3"
   d="m 522.8,192.2 c 8.3,-3.6 17.7,-2 20.1,3.5 2.4,5.5 -2.8,13.6 -11,17.2 -8.3,3.6 -17.8,2 -20.2,-3.5 -2.5,-5.5 2.7,-13.6 11.1,-17.2 z m 12.4,28.4 c 10.5,-4.6 15.2,-16.3 10.8,-26.3 -4.4,-10.1 -16.2,-14.4 -26.6,-9.9 -10.5,4.6 -15.3,16.2 -10.9,26.3 4.4,10.1 16.3,14.5 26.7,9.9 z"
   id="path74" />
				<path
   class="st3"
   d="m 520.6,247.9 -4,-15.8 2.4,-0.6 1.1,4.4 33.4,-8.5 -1.1,-4.4 2.4,-0.6 6.1,23.9 1.6,-0.4 0.8,3.1 -9.2,2.3 -0.8,-3.1 4.2,-1.1 -3.1,-12.1 -13.7,3.5 2.4,9.3 3.9,-1 0.8,3.1 -11.4,2.9 -0.9,-3.1 4.1,-1 -2.4,-9.3 -15.3,3.9 1,3.9 z"
   id="path75" />
			</g>
			<g
   id="g79">
				<path
   class="st3"
   d="m 53.9,205.6 -1.4,4.8 21.5,6.4 c 6.5,1.9 9.9,5.4 10.7,10.9 0.4,2.9 0.2,5.9 -0.7,8.8 -2.8,9.3 -9.7,13.8 -17.6,11.4 l -23.1,-6.9 -1.3,4.4 -2.4,-0.7 4.8,-16 2.4,0.7 -1.3,4.3 21.4,6.4 c 5.8,1.7 8.7,1.5 11.2,-1 1.1,-1.2 2,-2.7 2.5,-4.4 2.1,-6.9 -0.8,-12.1 -7.8,-14.2 l -21.3,-6.3 -1.4,4.8 -2.5,-0.7 4,-13.3 z"
   id="path76" />
				<path
   class="st3"
   d="m 91.8,214.9 c -0.9,2 -3.2,3 -5.2,2.1 -2,-0.9 -3,-3.2 -2.1,-5.2 0.9,-2 3.2,-3 5.2,-2.1 2,0.8 3,3.1 2.1,5.2 z"
   id="path77" />
				<path
   class="st3"
   d="m 99.3,197.8 -1.6,2.9 -9.4,-5.3 1.6,-2.9 3.9,2.2 c 3.2,-1.3 4.9,-2.7 6.3,-5.2 1.8,-3.2 1.2,-6.7 -1.5,-8.2 -2.3,-1.3 -4.9,-0.7 -10.7,2.3 -6.1,3.3 -7,3.6 -9.3,4.1 -2.2,0.5 -4.7,0 -7,-1.3 -5.7,-3.2 -7.2,-9.6 -3.6,-15.9 1.1,-2 2.4,-3.5 4.3,-5 l -1.6,-0.9 1.6,-2.8 8.9,5 -1.6,2.8 -3.6,-2 c -2.6,1.4 -3.9,2.5 -5,4.4 -1.5,2.7 -0.8,5.9 1.7,7.3 2.1,1.2 4.1,0.7 10.1,-2.5 2.9,-1.5 4.7,-2.5 5.4,-2.8 1.5,-0.7 3.3,-1.2 5.2,-1.3 2.2,-0.1 4.2,0.4 6.2,1.6 5.9,3.3 7.7,10 4.2,16.1 -1.7,3 -3.6,4.9 -6.3,6.5 z"
   id="path78" />
				<path
   class="st3"
   d="m 114.9,170.7 c 0,2.2 -1.7,3.9 -3.9,3.9 -2.2,0 -3.9,-1.7 -3.9,-3.9 0,-2.2 1.7,-3.9 3.9,-3.9 2.2,0 3.9,1.8 3.9,3.9 z"
   id="path79" />
			</g>
			<g
   id="g89">
				<path
   class="st3"
   d="m 207.4,93.9 -25.3,13 -1.1,-2.2 4,-2.1 -15.8,-30.6 -4,2.1 -1.1,-2.2 21.9,-11.3 -0.8,-1.5 2.9,-1.5 4.3,8.5 -2.8,1.5 -2,-3.8 -11.1,5.7 6.5,12.6 8.5,-4.4 -1.9,-3.6 2.9,-1.5 5.4,10.5 -2.8,1.5 -1.9,-3.7 -8.5,4.4 6.8,13.1 11.5,-5.9 -2,-3.9 2.9,-1.5 z"
   id="path80" />
				<path
   class="st3"
   d="m 231.8,85.1 -16.5,5.5 -0.8,-2.4 4.3,-1.4 L 208,54 l -4.3,1.4 -0.8,-2.4 17.2,-5.7 c 7,-2.3 13,0.4 15.2,6.9 2,6.2 -1.7,13.1 -8.3,15.3 -1,0.3 -1.6,0.5 -3.2,0.7 l -0.9,-2.8 c 0.8,-0.1 1.1,-0.2 1.6,-0.3 3.9,-1.3 5.1,-4.8 3.4,-9.8 -1.8,-5.3 -4.8,-7.4 -8.9,-6.1 l -3.4,1.1 10.6,31.9 4.8,-1.6 z"
   id="path81" />
				<path
   class="st3"
   d="m 251.3,63.3 3.4,-15.8 8.1,13.8 z m 29,8.5 -2.5,0.4 -21.1,-35.1 -3.6,0.6 -8.6,40.3 -3.7,0.6 0.4,2.5 12.2,-2.1 -0.4,-2.5 -4.7,0.8 2.2,-10.2 14.3,-2.5 5.3,8.9 -4.1,0.7 0.4,2.5 14.4,-2.5 z"
   id="path82" />
				<path
   class="st3"
   d="m 297.4,38.2 h 3.8 c 4.3,0 6.7,2.8 6.7,7.6 0,4.7 -2.8,8 -6.9,8 h -3.5 z m 24.2,33.6 h -2.5 c -1.2,0 -1.9,-0.5 -3.3,-2.6 l -8.5,-13.1 c 5.6,-1.7 8.4,-5.2 8.4,-10.6 0,-3.2 -0.9,-5.7 -2.9,-7.7 -2.1,-2.2 -5,-2.9 -10.2,-3 H 285 v 2.5 h 4.5 l -0.1,34.4 h -4.5 v 2.5 h 16.7 v -2.5 h -4.5 V 56.6 h 1.6 l 8.9,14.1 c 2,3.2 2.6,3.5 6.2,3.5 h 7.6 z"
   id="path83" />
				<path
   class="st3"
   d="m 348.7,79.1 -19,-3.2 0.4,-2.5 5.7,1 5.6,-33 -10.2,-1.7 -0.8,4.9 -3.2,-0.5 1.7,-10 3.3,0.5 -0.3,1.7 27.9,4.7 0.3,-1.7 3.2,0.5 -1.7,10 -3.2,-0.5 0.8,-4.9 -10.2,-1.7 -5.6,32.9 5.7,1 z"
   id="path84" />
				<path
   class="st3"
   d="m 404.5,98 -16.5,-6.4 0.9,-2.3 4.7,1.8 9.3,-24.1 -22.7,22.2 -3.2,-31.7 -9.1,23.6 4.7,1.8 -0.9,2.3 -12.9,-5 0.9,-2.3 4.7,1.8 12.5,-32.1 -4.7,-1.8 0.9,-2.3 9.9,3.8 3.2,31 21.7,-21.4 11,4.3 -0.9,2.3 -4.7,-1.8 -12.5,32.1 4.7,1.8 z"
   id="path85" />
				<path
   class="st3"
   d="m 433.6,117 -24,-15.3 1.4,-2.1 3.8,2.4 18.5,-29 -3.8,-2.4 1.3,-2.1 20.8,13.3 0.9,-1.4 2.7,1.7 -5.1,8 -2.7,-1.7 2.3,-3.6 -10.4,-6.8 -7.6,11.9 8.1,5.1 2.2,-3.4 2.8,1.7 -6.3,9.9 -2.7,-1.7 2.3,-3.5 -8.1,-5.1 -7.9,12.4 10.9,7 2.4,-3.7 2.7,1.7 z"
   id="path86" />
				<path
   class="st3"
   d="M 168.5,92.6 C 162,83.7 149.8,82 140.7,88.6 l -15,11 1.5,2 3.7,-2.7 20.3,27.7 c 1,0.4 1.9,0.7 2.9,1.1 l 10,-7.3 c 4.7,-3.5 7.2,-7.3 8.1,-12.4 0.8,-5.5 -0.5,-11 -3.7,-15.4 z m -7.7,26.1 -3.9,2.9 -19.4,-26.4 4.1,-3 c 5.6,-4.1 14.9,-1.6 20.1,5.5 5.5,7.4 5.2,16.5 -0.9,21 z"
   id="path87" />
				<path
   class="st3"
   d="m 484.5,108.8 -1.7,1.9 3.5,3.2 -16.9,18.5 4.3,-33.4 -8.8,-8 -1.7,1.9 3.2,2.9 -0.7,3.5 -21.1,23.2 -3.7,-3.3 -1.7,1.9 10,9.1 1.7,-1.9 -3.5,-3.2 17.6,-19.3 -3.8,30.7 c 3.6,-0.9 7.5,-2 11.8,-3.2 0.3,-0.1 0.7,-0.2 1,-0.3 l 15,-16.5 3.7,3.4 1.7,-1.9 z"
   id="path88" />
				<path
   class="st3"
   d="m 524.8,152.3 -1.3,1 -17.2,-22.5 1.3,-1 -2,-2.6 -8.1,6.2 2,2.6 3.9,-3 6.3,8.2 -26.6,20.3 -1.4,-1.8 c -0.8,0.4 -1.5,0.8 -2.3,1.1 l 9.9,12.9 2,-1.5 -3.5,-4.6 26.6,-20.3 6.2,8.2 -3.9,3 2,2.6 8.1,-6.2 z"
   id="path89" />
			</g>
			<g
   id="g97">
				<path
   class="st3"
   d="m 350,562.8 -3.2,0.7 -2.3,-10.5 3.2,-0.7 0.9,4.3 c 3.1,1.5 5.2,1.9 8.1,1.2 3.6,-0.8 5.8,-3.5 5.1,-6.6 -0.6,-2.6 -2.7,-4.1 -8.9,-6.4 -6.5,-2.4 -7.3,-2.8 -9.2,-4.2 -1.8,-1.4 -3.1,-3.5 -3.7,-6.1 -1.4,-6.4 2.4,-11.7 9.5,-13.3 2.3,-0.5 4.2,-0.5 6.6,-0.1 l -0.4,-1.7 3.2,-0.7 2.2,10 -3.2,0.7 -0.9,-4 c -2.8,-1 -4.5,-1.3 -6.7,-0.8 -3,0.7 -4.9,3.3 -4.3,6.1 0.5,2.3 2.2,3.5 8.6,5.8 3.1,1.2 5,1.8 5.7,2.2 1.5,0.6 3.1,1.7 4.4,3 1.5,1.6 2.5,3.4 3,5.7 1.5,6.6 -2.4,12.4 -9.2,13.9 -3.4,0.7 -6,0.6 -9,-0.4 z"
   id="path90" />
				<path
   class="st3"
   d="m 410.8,543.7 -26.5,10.4 -0.9,-2.3 4.2,-1.7 -12.6,-32.1 -4.2,1.7 -0.9,-2.3 22.9,-9 -0.6,-1.6 3,-1.2 3.5,8.9 -3,1.2 -1.6,-4 -11.6,4.5 5.2,13.1 8.9,-3.5 -1.5,-3.8 3,-1.2 4.3,11 -3,1.2 -1.5,-3.9 -8.9,3.5 5.4,13.7 12.1,-4.7 -1.6,-4.1 3,-1.2 z"
   id="path91" />
				<path
   class="st3"
   d="m 450.6,519.4 c -3.4,4.2 -5.7,6.4 -9.6,8.8 -10.8,6.5 -22.9,3.9 -29,-6.2 -6.1,-10.1 -3,-22.2 7.3,-28.5 3.3,-2 5.9,-3 9.6,-3.5 l -1.3,-2.1 2.8,-1.7 5.6,9.2 -2.8,1.7 -2,-3.3 c -4.2,-0.3 -6.1,0.2 -8.9,1.8 -7.1,4.3 -8.5,13.2 -3.3,21.7 5,8.3 14.4,11.4 21.5,7.1 2.6,-1.5 4.1,-3.2 5.6,-6.2 l -2.4,-3.9 2.9,-1.7 z"
   id="path92" />
				<path
   class="st3"
   d="m 468.6,457.7 -3.7,3.4 15.2,16.6 c 4.6,5 5.7,9.7 3.6,14.9 -1.1,2.7 -2.9,5.1 -5.2,7.2 -7.2,6.5 -15.4,6.8 -20.9,0.7 l -16.3,-17.8 -3.4,3.1 -1.7,-1.9 12.4,-11.3 1.7,1.9 -3.3,3 15,16.5 c 4.1,4.5 6.7,5.8 10.1,4.9 1.5,-0.5 3.1,-1.3 4.4,-2.5 5.3,-4.8 5.5,-10.8 0.6,-16.2 l -15,-16.4 -3.7,3.4 -1.7,-1.9 10.2,-9.3 z"
   id="path93" />
				<path
   class="st3"
   d="m 535.8,422.8 -8,14.7 -2.2,-1.2 2.2,-4 -30.3,-16.4 -2.2,4 -2.2,-1.2 8,-14.7 2.2,1.2 -2.1,3.9 30.3,16.4 2.1,-3.9 z"
   id="path94" />
				<path
   class="st3"
   d="m 551,387 -6.8,18 -2.3,-0.9 2,-5.4 -31.2,-11.7 -3.7,9.7 4.6,1.7 -1.2,3.1 -9.5,-3.6 1.2,-3.1 1.6,0.6 10,-26.5 -1.6,-0.6 1.2,-3.1 9.5,3.6 -1.2,3.1 -4.6,-1.7 -3.6,9.6 31.3,11.8 2,-5.4 z"
   id="path95" />
				<path
   class="st3"
   d="m 561.6,343.1 -3.2,16.4 -2.5,-0.5 0.9,-4.4 -16.2,-3.2 -19.9,8.2 -0.7,3.7 -2.5,-0.5 3.2,-16.4 2.5,0.5 -0.9,4.3 14.5,-5.8 -11.3,-10.3 -1,5 -2.5,-0.5 2.7,-13.7 2.5,0.5 -0.8,4.2 14.2,12.9 17.7,3.5 0.9,-4.5 z"
   id="path96" />
				<path
   class="st3"
   d="m 521.4,444.4 -1.5,2 c -0.7,1 -1.6,1.2 -4.1,1.1 l -15.5,-1 c 2,-5.5 0.8,-9.8 -3.5,-13 -2.5,-1.9 -5.2,-2.7 -7.9,-2.3 -3,0.4 -5.3,2.3 -8.4,6.4 l -10.5,14.2 2,1.5 2.7,-3.6 27.7,20.5 -2.7,3.6 2,1.5 10,-13.4 -2,-1.5 -2.7,3.6 -12.1,-9 1,-1.3 16.6,1.2 c 3.8,0.3 4.4,0 6.5,-2.8 l 4.5,-6.1 z m -41.5,-0.5 2.2,-3 c 2.5,-3.4 6.2,-3.7 10,-0.9 3.8,2.8 4.7,7 2.3,10.3 l -2.1,2.8 z"
   id="path97" />
			</g>
			<g
   id="g105">
				<path
   class="st3"
   d="m 47.6,380 -4,-16.3 2.4,-0.6 1.1,4.4 15.3,-3.7 -4.6,-18.9 -15.3,3.7 1.1,4.4 -2.4,0.6 -4,-16.3 2.4,-0.6 1.1,4.4 33.5,-8.2 -1.1,-4.4 2.4,-0.6 4,16.3 -2.4,0.6 -1.1,-4.4 -14.8,3.6 4.6,18.9 14.8,-3.6 -1.1,-4.4 2.4,-0.6 4,16.3 -2.4,0.6 -1.1,-4.4 -33.4,8.2 1.1,4.4 z"
   id="path98" />
				<path
   class="st3"
   d="m 70.4,389.1 c 8.2,-3.7 17.7,-2.2 20.2,3.2 2.5,5.5 -2.6,13.7 -10.8,17.4 -8.3,3.8 -17.8,2.2 -20.3,-3.3 -2.4,-5.3 2.6,-13.5 10.9,-17.3 z m 12.9,28.3 c 10.4,-4.7 15,-16.5 10.4,-26.5 -4.6,-10 -16.4,-14.2 -26.8,-9.5 -10.4,4.7 -15,16.4 -10.5,26.5 4.6,10 16.5,14.3 26.9,9.5 z"
   id="path99" />
				<path
   class="st3"
   d="m 98.5,474.2 -10.4,-14.4 2,-1.5 3,4.1 20.9,-15.2 -31.1,6.3 14.5,-28.3 -20.5,14.9 3,4.1 -2,1.5 -8.1,-11.2 2,-1.5 3,4.1 27.9,-20.2 -2.9,-4.1 2,-1.5 6.2,8.6 -14.2,27.8 29.8,-6.2 7,9.6 -2,1.5 -2.9,-4.1 -27.9,20.2 3,4.1 z"
   id="path100" />
				<path
   class="st3"
   d="m 129.6,504.8 -20.9,-19.3 1.7,-1.8 3.3,3.1 23.3,-25.3 -3.3,-3.1 1.7,-1.9 18.1,16.7 1.1,-1.2 2.4,2.2 -6.4,7 -2.3,-2.1 2.9,-3.2 -9.1,-8.4 -9.6,10.4 7,6.5 2.8,-3 2.4,2.1 -8,8.7 -2.4,-2.1 2.8,-3.1 -7,-6.5 -10,10.9 9.5,8.8 3,-3.3 2.4,2.2 z"
   id="path101" />
				<path
   class="st3"
   d="m 165.2,529.2 -23.4,-15.8 1.4,-2.1 3.8,2.6 19.2,-28.6 -3.8,-2.5 1.4,-2.1 13.9,9.3 -1.4,2.1 -3.7,-2.5 -18.7,27.7 10.6,7.1 2.5,-3.7 2.7,1.8 z"
   id="path102" />
				<path
   class="st3"
   d="m 189.1,524.1 11.7,-11.1 -1,16 z m 19.2,23.4 -2.3,-1 2.3,-40.9 -3.3,-1.5 -29.9,28.4 -3.4,-1.5 -1,2.3 11.3,5.1 1,-2.3 -4.4,-2 7.5,-7.2 13.2,6 -0.6,10.4 -3.8,-1.7 -1,2.3 13.3,6 z"
   id="path103" />
				<path
   class="st3"
   d="m 249.7,561.6 -4.1,-1 -13.4,-33.3 -6.1,25.4 4.6,1.1 -0.6,2.4 -13.1,-3.2 0.6,-2.4 4.8,1.2 7.3,-30.5 -1.2,-3.4 -4.2,-1 0.6,-2.4 11.6,2.8 12.4,31.3 5.8,-24.4 -4.6,-1.1 0.6,-2.4 13.1,3.1 -0.6,2.4 -4.9,-1.2 z"
   id="path104" />
				<path
   class="st3"
   d="m 288.5,525.2 -18.6,-0.7 -0.1,2.5 4.5,0.2 -1.2,34.4 v 0 l -4.5,-0.2 -0.1,2.5 18.6,0.7 v 0 h 0.1 c 5.9,0.2 10.2,-1.2 14,-4.7 4.2,-3.8 6.6,-8.9 6.8,-14.3 0.2,-11.1 -8.2,-20 -19.5,-20.4 z m 10.9,20 c -0.3,9.4 -6.3,16.3 -13.8,16 l -4.8,-0.2 1.2,-32.8 5.1,0.2 c 6.9,0.3 12.6,8 12.3,16.8 z"
   id="path105" />
			</g>
		</g>
		<path
   class="st0"
   d="m 149.7,311.2 c -11.4,5 -16.7,19.2 -10.9,29.7 5.4,-7.7 15.4,-9.3 10.9,-29.7 z m -10.9,29.1 c -1.4,-5.7 2.2,-21 7.3,-24.2 -3.2,7.4 -4.6,14.3 -7.3,24.2 z"
   id="path106" />
		<path
   class="st0"
   d="m 138.1,289.8 c -3.7,1.5 -8.8,6.6 -11.2,13.3 0.9,1 1.7,2.1 2.3,3.3 1.3,-4.9 4,-10.6 6.8,-13 -1.8,3.1 -4.4,10 -5.6,15.4 1.3,3 1.9,6.2 1.8,9.1 7,-6.4 9.4,-17.4 5.9,-28.1 z"
   id="path107" />
	</g>
</g>
</svg>
