<?xml version="1.0" encoding="UTF-8" standalone="no"?>
<!-- Generator: Adobe Illustrator 13.0.1, SVG Export Plug-In . SVG Version: 6.00 Build 14948)  -->

<svg
   version="1.0"
   id="Layer_1"
   x="0px"
   y="0px"
   width="256"
   height="128"
   viewBox="0 0 27.842844 13.890919"
   enable-background="new 0 0 78.308 30.929"
   xml:space="preserve"
   sodipodi:version="0.32"
   inkscape:version="1.4.2 (f4327f4, 2025-05-13)"
   sodipodi:docname="US-FDIC-Logo2.svg"
   inkscape:output_extension="org.inkscape.output.svg.inkscape"
   xmlns:inkscape="http://www.inkscape.org/namespaces/inkscape"
   xmlns:sodipodi="http://sodipodi.sourceforge.net/DTD/sodipodi-0.dtd"
   xmlns="http://www.w3.org/2000/svg"
   xmlns:svg="http://www.w3.org/2000/svg"
   xmlns:rdf="http://www.w3.org/1999/02/22-rdf-syntax-ns#"
   xmlns:cc="http://creativecommons.org/ns#"
   xmlns:dc="http://purl.org/dc/elements/1.1/"><metadata
   id="metadata210"><rdf:RDF><cc:Work
       rdf:about=""><dc:format>image/svg+xml</dc:format><dc:type
         rdf:resource="http://purl.org/dc/dcmitype/StillImage" /></cc:Work></rdf:RDF></metadata><defs
   id="defs208">
	
	
</defs><sodipodi:namedview
   inkscape:window-height="1057"
   inkscape:window-width="1920"
   inkscape:pageshadow="2"
   inkscape:pageopacity="0.0"
   guidetolerance="10.0"
   gridtolerance="10.0"
   objecttolerance="10.0"
   borderopacity="1.0"
   bordercolor="#666666"
   pagecolor="#ffffff"
   id="base"
   width="720px"
   height="285px"
   inkscape:showpageshadow="false"
   inkscape:zoom="0.68965216"
   inkscape:cx="363.22659"
   inkscape:cy="135.57559"
   inkscape:window-x="1912"
   inkscape:window-y="-8"
   inkscape:current-layer="Layer_1"
   inkscape:pagecheckerboard="0"
   inkscape:deskcolor="#d1d1d1"
   inkscape:window-maximized="1" />
<polygon
   points="8.354,21.183 8.354,30.88 0,30.88 0,0.128 17.184,0.128 17.184,8.166 8.354,8.166 8.354,13.144 16.674,13.144 16.674,21.183 "
   id="polygon3"
   style="fill:#003366;fill-opacity:1"
   transform="matrix(0.22505417,0,0,0.22505452,5.1117721,3.465104)" />
<path
   d="m 15.153688,6.9509734 c 0,-3.170118 -2.843333,-3.4570624 -4.020592,-3.4570624 H 9.2379152 v 6.91435 h 1.8951808 l -0.0029,-1.8026868 V 5.2743173 c 1.166005,0 2.156694,0.4307542 2.156694,1.6656284 0,1.2346491 -0.990689,1.6654034 -2.156694,1.6654034 l 0.0029,1.8026869 c 1.464873,2.25e-4 4.020587,-0.280418 4.020587,-3.4570626 z"
   id="path5"
   style="fill:#003366;fill-opacity:1;stroke-width:0.225055" />
<rect
   x="15.479118"
   y="3.4792826"
   width="1.8801025"
   height="6.9352798"
   id="rect7"
   style="fill:#003366;fill-opacity:1;stroke-width:0.225055" />
<path
   d="m 21.197743,8.583969 c -0.903142,0 -1.650546,-0.7359283 -1.650546,-1.6383969 0,-0.9024684 0.747404,-1.6386219 1.650546,-1.6386219 0.823474,0 1.254002,0.437956 1.537571,1.0147708 V 3.8384696 c 0,0 -0.832476,-0.3733656 -1.608238,-0.3733656 -1.723014,0 -3.589838,1.5848339 -3.589838,3.4804681 0,2.3207621 1.780628,3.4802429 3.589838,3.4802429 0.775537,0 1.608238,-0.372915 1.608238,-0.372915 V 7.5912535 C 22.395932,8.1763952 22.016716,8.583969 21.197743,8.583969 Z"
   id="path9"
   style="fill:#003366;fill-opacity:1;stroke-width:0.225055" />
<ellipse
   style="fill:none;stroke:#003366;stroke-width:0.0562636;stroke-opacity:1"
   id="circle13"
   cy="6.9484978"
   cx="21.228352"
   rx="0.98911303"
   ry="0.98911458" /><ellipse
   style="fill:none;stroke:#003366;stroke-width:0.0562636;stroke-opacity:1"
   id="circle15"
   cy="6.9520988"
   cx="21.219349"
   rx="1.4284188"
   ry="1.428421" />
<g
   id="g17"
   style="fill:#003366;fill-opacity:1"
   transform="matrix(0.22505417,0,0,0.22505452,5.1117721,3.465104)">
	<polygon
   points="69.945,12.069 69.876,12.069 69.959,11.872 70.127,11.872 70.127,12.705 69.945,12.705 "
   id="polygon19"
   style="fill:#003366;fill-opacity:1" />
	<path
   d="m 70.545,12.13 c 0,0.171 0.158,0.311 0.354,0.311 0.08,0 0.152,-0.022 0.213,-0.061 -0.11,0.279 -0.402,0.166 -0.463,0.144 l -0.077,0.152 c 0.095,0.096 0.731,0.158 0.731,-0.45 0,-0.069 -0.052,-0.406 -0.404,-0.406 v 0.149 c 0.102,0 0.203,0.071 0.203,0.161 0,0.089 -0.102,0.16 -0.203,0.16 -0.101,0 -0.184,-0.071 -0.184,-0.16 0,-0.09 0.083,-0.161 0.184,-0.161 V 11.82 c -0.196,-10e-4 -0.354,0.138 -0.354,0.31 z"
   id="path21"
   style="fill:#003366;fill-opacity:1" />
	<path
   d="m 71.857,12.743 c -0.189,0 -0.299,-0.082 -0.33,-0.121 l 0.109,-0.109 c 0.05,0.029 0.137,0.083 0.197,0.083 0.06,0 0.171,-0.026 0.171,-0.12 0,-0.047 -0.042,-0.123 -0.219,-0.1 v -0.145 c 0.185,0.016 0.229,-0.05 0.229,-0.111 0,-0.061 -0.067,-0.111 -0.15,-0.111 -0.065,0 -0.129,0.038 -0.184,0.099 l -0.121,-0.122 c 0.055,-0.085 0.166,-0.141 0.297,-0.141 0.183,0 0.32,0.113 0.32,0.254 0,0.073 -0.031,0.141 -0.098,0.188 0.072,0.041 0.102,0.132 0.102,0.189 0.002,0.139 -0.122,0.267 -0.323,0.267 z"
   id="path23"
   style="fill:#003366;fill-opacity:1" />
	<path
   d="m 72.758,12.743 c -0.189,0 -0.299,-0.082 -0.329,-0.121 l 0.11,-0.109 c 0.049,0.029 0.136,0.083 0.196,0.083 0.06,0 0.171,-0.026 0.171,-0.12 0,-0.047 -0.041,-0.123 -0.218,-0.1 v -0.145 c 0.183,0.016 0.229,-0.05 0.229,-0.111 0,-0.061 -0.067,-0.111 -0.151,-0.111 -0.064,0 -0.128,0.038 -0.182,0.099 l -0.123,-0.122 c 0.055,-0.085 0.168,-0.141 0.297,-0.141 0.184,0 0.321,0.113 0.321,0.254 0,0.073 -0.03,0.141 -0.097,0.188 0.07,0.041 0.102,0.132 0.102,0.189 0,0.139 -0.125,0.267 -0.326,0.267 z"
   id="path25"
   style="fill:#003366;fill-opacity:1" />
	<path
   d="m 70.112,18.155 v -0.459 h -0.089 v 0.548 h 0.298 v -0.211 h 0.147 v 0.211 h 0.297 v -0.548 h 0.137 c 0.163,0 0.163,0.084 0.271,0.084 0.081,0 0.109,-0.084 0.168,-0.084 0.058,0 0.076,0.104 0.153,0.104 0.076,0 0.095,-0.104 0.153,-0.104 0.058,0 0.086,0.084 0.168,0.084 0.108,0 0.139,-0.084 0.303,-0.084 0.091,0 0.145,0.041 0.145,0.146 0,0.18 0.146,0.325 0.326,0.325 0.18,0 0.325,-0.146 0.325,-0.325 v -0.468 c 0,-0.18 -0.146,-0.324 -0.325,-0.324 l 0.002,0.113 c 0.105,0 0.193,0.086 0.193,0.193 0,0.172 -0.071,0.251 -0.071,0.251 0,0 0.071,0.079 0.071,0.252 0,0.106 -0.088,0.195 -0.193,0.195 -0.107,0 -0.195,-0.089 -0.195,-0.195 0,-0.173 0.072,-0.252 0.072,-0.252 0,0 -0.072,-0.079 -0.072,-0.251 0,-0.107 0.088,-0.193 0.195,-0.193 L 72.59,17.05 c -0.18,0 -0.326,0.145 -0.326,0.324 0,0.105 -0.054,0.147 -0.145,0.147 -0.164,0 -0.194,-0.086 -0.303,-0.086 -0.082,0 -0.109,0.08 -0.168,0.08 -0.059,0 -0.077,-0.101 -0.153,-0.101 -0.077,0 -0.096,0.101 -0.153,0.101 -0.059,0 -0.087,-0.08 -0.168,-0.08 -0.108,0 -0.108,0.086 -0.271,0.086 -0.162,0 -1.018,0 -1.018,0 v 0.175 h 0.139 0.089 0.564 v 0.459 h -0.118 v -0.212 h -0.327 v 0.212 z"
   id="path27"
   style="fill:#003366;fill-opacity:1" />
	<g
   id="g29"
   style="fill:#003366;fill-opacity:1">
		<g
   id="g31"
   style="fill:#003366;fill-opacity:1">
			<path
   d="m 70.404,9.787 0.502,0.863 c -0.072,0.007 -0.148,0.021 -0.223,0.038 l -0.09,-0.156 -0.276,0.062 0.019,-0.215 0.148,-0.033 -0.127,-0.221 -0.021,0.254 -0.019,0.215 -0.014,0.18 c -0.074,0.016 -0.149,0.037 -0.218,0.062 l 0.081,-0.995 z"
   id="path33"
   style="fill:#003366;fill-opacity:1" />
		</g>
		<g
   id="g35"
   style="fill:#003366;fill-opacity:1">
			<path
   d="m 75.634,11.471 -0.283,0.249 c -0.034,0.031 -0.04,0.085 -0.008,0.121 l 0.208,0.238 -0.125,0.107 -0.264,-0.301 -0.149,0.132 0.323,0.368 c 0.041,0.045 0.11,0.049 0.156,0.01 l 0.281,-0.24 c 0.036,-0.032 0.041,-0.086 0.01,-0.121 l -0.212,-0.24 0.124,-0.107 0.269,0.306 0.157,-0.132 -0.334,-0.379 C 75.748,11.437 75.68,11.431 75.634,11.471 Z"
   id="path37"
   style="fill:#003366;fill-opacity:1" />
		</g>
		<g
   id="g39"
   style="fill:#003366;fill-opacity:1">
			<path
   d="m 67.182,13.342 c -0.027,0.058 -0.057,0.116 -0.084,0.179 l -0.839,-0.416 0.264,-0.531 0.182,0.094 -0.172,0.347 0.144,0.072 0.147,-0.297 0.183,0.094 -0.146,0.296 z"
   id="path41"
   style="fill:#003366;fill-opacity:1" />
		</g>
		<g
   id="g43"
   style="fill:#003366;fill-opacity:1">
			<path
   d="m 75.377,11.09 c 0.055,0.045 0.062,0.124 0.019,0.178 l -0.438,0.533 c -0.045,0.054 -0.124,0.062 -0.18,0.017 -0.079,-0.063 -0.15,-0.135 -0.169,-0.149 -0.021,-0.017 -0.093,-0.071 -0.169,-0.128 -0.056,-0.042 -0.062,-0.126 -0.019,-0.18 l 0.437,-0.532 c 0.043,-0.054 0.125,-0.062 0.18,-0.017 l -0.069,0.202 -0.34,0.412 0.229,0.187 0.337,-0.414 -0.226,-0.185 0.069,-0.202 z"
   id="path45"
   style="fill:#003366;fill-opacity:1" />
		</g>
		<g
   id="g47"
   style="fill:#003366;fill-opacity:1">
			<path
   d="m 69.489,10.677 -0.183,0.082 -0.083,-0.188 0.2,-0.09 c 0.026,-0.012 0.037,-0.041 0.026,-0.066 l -0.026,-0.057 c -0.011,-0.025 -0.04,-0.037 -0.065,-0.025 l -0.202,0.092 0.067,0.146 0.083,0.188 0.147,0.328 c -0.073,0.034 -0.134,0.063 -0.192,0.094 l -0.384,-0.855 0.555,-0.249 c 0.045,-0.021 0.097,0 0.118,0.044 l 0.126,0.282 c 0.017,0.041 -0.001,0.09 -0.042,0.108 -0.002,0.002 -0.004,0.005 -0.002,0.007 10e-4,0.003 0.004,0.004 0.006,0.003 0.042,-0.018 0.091,0 0.109,0.042 0.025,0.058 0.102,0.228 0.107,0.242 0.008,0.018 0.025,0.066 0.082,0.059 l 0.006,0.014 c -0.07,0.026 -0.142,0.056 -0.219,0.088 -0.028,-0.01 -0.047,-0.031 -0.061,-0.062 -0.014,-0.027 -0.057,-0.146 -0.076,-0.19 -0.015,-0.037 -0.059,-0.053 -0.097,-0.037 z"
   id="path49"
   style="fill:#003366;fill-opacity:1" />
		</g>
		<g
   id="g51"
   style="fill:#003366;fill-opacity:1">
			<path
   d="M 71.674,10.607 71.67,10.404 71.291,10.417 71.263,9.683 71.065,9.69 71.1,10.626 c 0.201,-0.016 0.387,-0.022 0.574,-0.019"
   id="path53"
   style="fill:#003366;fill-opacity:1" />
		</g>
		<g
   id="g55"
   style="fill:#003366;fill-opacity:1">
			<path
   d="m 67.615,12.284 0.164,0.122 c -0.115,0.146 -0.225,0.296 -0.336,0.465 l -0.764,-0.543 0.343,-0.481 0.165,0.122 -0.225,0.315 0.132,0.094 0.192,-0.27 0.165,0.121 -0.192,0.269 0.135,0.097 z"
   id="path57"
   style="fill:#003366;fill-opacity:1" />
		</g>
		<g
   id="g59"
   style="fill:#003366;fill-opacity:1">
			<path
   d="m 67.906,12.255 -0.669,-0.671 0.091,-0.091 0.195,0.091 0.374,0.38 0.21,-0.208 -0.378,-0.379 -0.206,0.207 -0.195,-0.091 0.312,-0.31 c 0.05,-0.05 0.13,-0.049 0.18,10e-4 l 0.484,0.489 c 0.05,0.051 0.05,0.131 -0.001,0.181 -0.071,0.072 -0.149,0.137 -0.169,0.154 -0.015,0.017 -0.163,0.177 -0.228,0.247 z"
   id="path61"
   style="fill:#003366;fill-opacity:1" />
		</g>
		<g
   id="g63"
   style="fill:#003366;fill-opacity:1">
			<path
   d="m 68.936,11.136 0.113,0.17 c -0.158,0.098 -0.312,0.203 -0.475,0.322 l -0.532,-0.77 0.485,-0.337 0.113,0.172 -0.317,0.22 0.092,0.134 0.272,-0.19 0.113,0.172 -0.271,0.188 0.095,0.137 z"
   id="path65"
   style="fill:#003366;fill-opacity:1" />
		</g>
		<g
   id="g67"
   style="fill:#003366;fill-opacity:1">
			<path
   d="m 72.086,10.628 0.164,-0.935 0.124,0.022 0.04,0.211 -0.096,0.525 0.29,0.051 0.093,-0.525 -0.287,-0.051 -0.04,-0.211 0.435,0.076 c 0.069,0.013 0.115,0.078 0.104,0.148 l -0.123,0.677 c -0.012,0.07 -0.078,0.117 -0.148,0.104 -0.099,-0.017 -0.196,-0.044 -0.223,-0.048 -0.024,-0.003 -0.239,-0.032 -0.333,-0.044 z"
   id="path69"
   style="fill:#003366;fill-opacity:1" />
		</g>
		<g
   id="g71"
   style="fill:#003366;fill-opacity:1">
			<path
   d="m 73.606,10.83 -0.074,0.188 c -0.171,-0.074 -0.345,-0.141 -0.536,-0.203 l 0.326,-0.877 0.555,0.204 -0.074,0.191 -0.364,-0.133 -0.057,0.15 0.311,0.115 -0.075,0.191 -0.309,-0.115 -0.059,0.155 z"
   id="path73"
   style="fill:#003366;fill-opacity:1" />
		</g>
		<g
   id="g75"
   style="fill:#003366;fill-opacity:1">
			<path
   d="m 74.038,10.86 0.103,-0.184 0.196,0.111 c 0.024,0.014 0.056,0.004 0.069,-0.02 l 0.031,-0.056 c 0.013,-0.024 0.004,-0.056 -0.021,-0.068 l -0.195,-0.111 -0.081,0.144 -0.102,0.184 -0.18,0.316 c -0.073,-0.038 -0.133,-0.068 -0.192,-0.099 l 0.468,-0.832 0.54,0.305 c 0.043,0.023 0.059,0.079 0.033,0.122 l -0.2,0.355 c -0.022,0.039 -0.073,0.054 -0.113,0.031 z"
   id="path77"
   style="fill:#003366;fill-opacity:1" />
		</g>
		<g
   id="g79"
   style="fill:#003366;fill-opacity:1">
			<path
   d="m 75.555,12.673 0.775,-0.522 0.109,0.165 -0.775,0.521 C 75.646,12.81 75.629,12.781 75.609,12.754 75.592,12.726 75.572,12.699 75.555,12.673 Z"
   id="path81"
   style="fill:#003366;fill-opacity:1" />
		</g>
		<g
   id="g83"
   style="fill:#003366;fill-opacity:1">
			<path
   d="m 76.601,13.009 -0.653,0.334 c -0.014,-0.031 -0.029,-0.06 -0.044,-0.09 -0.016,-0.029 -0.03,-0.058 -0.046,-0.086 l 0.651,-0.334 -0.092,-0.184 0.181,-0.092 0.275,0.539 -0.181,0.092 z"
   id="path85"
   style="fill:#003366;fill-opacity:1" />
		</g>
	</g>
	<g
   id="g87"
   style="fill:#003366;fill-opacity:1">
		<g
   id="g89"
   style="fill:#003366;fill-opacity:1">
			<polygon
   points="66.173,14.019 66.336,13.827 66.327,14.078 66.561,14.173 66.318,14.243 66.3,14.493 66.16,14.285 65.914,14.345 66.069,14.146 65.936,13.934 "
   id="polygon91"
   style="fill:#003366;fill-opacity:1" />
		</g>
		<g
   id="g93"
   style="fill:#003366;fill-opacity:1">
			<polygon
   points="76.957,14.019 76.794,13.827 76.803,14.078 76.568,14.173 76.811,14.243 76.828,14.493 76.971,14.285 77.215,14.345 77.061,14.146 77.193,13.934 "
   id="polygon95"
   style="fill:#003366;fill-opacity:1" />
		</g>
	</g>
	<g
   id="g97"
   style="fill:#003366;fill-opacity:1">
		<g
   id="g99"
   style="fill:#003366;fill-opacity:1">
			<path
   d="m 69.407,20.61 -0.023,0.053 -0.267,-0.121 0.221,-0.487 0.267,0.123 -0.024,0.052 0.182,0.084 0.057,-0.129 c 0.029,-0.062 0,-0.138 -0.063,-0.168 -0.091,-0.041 -0.187,-0.08 -0.209,-0.09 -0.021,-0.01 -0.104,-0.047 -0.19,-0.091 -0.062,-0.032 -0.14,-10e-4 -0.169,0.063 l -0.284,0.625 c -0.029,0.063 -0.001,0.141 0.062,0.17 l 0.401,0.182 c 0.064,0.03 0.14,0.002 0.169,-0.062 l 0.054,-0.119 z"
   id="path101"
   style="fill:#003366;fill-opacity:1" />
		</g>
		<g
   id="g103"
   style="fill:#003366;fill-opacity:1">
			<path
   d="m 66.701,15.279 -0.933,-0.059 0.013,-0.198 0.934,0.06 c -0.005,0.033 -0.007,0.067 -0.008,0.101 -0.002,0.033 -0.004,0.064 -0.006,0.096 z"
   id="path105"
   style="fill:#003366;fill-opacity:1" />
		</g>
		<g
   id="g107"
   style="fill:#003366;fill-opacity:1">
			<path
   d="m 66.667,16.444 -0.365,0.096 c -0.046,0.011 -0.074,0.059 -0.062,0.104 l 0.081,0.307 -0.161,0.04 -0.102,-0.389 -0.193,0.052 0.125,0.475 c 0.017,0.058 0.077,0.093 0.135,0.077 l 0.359,-0.088 c 0.047,-0.012 0.076,-0.06 0.063,-0.104 l -0.081,-0.309 0.157,-0.04 0.104,0.394 0.199,-0.05 -0.129,-0.487 c -0.013,-0.058 -0.071,-0.093 -0.13,-0.078 z"
   id="path109"
   style="fill:#003366;fill-opacity:1" />
		</g>
		<g
   id="g111"
   style="fill:#003366;fill-opacity:1">
			<path
   d="m 66.191,16.121 0.539,-0.054 c 0.003,0.033 0.006,0.066 0.009,0.101 0.004,0.033 0.007,0.065 0.011,0.097 l -0.93,0.09 -0.02,-0.197 0.549,-0.418 -0.586,0.016 -0.005,-0.197 0.935,-0.027 c 0,0.033 0.001,0.068 0.002,0.101 0.001,0.033 0.001,0.065 0.002,0.099 z"
   id="path113"
   style="fill:#003366;fill-opacity:1" />
		</g>
		<g
   id="g115"
   style="fill:#003366;fill-opacity:1">
			<path
   d="m 66.362,18.036 c 0.028,0.064 0.104,0.094 0.167,0.066 l 0.745,-0.321 -0.08,-0.185 -0.669,0.293 -0.117,-0.271 0.668,-0.288 -0.08,-0.187 -0.741,0.322 c -0.065,0.029 -0.099,0.106 -0.067,0.17 z"
   id="path117"
   style="fill:#003366;fill-opacity:1" />
		</g>
		<g
   id="g119"
   style="fill:#003366;fill-opacity:1">
			<polygon
   points="67.773,19.93 68.225,19.046 68.051,18.875 67.174,19.339 67.336,19.497 67.497,19.41 67.688,19.308 67.914,19.188 67.796,19.415 67.688,19.308 67.497,19.41 67.699,19.607 67.611,19.771 "
   id="polygon121"
   style="fill:#003366;fill-opacity:1" />
		</g>
		<g
   id="g123"
   style="fill:#003366;fill-opacity:1">
			<path
   d="m 67.729,18.49 c 0.028,0.04 0.019,0.095 -0.022,0.123 l -0.256,0.175 c -0.036,0.026 -0.089,0.017 -0.113,-0.021 -0.002,-0.003 -0.006,-0.003 -0.008,-0.001 -0.002,0.001 -0.005,0.004 -0.002,0.006 0.026,0.037 0.018,0.09 -0.02,0.115 -0.055,0.036 -0.207,0.141 -0.222,0.15 -0.015,0.011 -0.061,0.037 -0.041,0.09 l -0.009,0.006 -0.134,-0.194 c 0.005,-0.03 0.026,-0.054 0.052,-0.073 0.027,-0.019 0.134,-0.082 0.174,-0.109 0.033,-0.022 0.042,-0.068 0.02,-0.104 l -0.114,-0.165 0.169,-0.115 0.126,0.182 c 0.015,0.022 0.046,0.028 0.069,0.013 l 0.052,-0.035 c 0.022,-0.015 0.028,-0.047 0.013,-0.069 l -0.126,-0.182 -0.134,0.092 -0.169,0.115 -0.299,0.206 -0.122,-0.175 0.771,-0.53 c 0.102,0.163 0.225,0.354 0.345,0.5 z"
   id="path125"
   style="fill:#003366;fill-opacity:1" />
		</g>
		<g
   id="g127"
   style="fill:#003366;fill-opacity:1">
			<path
   d="m 70.462,20.455 0.054,-0.195 c -0.182,-0.044 -0.361,-0.093 -0.553,-0.157 l -0.262,0.899 0.568,0.165 0.054,-0.198 -0.372,-0.108 0.045,-0.154 0.318,0.092 0.055,-0.197 -0.316,-0.091 0.045,-0.159 z"
   id="path129"
   style="fill:#003366;fill-opacity:1" />
		</g>
		<g
   id="g131"
   style="fill:#003366;fill-opacity:1">
			<path
   d="m 68.654,20.056 0.301,-0.451 c 0.027,0.02 0.056,0.038 0.084,0.057 0.027,0.019 0.054,0.036 0.08,0.055 l -0.519,0.775 -0.165,-0.111 0.023,-0.688 -0.357,0.464 -0.156,-0.121 0.571,-0.74 c 0.025,0.021 0.052,0.043 0.077,0.062 0.026,0.021 0.053,0.039 0.079,0.059 z"
   id="path133"
   style="fill:#003366;fill-opacity:1" />
		</g>
		<g
   id="g135"
   style="fill:#003366;fill-opacity:1">
			<path
   d="m 72.096,21.29 c -0.07,0.01 -0.134,-0.039 -0.144,-0.108 l -0.094,-0.683 c -0.009,-0.069 0.039,-0.135 0.109,-0.145 0.101,-0.014 0.201,-0.019 0.226,-0.021 0.025,-0.004 0.115,-0.02 0.208,-0.036 0.069,-0.014 0.135,0.038 0.145,0.108 l 0.095,0.68 c 0.01,0.07 -0.038,0.135 -0.109,0.145 l -0.102,-0.19 -0.071,-0.528 -0.291,0.04 0.073,0.529 0.289,-0.041 0.102,0.189 z"
   id="path137"
   style="fill:#003366;fill-opacity:1" />
		</g>
		<g
   id="g139"
   style="fill:#003366;fill-opacity:1">
			<path
   d="m 74.136,19.643 c 0.044,-0.023 0.099,-0.007 0.123,0.037 l 0.19,0.36 c 0.021,0.04 0.006,0.091 -0.034,0.113 l -0.36,0.192 -0.098,-0.185 0.199,-0.106 c 0.023,-0.015 0.033,-0.043 0.021,-0.068 l -0.03,-0.056 c -0.013,-0.025 -0.044,-0.034 -0.068,-0.021 l -0.199,0.105 0.078,0.146 0.098,0.185 0.175,0.326 c -0.071,0.04 -0.134,0.067 -0.19,0.102 l -0.449,-0.839 c 0.124,-0.058 0.394,-0.199 0.544,-0.291 z"
   id="path141"
   style="fill:#003366;fill-opacity:1" />
		</g>
		<g
   id="g143"
   style="fill:#003366;fill-opacity:1">
			<path
   d="m 76.865,17.884 -0.673,-0.29 -0.082,0.188 -0.187,-0.081 c 0.082,-0.151 0.181,-0.386 0.24,-0.558 l 0.188,0.082 -0.081,0.186 0.673,0.291 z"
   id="path145"
   style="fill:#003366;fill-opacity:1" />
		</g>
		<g
   id="g147"
   style="fill:#003366;fill-opacity:1">
			<path
   d="m 71.513,21.051 -0.002,0.059 -0.292,-0.013 0.019,-0.533 0.294,0.012 -0.002,0.058 0.198,0.007 0.005,-0.139 c 0.002,-0.071 -0.053,-0.13 -0.124,-0.133 -0.1,-0.004 -0.2,-0.004 -0.227,-0.004 -0.023,-10e-4 -0.116,-0.003 -0.21,-0.012 -0.07,-0.006 -0.13,0.053 -0.133,0.124 l -0.026,0.687 c -0.002,0.07 0.052,0.129 0.122,0.132 l 0.44,0.017 c 0.071,0.003 0.13,-0.051 0.132,-0.122 l 0.006,-0.131 z"
   id="path149"
   style="fill:#003366;fill-opacity:1" />
		</g>
		<g
   id="g151"
   style="fill:#003366;fill-opacity:1">
			<path
   d="m 73.297,20.053 c 0.047,-0.015 0.098,0.012 0.111,0.06 l 0.092,0.295 c 0.014,0.043 -0.011,0.09 -0.054,0.103 -0.003,0.001 -0.005,0.004 -0.003,0.007 0,0.004 0.003,0.005 0.006,0.004 0.043,-0.014 0.089,0.01 0.104,0.054 0.017,0.062 0.072,0.239 0.077,0.256 0.007,0.017 0.018,0.067 0.073,0.066 l 0.004,0.01 -0.227,0.069 C 73.454,20.963 73.436,20.938 73.427,20.906 73.416,20.875 73.388,20.753 73.374,20.707 73.361,20.668 73.319,20.646 73.28,20.659 l -0.191,0.059 -0.061,-0.194 0.211,-0.066 c 0.026,-0.009 0.041,-0.037 0.033,-0.062 l -0.019,-0.06 c -0.009,-0.027 -0.036,-0.041 -0.062,-0.033 l -0.211,0.066 0.048,0.155 0.061,0.194 0.108,0.348 -0.204,0.062 -0.277,-0.893 c 0.188,-0.051 0.407,-0.111 0.581,-0.182 z"
   id="path153"
   style="fill:#003366;fill-opacity:1" />
		</g>
		<g
   id="g155"
   style="fill:#003366;fill-opacity:1">
			<path
   d="m 75.023,20.183 c -0.055,0.045 -0.135,0.036 -0.178,-0.018 l -0.433,-0.537 c -0.046,-0.054 -0.038,-0.136 0.017,-0.18 0.079,-0.063 0.162,-0.12 0.183,-0.136 0.02,-0.015 0.088,-0.075 0.157,-0.138 0.055,-0.049 0.138,-0.037 0.182,0.018 l 0.433,0.533 c 0.046,0.055 0.037,0.135 -0.019,0.18 l -0.184,-0.107 -0.336,-0.417 -0.229,0.185 0.338,0.416 0.228,-0.184 0.184,0.107 z"
   id="path157"
   style="fill:#003366;fill-opacity:1" />
		</g>
		<g
   id="g159"
   style="fill:#003366;fill-opacity:1">
			<path
   d="m 75.414,18.5 c 0.032,-0.037 0.088,-0.041 0.125,-0.008 l 0.232,0.204 c 0.033,0.031 0.036,0.083 0.006,0.117 -0.003,0.002 -0.002,0.006 0,0.007 0.003,0.003 0.006,0.003 0.008,-0.001 0.03,-0.032 0.082,-0.037 0.115,-0.006 0.049,0.043 0.188,0.166 0.2,0.179 0.015,0.011 0.05,0.048 0.097,0.017 l 0.008,0.009 -0.156,0.176 C 76.02,19.197 75.99,19.182 75.966,19.16 75.943,19.139 75.855,19.052 75.819,19.018 75.788,18.992 75.741,18.994 75.714,19.025 l -0.133,0.15 -0.154,-0.137 0.146,-0.166 c 0.02,-0.021 0.018,-0.053 -0.003,-0.07 L 75.524,18.76 c -0.021,-0.017 -0.053,-0.015 -0.071,0.006 l -0.146,0.165 0.119,0.107 0.154,0.137 0.272,0.24 -0.142,0.16 -0.699,-0.62 C 75.145,18.815 75.3,18.65 75.414,18.5 Z"
   id="path161"
   style="fill:#003366;fill-opacity:1" />
		</g>
		<g
   id="g163"
   style="fill:#003366;fill-opacity:1">
			<polygon
   points="76.745,18.219 75.783,17.974 75.656,18.18 76.301,18.933 76.42,18.741 76.298,18.603 76.158,18.439 75.991,18.245 76.237,18.308 76.158,18.439 76.298,18.603 76.447,18.363 76.625,18.411 "
   id="polygon165"
   style="fill:#003366;fill-opacity:1" />
		</g>
		<g
   id="g167"
   style="fill:#003366;fill-opacity:1">
			<path
   d="m 76.274,16.799 0.896,0.269 -0.058,0.19 -0.896,-0.27 c 0.011,-0.03 0.02,-0.062 0.03,-0.095 0.012,-0.032 0.02,-0.063 0.028,-0.094 z"
   id="path169"
   style="fill:#003366;fill-opacity:1" />
		</g>
		<g
   id="g171"
   style="fill:#003366;fill-opacity:1">
			<path
   d="m 76.988,15.187 -0.542,0.021 c 0,-0.032 -0.002,-0.067 -0.003,-0.1 -0.001,-0.033 -0.002,-0.065 -0.004,-0.099 l 0.935,-0.031 0.006,0.198 -0.573,0.384 0.585,0.019 -0.005,0.197 -0.936,-0.03 c 0.002,-0.032 0.003,-0.065 0.004,-0.099 0.001,-0.034 0.003,-0.066 0.004,-0.099 z"
   id="path173"
   style="fill:#003366;fill-opacity:1" />
		</g>
		<g
   id="g175"
   style="fill:#003366;fill-opacity:1">
			<path
   d="m 77.287,16.635 c -0.012,0.07 -0.075,0.117 -0.146,0.107 L 76.46,16.637 c -0.07,-0.011 -0.118,-0.075 -0.107,-0.146 0.015,-0.099 0.039,-0.197 0.042,-0.223 0.003,-0.023 0.015,-0.115 0.023,-0.209 0.008,-0.07 0.077,-0.117 0.147,-0.107 l 0.678,0.103 c 0.07,0.01 0.118,0.075 0.107,0.146 l -0.21,0.044 -0.528,-0.082 -0.043,0.292 0.529,0.078 0.042,-0.288 0.21,-0.044 z"
   id="path177"
   style="fill:#003366;fill-opacity:1" />
		</g>
	</g>
	<path
   d="m 70.186,13.534 -0.332,1.293 h 0.082 l 0.236,-0.913 v 0.913 h 0.091 v -0.913 l 0.235,0.913 h -0.645 c 0.052,0.152 0.229,0.236 0.361,0.236 0.131,0 0.309,-0.084 0.359,-0.236 l -0.332,-1.293 z"
   id="path179"
   style="fill:#003366;fill-opacity:1" />
	<path
   d="m 71.563,12.962 0.154,0.07 -0.015,0.027 c -0.073,0 -0.09,0.139 -0.09,0.208 0,0.04 0.039,0.096 0.109,0.096 0.069,0 0.193,-0.063 0.363,-0.063 0.17,0 0.349,0.071 0.533,0.071 0.187,0 0.229,-0.052 0.274,-0.052 0.047,0 0.14,0.021 0.14,0.088 0,0.067 -0.093,0.087 -0.14,0.087 -0.046,0 -0.088,-0.052 -0.274,-0.052 -0.185,0 -0.363,0.072 -0.533,0.072 -0.17,0 -0.294,-0.064 -0.363,-0.064 -0.07,0 -0.109,0.056 -0.109,0.096 0,0.039 0.086,0.119 0.086,0.119 l -0.136,0.206 -0.134,-0.206 c 0,0 0.083,-0.08 0.083,-0.119 0,-0.04 -0.038,-0.096 -0.107,-0.096 -0.07,0 -0.194,0.064 -0.363,0.064 -0.171,0 -0.349,-0.072 -0.534,-0.072 -0.185,0 -0.229,0.052 -0.274,0.052 -0.048,0 -0.141,-0.021 -0.141,-0.087 0,-0.066 0.093,-0.088 0.141,-0.088 0.046,0 0.089,0.052 0.274,0.052 0.185,0 0.363,-0.071 0.534,-0.071 0.169,0 0.293,0.063 0.363,0.063 0.069,0 0.107,-0.056 0.107,-0.096 0,-0.069 -0.015,-0.208 -0.089,-0.208 l -0.015,-0.027 z"
   id="path181"
   style="fill:#003366;fill-opacity:1" />
	<path
   d="m 72.941,13.534 0.332,1.293 h -0.081 l -0.236,-0.913 v 0.913 h -0.091 v -0.913 l -0.236,0.913 h 0.645 c -0.053,0.152 -0.229,0.236 -0.36,0.236 -0.131,0 -0.309,-0.084 -0.36,-0.236 l 0.333,-1.293 z"
   id="path183"
   style="fill:#003366;fill-opacity:1" />
	<g
   id="g185"
   style="fill:#003366;fill-opacity:1">
		<path
   d="m 71.562,14.45 2.799,2.738 c 0.012,-0.029 0.004,-0.096 -0.012,-0.172 l -2.787,-2.729 -2.787,2.729 c -0.017,0.076 -0.023,0.143 -0.012,0.172 z"
   id="path187"
   style="fill:#003366;fill-opacity:1" />
		<polygon
   points="71.562,15.519 69.266,17.771 69.326,17.871 71.562,15.681 73.8,17.871 73.861,17.771 "
   id="polygon189"
   style="fill:#003366;fill-opacity:1" />
		<path
   d="m 74.867,13.599 c 0.151,0.062 0.392,0.334 0.24,0.485 -0.554,-0.197 -0.727,0.288 -0.727,0.561 0,0.63 0.477,0.954 0.477,2.075 0,0.354 -0.092,1.72 -1.953,2.149 -0.289,0.068 -0.924,0.236 -1.34,0.623 v -0.116 c 0.457,-0.423 1.336,-0.573 1.478,-0.617 0.696,-0.208 1.741,-0.78 1.741,-2.064 0,-0.789 -0.324,-1.408 -0.627,-1.408 -0.128,0 -0.088,0.157 -0.016,0.263 0.043,0.062 0.093,0.167 -0.023,0.144 -0.116,-0.023 -0.27,0.016 -0.27,0.119 0,0.051 0.064,0.051 0.1,0.031 0.036,-0.02 0.081,-0.034 0.146,-0.034 0.129,0 0.268,0.081 0.268,0.174 0,0.093 -0.178,0.054 -0.178,0.128 0,0.05 0.426,0.352 0.426,0.707 0,0.112 -0.047,0.069 -0.073,0 -0.027,-0.069 -0.101,-0.162 -0.171,-0.162 -0.069,0 -0.108,0.027 -0.077,0.084 0.03,0.059 0.147,0.237 0.147,0.484 0,0.248 -0.183,0.573 -0.302,0.719 -0.059,0.073 -0.079,0.027 -0.09,0 -0.011,-0.026 -0.038,-0.111 -0.097,-0.111 -0.1,0 -0.039,0.479 -1.141,0.773 -0.22,0.059 -0.778,0.198 -1.242,0.553 -0.464,-0.354 -1.022,-0.494 -1.241,-0.553 -1.104,-0.294 -1.042,-0.773 -1.142,-0.773 -0.059,0 -0.086,0.085 -0.098,0.111 -0.011,0.027 -0.029,0.073 -0.09,0 -0.118,-0.146 -0.301,-0.471 -0.301,-0.719 0,-0.247 0.115,-0.426 0.147,-0.484 0.03,-0.057 -0.009,-0.084 -0.077,-0.084 -0.07,0 -0.144,0.093 -0.17,0.162 -0.026,0.069 -0.074,0.112 -0.074,0 0,-0.355 0.426,-0.657 0.426,-0.707 0,-0.074 -0.179,-0.035 -0.179,-0.128 0,-0.093 0.14,-0.174 0.267,-0.174 0.067,0 0.113,0.015 0.148,0.034 0.034,0.02 0.1,0.02 0.1,-0.031 0,-0.104 -0.154,-0.143 -0.27,-0.119 -0.117,0.023 -0.066,-0.081 -0.023,-0.144 0.072,-0.105 0.112,-0.263 -0.016,-0.263 -0.302,0 -0.627,0.619 -0.627,1.408 0,1.284 1.045,1.856 1.741,2.064 0.143,0.044 1.021,0.194 1.478,0.617 v 0.116 c -0.417,-0.387 -1.054,-0.555 -1.344,-0.623 -1.862,-0.43 -1.953,-1.796 -1.953,-2.149 0,-1.121 0.477,-1.445 0.477,-2.075 0,-0.272 -0.174,-0.758 -0.727,-0.561 -0.15,-0.151 0.091,-0.424 0.242,-0.485 -0.03,-0.136 0.433,-0.733 1.182,-0.733 0.484,0 0.863,0.233 1.379,0.233 0.196,0 0.547,-0.09 0.744,-0.211 v 0.105 c -0.197,0.121 -0.548,0.212 -0.744,0.212 -0.516,0 -0.895,-0.233 -1.379,-0.233 -0.367,0 -0.651,0.146 -0.832,0.296 0.027,0.005 0.119,0.04 0.13,0.048 0.047,0.033 0.023,0.084 -0.039,0.061 -0.04,-0.015 -0.093,-0.045 -0.151,-0.053 -0.027,0.027 -0.05,0.053 -0.069,0.077 0.119,0 0.194,0.036 0.244,0.065 0.054,0.029 0.037,0.091 -0.032,0.059 -0.061,-0.025 -0.137,-0.062 -0.266,-0.05 -0.021,0.034 -0.034,0.063 -0.037,0.086 l 0.028,0.118 c -0.097,0 -0.364,0.093 -0.313,0.258 0.089,-0.025 0.719,-0.011 0.719,0.628 0,0.107 0.039,0.097 0.039,0.062 0.062,-0.291 -0.135,-0.615 -0.379,-0.731 -0.095,-0.045 -0.074,-0.127 0.062,-0.054 0.13,0.07 0.394,0.267 0.394,0.639 0,0.085 -0.023,0.259 -0.023,0.259 0,0 0.098,-0.097 0.098,-0.337 0,-0.397 -0.321,-0.723 -0.596,-0.723 l -0.028,-0.118 c 0.159,-0.022 0.735,0.13 0.735,0.909 0,0.13 -0.077,0.538 -0.212,0.713 0.15,-0.023 0.439,-0.016 0.212,0.386 0.332,0.068 0.25,0.401 0.144,0.401 -0.141,0 -0.129,-0.076 -0.266,-0.076 -0.099,0 -0.107,0.065 -0.053,0.084 0.068,0.023 0.113,0.061 0.113,0.136 0,0.141 -0.204,0.069 -0.382,0.478 0.06,-0.019 0.095,-0.029 0.137,-0.029 0.041,0 0.14,0.014 0.14,0.098 0,0.084 -0.174,0.209 -0.174,0.55 0,0.179 0.182,0.496 0.227,0.556 0.053,-0.053 0.106,-0.09 0.167,-0.09 0.212,0 0.182,0.166 0.182,0.211 0,0.046 0.234,0.455 0.908,0.622 0.329,0.081 1.048,0.284 1.298,0.526 0.25,-0.242 0.968,-0.445 1.298,-0.526 0.673,-0.167 0.907,-0.576 0.907,-0.622 0,-0.045 -0.029,-0.211 0.183,-0.211 0.061,0 0.113,0.037 0.167,0.09 0.045,-0.06 0.228,-0.377 0.228,-0.556 0,-0.341 -0.176,-0.466 -0.176,-0.55 0,-0.084 0.099,-0.098 0.142,-0.098 0.041,0 0.075,0.011 0.136,0.029 -0.179,-0.408 -0.383,-0.337 -0.383,-0.478 0,-0.075 0.046,-0.112 0.114,-0.136 0.055,-0.019 0.045,-0.084 -0.053,-0.084 -0.137,0 -0.126,0.076 -0.266,0.076 -0.105,0 -0.189,-0.333 0.145,-0.401 -0.228,-0.401 0.06,-0.409 0.211,-0.386 -0.137,-0.175 -0.211,-0.583 -0.211,-0.713 0,-0.465 0.205,-0.707 0.403,-0.821 -0.032,-0.046 -0.065,-0.074 -0.095,-0.101 -0.057,-0.051 -0.01,-0.092 0.04,-0.055 0.036,0.026 0.08,0.061 0.122,0.122 0.025,-0.012 0.051,-0.021 0.074,-0.029 -0.03,-0.048 -0.076,-0.079 -0.104,-0.108 -0.048,-0.047 -0.011,-0.089 0.039,-0.062 0.026,0.015 0.075,0.044 0.14,0.151 0.048,-0.009 0.088,-0.01 0.115,-0.007 l -0.029,0.118 c -0.273,0 -0.595,0.325 -0.595,0.723 0,0.24 0.097,0.337 0.097,0.337 0,0 -0.022,-0.174 -0.022,-0.259 0,-0.372 0.263,-0.568 0.395,-0.639 0.136,-0.073 0.157,0.009 0.062,0.054 -0.244,0.116 -0.442,0.44 -0.38,0.731 0,0.035 0.039,0.046 0.039,-0.062 0,-0.639 0.631,-0.653 0.72,-0.628 0.05,-0.165 -0.216,-0.258 -0.314,-0.258 l 0.029,-0.118 c -0.023,-0.144 -0.41,-0.589 -1.053,-0.589 -0.484,0 -0.863,0.233 -1.379,0.233 -0.197,0 -0.548,-0.091 -0.744,-0.212 v -0.105 c 0.196,0.121 0.544,0.211 0.74,0.211 0.516,0 0.896,-0.233 1.381,-0.233 0.749,0 1.21,0.598 1.18,0.734 z"
   id="path191"
   style="fill:#003366;fill-opacity:1" />
		<path
   d="m 71.562,15.405 2.417,2.366 c 0.195,0.155 0.335,-0.335 0.375,-0.473 l -2.792,-2.734 -2.793,2.734 0.299,0.182 0.003,-0.142 -0.084,-0.113 0.136,-0.042 0.08,-0.114 0.082,0.114 0.178,-0.087 0.002,-0.142 -0.084,-0.113 0.135,-0.042 0.082,-0.115 0.08,0.115 0.178,-0.087 0.003,-0.142 -0.085,-0.112 0.135,-0.042 0.082,-0.116 0.082,0.116 0.178,-0.089 0.002,-0.14 -0.085,-0.113 0.135,-0.043 0.082,-0.115 0.082,0.115 0.178,-0.087 0.001,-0.141 -0.084,-0.114 0.135,-0.042 0.082,-0.114 0.081,0.114 0.179,-0.087 0.001,-0.141 -0.084,-0.113 0.134,-0.043 0.083,-0.115 0.081,0.115 0.179,-0.088 10e-4,-0.14 -0.084,-0.114 0.134,-0.043 0.083,-0.113 0.082,0.113 0.135,0.043 -0.085,0.114 0.002,0.14 0.039,0.131 0.136,-0.043 0.081,-0.115 0.081,0.115 0.136,0.043 -0.084,0.113 10e-4,0.141 0.178,0.087 0.082,-0.114 0.082,0.114 0.135,0.042 -0.085,0.114 0.002,0.141 0.179,0.087 0.081,-0.115 0.081,0.115 0.136,0.043 -0.083,0.113 10e-4,0.14 0.177,0.089 0.082,-0.116 0.082,0.116 0.135,0.042 -0.085,0.112 0.001,0.142 0.179,0.087 0.081,-0.115 0.078,0.116 0.134,0.042 -0.084,0.113 0.002,0.142 0.178,0.087 0.082,-0.114 0.082,0.114 0.134,0.042 -0.084,0.113 0.001,0.142 -0.133,-0.046 -0.134,0.046 0.001,-0.142 -0.084,-0.113 0.135,-0.042 -0.178,-0.087 -0.135,-0.046 -0.133,0.046 10e-4,-0.142 -0.084,-0.113 0.135,-0.042 -0.179,-0.087 -0.133,-0.045 -0.134,0.045 0.001,-0.142 -0.085,-0.112 0.136,-0.042 -0.177,-0.089 -0.135,-0.044 -0.134,0.044 0.001,-0.14 -0.084,-0.113 0.136,-0.043 -0.179,-0.087 -0.132,-0.045 -0.134,0.045 0.001,-0.141 -0.084,-0.114 0.135,-0.042 -0.178,-0.087 -0.134,-0.045 -0.133,0.045 0.001,-0.141 -0.085,-0.113 -0.039,-0.131 -0.134,-0.045 -0.134,0.045 -0.179,0.088 0.136,0.043 -0.085,0.113 0.002,0.141 -0.134,-0.045 -0.134,0.045 -0.179,0.087 0.136,0.042 -0.085,0.114 0.001,0.141 -0.132,-0.045 -0.134,0.045 -0.178,0.087 0.135,0.043 -0.085,0.113 0.001,0.14 -0.133,-0.044 -0.134,0.044 -0.178,0.089 0.135,0.042 -0.084,0.112 0.001,0.142 -0.134,-0.045 -0.135,0.045 -0.176,0.087 0.137,0.042 -0.085,0.113 10e-4,0.142 -0.133,-0.046 -0.135,0.046 -0.178,0.087 0.136,0.042 -0.085,0.113 0.002,0.142 -0.135,-0.046 -0.135,0.046 -0.299,-0.182 c 0.041,0.138 0.181,0.628 0.375,0.473 z"
   id="path193"
   style="fill:#003366;fill-opacity:1" />
		<ellipse
   cx="69.596001"
   cy="16.941"
   rx="0.23999999"
   ry="0.25600001"
   id="ellipse195"
   style="fill:#003366;fill-opacity:1" />
		<ellipse
   cx="70.388"
   cy="16.172001"
   rx="0.23899999"
   ry="0.25600001"
   id="ellipse197"
   style="fill:#003366;fill-opacity:1" />
		<ellipse
   cx="71.18"
   cy="15.38"
   rx="0.23999999"
   ry="0.25600001"
   id="ellipse199"
   style="fill:#003366;fill-opacity:1" />
		<ellipse
   cx="71.948997"
   cy="15.38"
   rx="0.23999999"
   ry="0.25600001"
   id="ellipse201"
   style="fill:#003366;fill-opacity:1" />
		<ellipse
   cx="72.739998"
   cy="16.149"
   rx="0.23999999"
   ry="0.25600001"
   id="ellipse203"
   style="fill:#003366;fill-opacity:1" />
		<ellipse
   cx="73.510002"
   cy="16.941"
   rx="0.23999999"
   ry="0.25600001"
   id="ellipse205"
   style="fill:#003366;fill-opacity:1" />
	</g>
</g>
</svg>
